<svg width="47" height="34" viewBox="0 0 47 34" fill="none" xmlns="http://www.w3.org/2000/svg">
<rect x="0.294006" y="0.993164" width="46.0845" height="32.5302" rx="2.88028" fill="#1F72CD"/>
<path fill-rule="evenodd" clip-rule="evenodd" d="M8.55584 12.5142L4.24408 22.3366H9.40586L10.0458 20.7705H11.5085L12.1484 22.3366H17.8301V21.1413L18.3363 22.3366H21.2753L21.7816 21.116V22.3366H33.5979L35.0348 20.8112L36.3801 22.3366L42.4492 22.3492L38.1239 17.4528L42.4492 12.5142H36.4743L35.0756 14.0114L33.7726 12.5142H20.918L19.8141 15.0494L18.6844 12.5142H13.5334V13.6688L12.9604 12.5142H8.55584ZM9.55462 13.909H12.0707L14.9307 20.5696V13.909H17.687L19.896 18.6846L21.9319 13.909H24.6744V20.9572H23.0056L22.992 15.4342L20.5591 20.9572H19.0663L16.6198 15.4342V20.9572H13.1868L12.536 19.3771H9.01976L8.37028 20.9558H6.53091L9.55462 13.909ZM32.9866 13.909H26.2011V20.953H32.8816L35.0348 18.6185L37.1101 20.953H39.2796L36.1263 17.4514L39.2796 13.909H37.2043L35.062 16.2167L32.9866 13.909ZM10.7786 15.1016L9.62015 17.9164H11.9357L10.7786 15.1016ZM27.8768 16.6549V15.3683V15.367H32.1107L33.9582 17.4247L32.0289 19.4936H27.8768V18.089H31.5786V16.6549H27.8768Z" fill="white"/>
</svg>
