<svg width="32" height="32" viewBox="0 0 32 32" fill="none" xmlns="http://www.w3.org/2000/svg">
<path d="M29.7264 7.85228H4.89745L9.54645 3.20328C9.81167 2.93806 9.96066 2.57835 9.96066 2.20328C9.96066 1.8282 9.81167 1.46849 9.54645 1.20328C9.28123 0.93806 8.92152 0.789063 8.54645 0.789062C8.17138 0.789062 7.81167 0.93806 7.54645 1.20328L0.49045 8.26528C0.358864 8.39645 0.254461 8.5523 0.183224 8.7239C0.111987 8.8955 0.0753174 9.07948 0.0753174 9.26528C0.0753174 9.45108 0.111987 9.63505 0.183224 9.80665C0.254461 9.97825 0.358864 10.1341 0.49045 10.2653L7.54945 17.3243C7.68077 17.4556 7.83667 17.5598 8.00825 17.6308C8.17983 17.7019 8.36373 17.7385 8.54945 17.7385C8.73517 17.7385 8.91907 17.7019 9.09065 17.6308C9.26223 17.5598 9.41813 17.4556 9.54945 17.3243C9.68077 17.193 9.78494 17.0371 9.85601 16.8655C9.92708 16.6939 9.96366 16.51 9.96366 16.3243C9.96366 16.1386 9.92708 15.9547 9.85601 15.7831C9.78494 15.6115 9.68077 15.4556 9.54945 15.3243L4.89745 10.6763H29.7264C30.1009 10.6763 30.4601 10.5275 30.7249 10.2627C30.9897 9.99791 31.1385 9.63876 31.1385 9.26428C31.1385 8.88979 30.9897 8.53064 30.7249 8.26584C30.4601 8.00104 30.1009 7.85228 29.7264 7.85228Z" fill="#212529"/>
<path d="M23.6655 15.3252C23.5341 15.1939 23.3782 15.0897 23.2066 15.0187C23.0351 14.9476 22.8512 14.911 22.6655 14.911C22.4797 14.911 22.2958 14.9476 22.1243 15.0187C21.9527 15.0897 21.7968 15.1939 21.6655 15.3252C21.5341 15.4565 21.43 15.6124 21.3589 15.784C21.2878 15.9556 21.2512 16.1395 21.2512 16.3252C21.2512 16.5109 21.2878 16.6948 21.3589 16.8664C21.43 17.038 21.5341 17.1939 21.6655 17.3252L26.3145 21.9742H1.48945C1.11497 21.9742 0.75582 22.123 0.491019 22.3878C0.226217 22.6526 0.0774536 23.0117 0.0774536 23.3862C0.0774536 23.7607 0.226217 24.1199 0.491019 24.3847C0.75582 24.6495 1.11497 24.7982 1.48945 24.7982H26.3185L21.6695 29.4472C21.5381 29.5785 21.434 29.7344 21.3629 29.906C21.2918 30.0776 21.2552 30.2615 21.2552 30.4472C21.2552 30.6329 21.2918 30.8168 21.3629 30.9884C21.434 31.16 21.5381 31.3159 21.6695 31.4472C21.8008 31.5785 21.9567 31.6827 22.1283 31.7538C22.2998 31.8249 22.4837 31.8614 22.6695 31.8614C22.8552 31.8614 23.0391 31.8249 23.2106 31.7538C23.3822 31.6827 23.5381 31.5785 23.6695 31.4472L30.7285 24.3882C30.86 24.2571 30.9644 24.1012 31.0357 23.9296C31.1069 23.758 31.1436 23.574 31.1436 23.3882C31.1436 23.2024 31.1069 23.0184 31.0357 22.8468C30.9644 22.6752 30.86 22.5194 30.7285 22.3882L23.6655 15.3252Z" fill="#212529"/>
</svg>
