<svg width="30" height="31" viewBox="0 0 30 31" fill="none" xmlns="http://www.w3.org/2000/svg">
<g clip-path="url(#clip0_55_2960)">
<path d="M23.75 0.5H6.25C4.59301 0.501985 3.00445 1.1611 1.83277 2.33277C0.661102 3.50445 0.00198482 5.09301 0 6.75L0 24.25C0.00198482 25.907 0.661102 27.4956 1.83277 28.6672C3.00445 29.8389 4.59301 30.498 6.25 30.5H23.75C25.407 30.498 26.9956 29.8389 28.1672 28.6672C29.3389 27.4956 29.998 25.907 30 24.25V6.75C29.998 5.09301 29.3389 3.50445 28.1672 2.33277C26.9956 1.1611 25.407 0.501985 23.75 0.5V0.5ZM27.5 6.75H18.75V3H23.75C24.7446 3 25.6984 3.39509 26.4017 4.09835C27.1049 4.80161 27.5 5.75544 27.5 6.75ZM13.75 3H16.25V9.25C16.25 9.58152 16.1183 9.89946 15.8839 10.1339C15.6495 10.3683 15.3315 10.5 15 10.5C14.6685 10.5 14.3505 10.3683 14.1161 10.1339C13.8817 9.89946 13.75 9.58152 13.75 9.25V3ZM6.25 3H11.25V6.75H2.5C2.5 5.75544 2.89509 4.80161 3.59835 4.09835C4.30161 3.39509 5.25544 3 6.25 3ZM23.75 28H6.25C5.25544 28 4.30161 27.6049 3.59835 26.9017C2.89509 26.1984 2.5 25.2446 2.5 24.25V9.25H11.25C11.25 10.2446 11.6451 11.1984 12.3483 11.9017C13.0516 12.6049 14.0054 13 15 13C15.9946 13 16.9484 12.6049 17.6517 11.9017C18.3549 11.1984 18.75 10.2446 18.75 9.25H27.5V24.25C27.5 25.2446 27.1049 26.1984 26.4017 26.9017C25.6984 27.6049 24.7446 28 23.75 28ZM25 24.25C25 24.5815 24.8683 24.8995 24.6339 25.1339C24.3995 25.3683 24.0815 25.5 23.75 25.5H20C19.6685 25.5 19.3505 25.3683 19.1161 25.1339C18.8817 24.8995 18.75 24.5815 18.75 24.25C18.75 23.9185 18.8817 23.6005 19.1161 23.3661C19.3505 23.1317 19.6685 23 20 23H23.75C24.0815 23 24.3995 23.1317 24.6339 23.3661C24.8683 23.6005 25 23.9185 25 24.25Z" fill="white"/>
</g>
<defs>
<clipPath id="clip0_55_2960">
<rect width="30" height="30" fill="white" transform="translate(0 0.5)"/>
</clipPath>
</defs>
</svg>
