<svg width="25" height="25" viewBox="0 0 25 25" fill="none" xmlns="http://www.w3.org/2000/svg">
<path d="M21.2931 9.81988L7.29313 2.81988C6.74062 2.54489 6.11674 2.44699 5.50656 2.53954C4.89638 2.63208 4.32959 2.91055 3.88346 3.337C3.43733 3.76345 3.13358 4.31711 3.01362 4.92249C2.89366 5.52788 2.96333 6.15554 3.21313 6.71988L5.61313 12.0899C5.66758 12.2197 5.69563 12.3591 5.69563 12.4999C5.69563 12.6407 5.66758 12.7801 5.61313 12.9099L3.21313 18.2799C3.00983 18.7366 2.92388 19.2369 2.96311 19.7353C3.00233 20.2336 3.16547 20.7143 3.43771 21.1336C3.70995 21.5529 4.08265 21.8975 4.52195 22.1361C4.96125 22.3747 5.45321 22.4998 5.95313 22.4999C6.42136 22.4952 6.88262 22.3859 7.30313 22.1799L21.3031 15.1799C21.7997 14.9301 22.2171 14.5472 22.5088 14.074C22.8005 13.6007 22.9549 13.0558 22.9549 12.4999C22.9549 11.944 22.8005 11.399 22.5088 10.9258C22.2171 10.4526 21.7997 10.0697 21.3031 9.81988H21.2931ZM20.4031 13.3899L6.40313 20.3899C6.21929 20.4782 6.01286 20.5081 5.81151 20.4757C5.61017 20.4434 5.42354 20.3502 5.27664 20.2087C5.12975 20.0673 5.02961 19.8843 4.98966 19.6843C4.94971 19.4843 4.97185 19.2769 5.05313 19.0899L7.44313 13.7199C7.47407 13.6482 7.50078 13.5747 7.52313 13.4999H14.4131C14.6783 13.4999 14.9327 13.3945 15.1202 13.207C15.3078 13.0195 15.4131 12.7651 15.4131 12.4999C15.4131 12.2347 15.3078 11.9803 15.1202 11.7928C14.9327 11.6052 14.6783 11.4999 14.4131 11.4999H7.52313C7.50078 11.4251 7.47407 11.3516 7.44313 11.2799L5.05313 5.90988C4.97185 5.72285 4.94971 5.51543 4.98966 5.31545C5.02961 5.11547 5.12975 4.93249 5.27664 4.79103C5.42354 4.64958 5.61017 4.55641 5.81151 4.52404C6.01286 4.49166 6.21929 4.52161 6.40313 4.60988L20.4031 11.6099C20.5669 11.6938 20.7044 11.8213 20.8004 11.9783C20.8964 12.1354 20.9472 12.3158 20.9472 12.4999C20.9472 12.6839 20.8964 12.8644 20.8004 13.0214C20.7044 13.1785 20.5669 13.306 20.4031 13.3899Z" fill="#F9E547"/>
</svg>
