<svg width="14" height="15" viewBox="0 0 14 15" fill="none" xmlns="http://www.w3.org/2000/svg">
<path d="M3.1109 5.9264V12.2847C3.1109 12.605 3.23807 12.9124 3.46498 13.1387C3.69132 13.3651 3.99815 13.4922 4.3184 13.4922H9.70898C10.0292 13.4922 10.3361 13.3651 10.5624 13.1387C10.7893 12.9124 10.9165 12.605 10.9165 12.2847C10.9165 10.5546 10.9165 5.9264 10.9165 5.9264C10.9165 5.6849 10.7205 5.4889 10.479 5.4889C10.2375 5.4889 10.0415 5.6849 10.0415 5.9264V12.2847C10.0415 12.3728 10.0065 12.4574 9.94407 12.5198C9.88165 12.5822 9.79707 12.6172 9.70898 12.6172H4.3184C4.23032 12.6172 4.14573 12.5822 4.08332 12.5198C4.0209 12.4574 3.9859 12.3728 3.9859 12.2847V5.9264C3.9859 5.6849 3.7899 5.4889 3.5484 5.4889C3.3069 5.4889 3.1109 5.6849 3.1109 5.9264Z" fill="#2B2B2C"/>
<path d="M3.52391 7.56498L1.74883 6.34757C1.673 6.29565 1.62225 6.21457 1.60825 6.12415C1.59425 6.03373 1.61816 5.94098 1.67416 5.86865L3.7625 3.19057H5.26925C5.70091 3.66365 6.32274 3.96057 7.01341 3.96057C7.70466 3.96057 8.3265 3.66365 8.75875 3.18998C8.75816 3.19057 10.2375 3.19057 10.2375 3.19057L12.3258 5.86865C12.3818 5.94098 12.4057 6.03373 12.3917 6.12415C12.3777 6.21457 12.327 6.29565 12.2512 6.34757L10.4761 7.56498C10.2772 7.70148 10.2264 7.9739 10.3629 8.17282C10.4994 8.37232 10.7718 8.42307 10.9713 8.28657C10.9713 8.28657 12.0207 7.56673 12.7464 7.06915C13.0212 6.88073 13.2055 6.58732 13.2568 6.25832C13.3076 5.92932 13.2207 5.59332 13.0159 5.33082L10.7963 2.48415C10.7135 2.3774 10.5863 2.31557 10.4516 2.31557H8.55341C8.41575 2.31557 8.28624 2.38032 8.20341 2.48998C7.93216 2.85165 7.49991 3.08557 7.01341 3.08557C6.52749 3.08557 6.09524 2.85165 5.82341 2.48998C5.74116 2.38032 5.61166 2.31557 5.47399 2.31557H3.54841C3.41366 2.31557 3.2865 2.3774 3.20366 2.48415L0.984079 5.33082C0.779329 5.59332 0.692412 5.92932 0.743162 6.25832C0.794495 6.58732 0.978829 6.88073 1.25358 7.06915L3.02866 8.28657C3.22816 8.42307 3.50058 8.37232 3.63708 8.17282C3.77358 7.9739 3.72283 7.70148 3.52391 7.56498Z" fill="#2B2B2C"/>
</svg>
