<svg width="30" height="31" viewBox="0 0 30 31" fill="none" xmlns="http://www.w3.org/2000/svg">
<path d="M6.875 21.75C7.91053 21.75 8.75 20.9105 8.75 19.875C8.75 18.8395 7.91053 18 6.875 18C5.83947 18 5 18.8395 5 19.875C5 20.9105 5.83947 21.75 6.875 21.75Z" fill="white"/>
<path d="M23.75 4.25H6.25C2.75 4.25 0 7 0 10.5V20.5C0 24 2.75 26.75 6.25 26.75H23.75C27.25 26.75 30 24 30 20.5V10.5C30 7 27.25 4.25 23.75 4.25ZM6.25 6.75H23.75C25.875 6.75 27.5 8.375 27.5 10.5H2.5C2.5 8.375 4.125 6.75 6.25 6.75ZM23.75 24.25H6.25C4.125 24.25 2.5 22.625 2.5 20.5V13H27.5V20.5C27.5 22.625 25.875 24.25 23.75 24.25Z" fill="white"/>
</svg>
