<svg width="383" height="33" viewBox="0 0 383 33" fill="none" xmlns="http://www.w3.org/2000/svg">
<path fill-rule="evenodd" clip-rule="evenodd" d="M15.2659 21.6404H12.474L10.3805 13.4186C10.2811 13.0404 10.0702 12.706 9.75981 12.5484C8.98528 12.1524 8.13181 11.8372 7.20074 11.6783V11.3617H11.6982C12.3189 11.3617 12.7844 11.8372 12.862 12.3895L13.9482 18.3202L16.7387 11.3617H19.4529L15.2659 21.6404ZM21.0047 21.6404H18.3681L20.5392 11.3617H23.1758L21.0047 21.6404ZM26.587 14.2093C26.6646 13.6557 27.1301 13.3392 27.6732 13.3392C28.5267 13.2597 29.4564 13.4187 30.2323 13.8133L30.6978 11.6003C29.922 11.2837 29.0685 11.1248 28.294 11.1248C25.7349 11.1248 23.8728 12.5485 23.8728 14.5245C23.8728 16.0277 25.1918 16.817 26.1228 17.2925C27.1301 17.7666 27.5181 18.0832 27.4405 18.5573C27.4405 19.2685 26.6646 19.585 25.8901 19.585C24.959 19.585 24.0279 19.348 23.1758 18.952L22.7103 21.1664C23.6414 21.561 24.6487 21.72 25.5797 21.72C28.4491 21.7981 30.2323 20.3757 30.2323 18.2408C30.2323 15.5522 26.587 15.3946 26.587 14.2093ZM39.4599 21.6404L37.3664 11.3617H35.1177C34.6521 11.3617 34.1866 11.6783 34.0314 12.1524L30.1547 21.6404H32.8689L33.4107 20.1386H36.7457L37.056 21.6404H39.4599ZM35.5056 14.1299L36.2801 18.0037H34.109L35.5056 14.1299Z" fill="#172B85"/>
<path fill-rule="evenodd" clip-rule="evenodd" d="M77.5523 26.3811H81.0711C86.5639 26.3811 90.941 22.0404 91.1126 16.6784V16.5933C91.0268 11.1461 86.5639 6.72029 81.0711 6.80541H77.1232C71.8879 6.97563 67.7683 11.4014 67.94 16.6784C67.94 21.9553 72.2312 26.296 77.5523 26.3811ZM69.6565 16.5933C69.6565 12.1675 73.347 8.50773 77.8098 8.50773C82.2727 8.50773 85.9632 12.1675 85.9632 16.5933C85.9632 21.0192 82.2727 24.679 77.8098 24.679C73.347 24.679 69.6565 21.0192 69.6565 16.5933ZM79.0972 22.0404V11.2312C82.1011 11.9972 83.9892 14.9761 83.2168 17.955C82.7018 19.9977 81.157 21.5297 79.0972 22.0404ZM72.4887 15.2315C71.7163 18.2104 73.5186 21.2744 76.5225 22.0404V11.2312C74.5485 11.7419 73.0036 13.2739 72.4887 15.2315Z" fill="#0079BE"/>
<rect x="112.169" y="0.32373" width="46.0845" height="32.5302" rx="2.88028" fill="#1F72CD"/>
<path fill-rule="evenodd" clip-rule="evenodd" d="M120.431 11.8447L116.119 21.6672H121.281L121.921 20.1011H123.383L124.023 21.6672H129.705V20.4719L130.211 21.6672H133.15L133.657 20.4466V21.6672H145.473L146.91 20.1417L148.255 21.6672L154.324 21.6798L149.999 16.7834L154.324 11.8447H148.349L146.951 13.342L145.648 11.8447H132.793L131.689 14.38L130.559 11.8447H125.408V12.9994L124.835 11.8447H120.431ZM121.43 13.2395H123.946L126.806 19.9002V13.2395H129.562L131.771 18.0152L133.807 13.2395H136.549V20.2878H134.881L134.867 14.7648L132.434 20.2878H130.941L128.495 14.7648V20.2878H125.062L124.411 18.7076H120.895L120.245 20.2864H118.406L121.43 13.2395ZM144.862 13.2395H138.076V20.2836H144.757L146.91 17.9491L148.985 20.2836H151.155L148.001 16.782L151.155 13.2395H149.079L146.937 15.5472L144.862 13.2395ZM122.654 14.4321L121.495 17.247H123.811L122.654 14.4321ZM139.752 15.9855V14.6988V14.6976H143.986L145.833 16.7553L143.904 18.8242H139.752V17.4196H143.454V15.9855H139.752Z" fill="white"/>
<path fill-rule="evenodd" clip-rule="evenodd" d="M191.538 23.1344C189.933 24.4872 187.852 25.3038 185.577 25.3038C180.501 25.3038 176.386 21.238 176.386 16.2225C176.386 11.207 180.501 7.14111 185.577 7.14111C187.852 7.14111 189.933 7.95776 191.538 9.31053C193.143 7.95776 195.225 7.14111 197.5 7.14111C202.576 7.14111 206.691 11.207 206.691 16.2225C206.691 21.238 202.576 25.3038 197.5 25.3038C195.225 25.3038 193.143 24.4872 191.538 23.1344Z" fill="#ED0006"/>
<path fill-rule="evenodd" clip-rule="evenodd" d="M191.538 23.1344C193.514 21.4687 194.768 18.9902 194.768 16.2225C194.768 13.4547 193.514 10.9762 191.538 9.31052C193.143 7.95775 195.225 7.14111 197.5 7.14111C202.576 7.14111 206.691 11.207 206.691 16.2225C206.691 21.238 202.576 25.3038 197.5 25.3038C195.225 25.3038 193.143 24.4872 191.538 23.1344Z" fill="#F9A000"/>
<path fill-rule="evenodd" clip-rule="evenodd" d="M191.538 23.1349C193.515 21.4692 194.768 18.9907 194.768 16.2229C194.768 13.4552 193.515 10.9767 191.538 9.31104C189.562 10.9767 188.309 13.4552 188.309 16.2229C188.309 18.9907 189.562 21.4692 191.538 23.1349Z" fill="#FF5E00"/>
<path d="M234.943 13.1943C235.333 13.0665 235.75 12.9971 236.184 12.9971C238.079 12.9971 239.659 14.317 240.021 16.0706L242.705 15.5336C242.09 12.5534 239.404 10.3101 236.184 10.3101C235.447 10.3101 234.737 10.4279 234.075 10.6449L234.943 13.1943Z" fill="#FECA2F"/>
<path d="M231.749 21.8311L233.356 19.7558C232.638 19.0302 232.186 17.9707 232.186 16.7898C232.186 15.6098 232.638 14.5504 233.355 13.8253L231.747 11.7502C230.528 12.9831 229.76 14.784 229.76 16.7898C229.76 18.7967 230.529 20.5982 231.749 21.8311Z" fill="#1BA7DE"/>
<path d="M240.022 17.5107C239.658 19.264 238.079 20.5823 236.187 20.5823C235.752 20.5823 235.334 20.5127 234.944 20.3845L234.075 22.9352C234.738 23.1533 235.448 23.2712 236.187 23.2712C239.404 23.2712 242.087 21.0294 242.705 18.0504L240.022 17.5107Z" fill="#EC412A"/>
<path fill-rule="evenodd" clip-rule="evenodd" d="M255.621 11.7502V19.1255L256.944 19.656L256.318 21.1106L255.009 20.5845C254.715 20.4611 254.516 20.2731 254.364 20.0608C254.219 19.8435 254.111 19.5465 254.111 19.1458V11.7502H255.621ZM245.583 17.2318C245.616 15.1227 247.412 13.4391 249.591 13.4714C251.441 13.4995 252.974 14.7524 253.376 16.4188L246.222 19.3757C245.806 18.7614 245.57 18.0222 245.583 17.2318ZM247.22 17.5276C247.21 17.4391 247.203 17.3484 247.206 17.2568C247.226 16.0142 248.284 15.0227 249.568 15.0433C250.267 15.0523 250.887 15.3618 251.307 15.8408L247.22 17.5276ZM251.156 18.8968C250.725 19.3024 250.14 19.5495 249.495 19.5406C249.052 19.5335 248.642 19.4054 248.293 19.1919L247.429 20.5236C248.021 20.8854 248.719 21.0995 249.471 21.1107C250.567 21.1265 251.565 20.7104 252.291 20.0235L251.156 18.8968ZM261.129 15.043C260.871 15.043 260.623 15.0832 260.392 15.1584L259.877 13.6661C260.27 13.5392 260.691 13.4703 261.129 13.4703C263.04 13.4703 264.635 14.7833 265.001 16.5275L263.407 16.8418C263.192 15.8153 262.254 15.043 261.129 15.043ZM258.511 20.1521L259.589 18.9742C259.108 18.5623 258.805 17.9608 258.805 17.2903C258.805 16.6205 259.108 16.0193 259.588 15.6077L258.51 14.4298C257.693 15.1296 257.178 16.1523 257.178 17.2903C257.178 18.4297 257.693 19.452 258.511 20.1521ZM261.129 19.5385C262.253 19.5385 263.191 18.7668 263.407 17.7418L265 18.0574C264.633 19.7998 263.039 21.111 261.129 21.111C260.69 21.111 260.269 21.0419 259.875 20.9144L260.391 19.4226C260.623 19.4975 260.871 19.5385 261.129 19.5385Z" fill="black"/>
<path fill-rule="evenodd" clip-rule="evenodd" d="M299.837 23.2346C299.976 23.2346 300.089 23.122 300.089 22.9831V14.8154C300.089 13.4517 301.194 12.3461 302.558 12.3459C302.558 12.3459 302.558 12.3459 302.558 12.3459L304.969 12.3495C306.329 12.3522 307.43 13.4553 307.43 14.8151V16.5536C307.43 17.9175 306.324 19.0232 304.961 19.0232H301.553C301.414 19.0232 301.301 19.1358 301.301 19.2748C301.301 19.4137 301.414 19.5263 301.553 19.5263H304.961C306.602 19.5263 307.933 18.1953 307.933 16.5536V14.8151C307.933 13.1779 306.608 11.8497 304.97 11.8465H304.97L302.559 11.8429H302.558C300.917 11.8429 299.586 13.1737 299.586 14.8154V22.9831C299.586 23.122 299.698 23.2346 299.837 23.2346Z" fill="#939598"/>
<path fill-rule="evenodd" clip-rule="evenodd" d="M310.518 19.563C310.657 19.563 310.77 19.4504 310.77 19.3115V13.2102C310.77 12.4545 310.157 11.8419 309.402 11.8419H308.356C308.217 11.8419 308.104 11.9545 308.104 12.0935C308.104 12.2324 308.217 12.345 308.356 12.345H309.402C309.879 12.345 310.267 12.7323 310.267 13.2102V19.3115C310.267 19.4504 310.379 19.563 310.518 19.563Z" fill="#939598"/>
<path d="M310.294 11.148L309.82 10.6736C309.702 10.5559 309.702 10.3651 309.82 10.2473L310.294 9.77327C310.412 9.65536 310.603 9.65536 310.721 9.77327L311.195 10.2473C311.312 10.3651 311.312 10.5559 311.195 10.6736L310.72 11.148C310.603 11.2658 310.412 11.2658 310.294 11.148Z" fill="#32BCAD"/>
<path fill-rule="evenodd" clip-rule="evenodd" d="M318.372 14.9257C318.156 15.1418 317.806 15.1418 317.59 14.9257L315.163 12.4992C315.163 12.4992 315.163 12.4992 315.163 12.4992C314.739 12.0747 314.163 11.8362 313.563 11.8362H312.525C312.386 11.8362 312.274 11.9488 312.274 12.0877C312.274 12.2266 312.386 12.3392 312.525 12.3392H313.563C314.03 12.3392 314.477 12.5247 314.808 12.8549L317.234 15.2813C317.234 15.2814 317.234 15.2813 317.234 15.2813C317.647 15.694 318.316 15.694 318.728 15.2814C318.728 15.2814 318.728 15.2814 318.728 15.2814L321.146 12.8638C321.476 12.5336 321.924 12.3481 322.391 12.3481H323.234C323.373 12.3481 323.486 12.2355 323.486 12.0966C323.486 11.9577 323.373 11.8451 323.234 11.8451H322.391C321.79 11.8451 321.215 12.0836 320.79 12.5081L318.372 14.9257Z" fill="#939598"/>
<path fill-rule="evenodd" clip-rule="evenodd" d="M312.274 19.258C312.274 19.3969 312.386 19.5095 312.525 19.5095H313.563C314.163 19.5095 314.739 19.2711 315.163 18.8465C315.163 18.8465 315.163 18.8465 315.163 18.8465L317.59 16.42C317.806 16.2039 318.156 16.2039 318.372 16.42L320.79 18.8376C321.215 19.2621 321.79 19.5006 322.391 19.5006H323.234C323.373 19.5006 323.486 19.388 323.486 19.2491C323.486 19.1102 323.373 18.9976 323.234 18.9976H322.391C321.924 18.9976 321.476 18.8121 321.146 18.4819L318.728 16.0643C318.316 15.6517 317.647 15.6517 317.234 16.0643L314.808 18.4908C314.477 18.821 314.03 19.0065 313.563 19.0065H312.525C312.386 19.0065 312.274 19.1191 312.274 19.258Z" fill="#939598"/>
<path d="M293.652 20.8078C293.132 20.8078 292.642 20.605 292.274 20.237L290.283 18.2466C290.144 18.1064 289.9 18.1069 289.76 18.2466L287.763 20.2443C287.394 20.6123 286.905 20.815 286.384 20.815H285.992L288.513 23.336C289.3 24.1233 290.577 24.1233 291.364 23.336L293.892 20.8078H293.652Z" fill="#32BCAD"/>
<path d="M286.384 13.7673C286.905 13.7673 287.394 13.9701 287.762 14.3381L289.76 16.3362C289.904 16.4801 290.139 16.4807 290.283 16.336L292.274 14.3454C292.642 13.9774 293.132 13.7746 293.652 13.7746H293.892L291.364 11.2464C290.577 10.4591 289.3 10.4591 288.513 11.2464L285.992 13.7673H286.384Z" fill="#32BCAD"/>
<path d="M295.983 15.8655L294.455 14.3376C294.422 14.3511 294.385 14.3596 294.347 14.3596H293.652C293.293 14.3596 292.942 14.5052 292.688 14.7591L290.697 16.7496C290.511 16.9359 290.266 17.0291 290.022 17.0291C289.777 17.0291 289.533 16.9359 289.346 16.7498L287.348 14.7519C287.095 14.4979 286.743 14.3523 286.384 14.3523H285.53C285.493 14.3523 285.459 14.3437 285.427 14.3316L283.893 15.8655C283.106 16.6527 283.106 17.9293 283.893 18.7167L285.427 20.2505C285.459 20.2384 285.493 20.2298 285.53 20.2298H286.384C286.743 20.2298 287.095 20.0841 287.348 19.8302L289.346 17.8325C289.707 17.4717 290.337 17.4715 290.697 17.8326L292.688 19.8229C292.942 20.0769 293.293 20.2225 293.652 20.2225H294.347C294.385 20.2225 294.422 20.2309 294.455 20.2444L295.983 18.7167C296.771 17.9293 296.771 16.6527 295.983 15.8655Z" fill="#32BCAD"/>
<path d="M301.911 22.2888C301.798 22.2888 301.667 22.3159 301.537 22.3458V22.8436C301.627 22.8764 301.73 22.8922 301.828 22.8922C302.078 22.8922 302.196 22.808 302.196 22.5883C302.196 22.3815 302.099 22.2888 301.911 22.2888ZM301.453 23.2131V22.2289H301.522L301.529 22.2717C301.644 22.2446 301.804 22.2089 301.918 22.2089C302.011 22.2089 302.099 22.2231 302.174 22.283C302.259 22.353 302.286 22.4656 302.286 22.5883C302.286 22.7167 302.243 22.838 302.127 22.905C302.045 22.9506 301.935 22.9691 301.837 22.9691C301.736 22.9691 301.639 22.9533 301.537 22.9235V23.2131H301.453Z" fill="#939598"/>
<path d="M302.913 22.2859C302.663 22.2859 302.552 22.3645 302.552 22.5841C302.552 22.7967 302.662 22.8923 302.913 22.8923C303.161 22.8923 303.272 22.8152 303.272 22.5955C303.272 22.383 303.163 22.2859 302.913 22.2859ZM303.234 22.8923C303.151 22.9521 303.04 22.9692 302.913 22.9692C302.783 22.9692 302.672 22.9506 302.59 22.8923C302.499 22.8281 302.462 22.7224 302.462 22.5899C302.462 22.4586 302.499 22.3517 302.59 22.2859C302.672 22.2275 302.783 22.209 302.913 22.209C303.041 22.209 303.151 22.2275 303.234 22.2859C303.327 22.3517 303.362 22.4586 303.362 22.5884C303.362 22.7211 303.325 22.8281 303.234 22.8923Z" fill="#939598"/>
<path d="M304.415 22.9495L304.137 22.3519H304.132L303.858 22.9495H303.782L303.485 22.2291H303.578L303.825 22.8338H303.831L304.099 22.2291H304.176L304.451 22.8338H304.457L304.698 22.2291H304.788L304.491 22.9495H304.415Z" fill="#939598"/>
<path d="M305.326 22.2848C305.095 22.2848 305.016 22.3874 305.002 22.5359H305.65C305.642 22.3719 305.558 22.2848 305.326 22.2848ZM305.323 22.9695C305.185 22.9695 305.095 22.9495 305.023 22.8895C304.939 22.8167 304.911 22.7113 304.911 22.5901C304.911 22.4745 304.949 22.3519 305.045 22.2819C305.125 22.2263 305.223 22.2092 305.326 22.2092C305.419 22.2092 305.526 22.2191 305.614 22.2791C305.718 22.3489 305.738 22.4717 305.738 22.6114H304.999C305.002 22.7598 305.051 22.8911 305.33 22.8911C305.463 22.8911 305.587 22.8696 305.702 22.8496V22.9252C305.583 22.9467 305.45 22.9695 305.323 22.9695Z" fill="#939598"/>
<path d="M305.98 22.9495V22.2291H306.048L306.055 22.272C306.208 22.2334 306.279 22.2092 306.413 22.2092H306.423V22.2891H306.403C306.291 22.2891 306.222 22.3046 306.064 22.3461V22.9495H305.98Z" fill="#939598"/>
<path d="M306.912 22.2848C306.681 22.2848 306.602 22.3874 306.588 22.5359H307.236C307.229 22.3719 307.145 22.2848 306.912 22.2848ZM306.909 22.9695C306.771 22.9695 306.681 22.9495 306.61 22.8895C306.525 22.8167 306.497 22.7113 306.497 22.5901C306.497 22.4745 306.535 22.3519 306.631 22.2819C306.711 22.2263 306.809 22.2092 306.912 22.2092C307.005 22.2092 307.112 22.2191 307.2 22.2791C307.304 22.3489 307.324 22.4717 307.324 22.6114H306.585C306.588 22.7598 306.637 22.8911 306.916 22.8911C307.049 22.8911 307.173 22.8696 307.289 22.8496V22.9252C307.169 22.9467 307.036 22.9695 306.909 22.9695Z" fill="#939598"/>
<path d="M308.246 22.3348C308.156 22.3019 308.054 22.2862 307.955 22.2862C307.706 22.2862 307.587 22.3705 307.587 22.5901C307.587 22.7983 307.684 22.8895 307.872 22.8895C307.985 22.8895 308.116 22.8624 308.246 22.8339V22.3348ZM308.262 22.9496L308.255 22.9067C308.139 22.9338 307.98 22.9695 307.865 22.9695C307.773 22.9695 307.684 22.9567 307.61 22.8953C307.524 22.8253 307.497 22.7128 307.497 22.5901C307.497 22.4618 307.54 22.3404 307.657 22.2748C307.738 22.2278 307.848 22.2092 307.948 22.2092C308.048 22.2092 308.145 22.2264 308.246 22.2549V21.9253H308.33V22.9496H308.262Z" fill="#939598"/>
<path d="M309.565 22.2889C309.452 22.2889 309.321 22.316 309.191 22.3459V22.8423C309.282 22.8765 309.383 22.8923 309.482 22.8923C309.731 22.8923 309.85 22.8081 309.85 22.5884C309.85 22.3816 309.753 22.2889 309.565 22.2889ZM309.78 22.9051C309.699 22.9507 309.589 22.9692 309.49 22.9692C309.383 22.9692 309.276 22.9507 309.168 22.915L309.164 22.9493H309.107V21.9252H309.191V22.2688C309.306 22.2433 309.462 22.209 309.572 22.209C309.664 22.209 309.753 22.2231 309.827 22.2831C309.913 22.3531 309.94 22.4657 309.94 22.5884C309.94 22.7168 309.897 22.8381 309.78 22.9051Z" fill="#939598"/>
<path d="M310.051 23.226V23.1476C310.093 23.1519 310.131 23.1548 310.158 23.1548C310.262 23.1548 310.325 23.1247 310.384 23.0063L310.411 22.9493L310.034 22.229H310.131L310.454 22.8508H310.459L310.766 22.229H310.862L310.456 23.0378C310.382 23.1847 310.302 23.2332 310.155 23.2332C310.123 23.2332 310.087 23.2303 310.051 23.226Z" fill="#939598"/>
<path d="M312.022 22.5386H311.742V22.7912H312.023C312.215 22.7912 312.288 22.7696 312.288 22.6642C312.288 22.5514 312.188 22.5386 312.022 22.5386ZM311.97 22.1292H311.742V22.3859H311.972C312.161 22.3859 312.237 22.3632 312.237 22.2562C312.237 22.1421 312.141 22.1292 311.97 22.1292ZM312.404 22.8811C312.301 22.9467 312.177 22.9495 311.95 22.9495H311.524V21.9724H311.94C312.136 21.9724 312.255 21.9752 312.355 22.0352C312.427 22.078 312.455 22.1436 312.455 22.2291C312.455 22.3318 312.412 22.4002 312.301 22.4459V22.4515C312.427 22.4802 312.508 22.5444 312.508 22.6827C312.508 22.7768 312.474 22.8382 312.404 22.8811Z" fill="#939598"/>
<path d="M313.361 22.6472C313.277 22.64 313.192 22.6357 313.102 22.6357C312.955 22.6357 312.903 22.6657 312.903 22.7327C312.903 22.7955 312.946 22.8297 313.059 22.8297C313.153 22.8297 313.266 22.8084 313.361 22.7868V22.6472ZM313.404 22.9496L313.398 22.9067C313.276 22.9368 313.133 22.9695 313.007 22.9695C312.93 22.9695 312.848 22.9595 312.789 22.9166C312.735 22.8782 312.709 22.8154 312.709 22.7426C312.709 22.6613 312.745 22.5858 312.831 22.5473C312.906 22.5116 313.007 22.5088 313.1 22.5088C313.176 22.5088 313.277 22.513 313.361 22.5188V22.5058C313.361 22.3932 313.287 22.3562 313.084 22.3562C313.006 22.3562 312.91 22.3603 312.819 22.3689V22.2234C312.92 22.215 313.035 22.2092 313.129 22.2092C313.254 22.2092 313.384 22.2192 313.464 22.2762C313.547 22.3348 313.562 22.4161 313.562 22.523V22.9496H313.404Z" fill="#939598"/>
<path d="M314.503 22.9495V22.5514C314.503 22.4202 314.436 22.3732 314.316 22.3732C314.228 22.3732 314.116 22.3959 314.022 22.4188V22.9495H313.821V22.2291H313.985L313.992 22.2747C314.119 22.242 314.26 22.2092 314.377 22.2092C314.466 22.2092 314.556 22.2219 314.624 22.2833C314.681 22.3347 314.703 22.4059 314.703 22.5087V22.9495H314.503Z" fill="#939598"/>
<path d="M315.271 22.9695C315.178 22.9695 315.077 22.9567 315.003 22.8939C314.914 22.8225 314.888 22.7099 314.888 22.5885C314.888 22.4745 314.926 22.3504 315.035 22.2806C315.125 22.222 315.237 22.2092 315.352 22.2092C315.435 22.2092 315.516 22.215 315.606 22.2234V22.3775C315.533 22.3705 315.446 22.3647 315.376 22.3647C315.185 22.3647 315.095 22.4246 315.095 22.5901C315.095 22.7456 315.162 22.8126 315.319 22.8126C315.41 22.8126 315.518 22.7955 315.622 22.7755V22.9239C315.509 22.9468 315.386 22.9695 315.271 22.9695Z" fill="#939598"/>
<path d="M316.216 22.3603C316.025 22.3603 315.94 22.4203 315.94 22.5844C315.94 22.7484 316.023 22.8184 316.216 22.8184C316.405 22.8184 316.488 22.7598 316.488 22.5957C316.488 22.4317 316.407 22.3603 316.216 22.3603ZM316.561 22.8939C316.473 22.9537 316.357 22.9695 316.216 22.9695C316.072 22.9695 315.956 22.9523 315.869 22.8939C315.769 22.8283 315.734 22.7199 315.734 22.5901C315.734 22.4602 315.769 22.3504 315.869 22.2847C315.956 22.2263 316.072 22.2092 316.216 22.2092C316.358 22.2092 316.473 22.2263 316.561 22.2847C316.661 22.3504 316.695 22.4602 316.695 22.5885C316.695 22.7184 316.659 22.8283 316.561 22.8939Z" fill="#939598"/>
<path d="M317.856 22.9695C317.735 22.9695 317.604 22.9496 317.505 22.8682C317.388 22.7711 317.353 22.6214 317.353 22.4602C317.353 22.3162 317.398 22.1451 317.551 22.0451C317.669 21.9682 317.816 21.9525 317.965 21.9525C318.073 21.9525 318.184 21.9596 318.306 21.9696V22.1451C318.201 22.1364 318.073 22.1293 317.973 22.1293C317.695 22.1293 317.577 22.2349 317.577 22.4602C317.577 22.69 317.687 22.7927 317.892 22.7927C318.026 22.7927 318.176 22.7655 318.327 22.7341V22.9081C318.176 22.9381 318.017 22.9695 317.856 22.9695Z" fill="#939598"/>
<path d="M318.918 22.3376C318.751 22.3376 318.687 22.3976 318.674 22.5074H319.159C319.153 22.3904 319.085 22.3376 318.918 22.3376ZM318.888 22.9695C318.77 22.9695 318.663 22.9553 318.583 22.8895C318.497 22.8184 318.467 22.7113 318.467 22.5885C318.467 22.4787 318.503 22.3562 318.603 22.2848C318.691 22.222 318.804 22.2092 318.918 22.2092C319.021 22.2092 319.142 22.2206 319.23 22.2819C319.346 22.3633 319.356 22.4889 319.357 22.6372H318.673C318.677 22.747 318.735 22.8184 318.938 22.8184C319.064 22.8184 319.203 22.7998 319.322 22.7812V22.9224C319.183 22.9453 319.032 22.9695 318.888 22.9695Z" fill="#939598"/>
<path d="M320.252 22.9495V22.5514C320.252 22.4202 320.185 22.3732 320.065 22.3732C319.977 22.3732 319.866 22.3959 319.771 22.4188V22.9495H319.57V22.2291H319.734L319.742 22.2747C319.868 22.242 320.01 22.2092 320.127 22.2092C320.215 22.2092 320.305 22.2219 320.373 22.2833C320.43 22.3347 320.452 22.4059 320.452 22.5087V22.9495H320.252Z" fill="#939598"/>
<path d="M321.024 22.9695C320.927 22.9695 320.839 22.9423 320.79 22.8667C320.755 22.8154 320.738 22.7456 320.738 22.6485V22.3789H320.592V22.2292H320.738L320.759 22.0109H320.937V22.2292H321.221V22.3789H320.937V22.6101C320.937 22.6657 320.942 22.7128 320.957 22.747C320.979 22.7955 321.026 22.814 321.089 22.814C321.136 22.814 321.193 22.8068 321.233 22.7998V22.9438C321.167 22.9567 321.091 22.9695 321.024 22.9695Z" fill="#939598"/>
<path d="M321.417 22.9495V22.2291H321.581L321.589 22.2747C321.721 22.2376 321.82 22.2092 321.945 22.2092C321.951 22.2092 321.96 22.2092 321.971 22.2105V22.3817C321.948 22.3803 321.921 22.3803 321.901 22.3803C321.803 22.3803 321.728 22.3917 321.619 22.4175V22.9495H321.417Z" fill="#939598"/>
<path d="M322.702 22.6472C322.618 22.64 322.532 22.6357 322.442 22.6357C322.296 22.6357 322.244 22.6657 322.244 22.7327C322.244 22.7955 322.287 22.8297 322.4 22.8297C322.494 22.8297 322.607 22.8084 322.702 22.7868V22.6472ZM322.745 22.9496L322.739 22.9067C322.616 22.9368 322.474 22.9695 322.348 22.9695C322.271 22.9695 322.189 22.9595 322.13 22.9166C322.076 22.8782 322.05 22.8154 322.05 22.7426C322.05 22.6613 322.086 22.5858 322.171 22.5473C322.247 22.5116 322.348 22.5088 322.441 22.5088C322.517 22.5088 322.618 22.513 322.702 22.5188V22.5058C322.702 22.3932 322.628 22.3562 322.425 22.3562C322.347 22.3562 322.251 22.3603 322.16 22.3689V22.2234C322.261 22.215 322.375 22.2092 322.47 22.2092C322.595 22.2092 322.725 22.2192 322.805 22.2762C322.887 22.3348 322.903 22.4161 322.903 22.523V22.9496H322.745Z" fill="#939598"/>
<path d="M323.162 21.9253H323.363V22.9495H323.162V21.9253Z" fill="#939598"/>
<path d="M347.437 16.8679H348.917C349.952 16.8679 350.665 17.4518 350.665 18.3822C350.665 19.3127 349.955 19.8966 348.917 19.8966H347.437V16.8679ZM348.881 19.2128C349.413 19.2128 349.771 18.9068 349.771 18.3822C349.771 17.8577 349.413 17.5517 348.881 17.5517H348.323V19.2128H348.881Z" fill="#35495E"/>
<path d="M353.638 19.2346V19.8966H351.126V16.8679H353.58V17.5299H352.003V18.0419H353.393V18.682H352.003V19.2346H353.638Z" fill="#35495E"/>
<path d="M356.95 17.9889C356.95 18.6758 356.415 19.1067 355.56 19.1067H355.015V19.8997H354.132V16.8711H355.56C356.415 16.8711 356.95 17.2989 356.95 17.992V17.9889ZM356.057 17.9889C356.057 17.7079 355.873 17.5424 355.509 17.5424H355.018V18.4291H355.509C355.876 18.4291 356.057 18.2636 356.057 17.9889Z" fill="#35495E"/>
<path d="M357.263 18.3825C357.263 17.4739 358.001 16.8088 359.001 16.8088C360.001 16.8088 360.739 17.4739 360.739 18.3825C360.739 19.2911 360.001 19.9561 359.001 19.9561C358.001 19.9561 357.263 19.2911 357.263 18.3825ZM359.846 18.3825C359.846 17.8579 359.475 17.5176 359.001 17.5176C358.527 17.5176 358.156 17.8579 358.156 18.3825C358.156 18.907 358.527 19.2474 359.001 19.2474C359.475 19.2474 359.846 18.907 359.846 18.3825ZM359.162 15.9658H360.01L359.172 16.6246H358.566L359.166 15.9658H359.162Z" fill="#35495E"/>
<path d="M360.984 19.6252L361.275 18.9945C361.552 19.1724 361.945 19.2942 362.307 19.2942C362.668 19.2942 362.816 19.1943 362.816 19.0475C362.816 18.5667 361.039 18.9164 361.039 17.7924C361.039 17.2522 361.494 16.8088 362.426 16.8088C362.832 16.8088 363.251 16.8994 363.561 17.0742L363.29 17.7112C362.99 17.5551 362.697 17.477 362.423 17.477C362.052 17.477 361.916 17.5988 361.916 17.7487C361.916 18.2108 363.69 17.8642 363.69 18.982C363.69 19.5096 363.235 19.9593 362.307 19.9593C361.794 19.9593 361.284 19.825 360.988 19.6252H360.984Z" fill="#35495E"/>
<path d="M364.096 16.8679H364.98V19.8966H364.096V16.8679Z" fill="#35495E"/>
<path d="M366.276 17.5486H365.315V16.8711H368.118V17.5486H367.163V19.8966H366.28V17.5486H366.276Z" fill="#35495E"/>
<path d="M368.244 18.3825C368.244 17.4739 368.982 16.8088 369.982 16.8088C370.982 16.8088 371.72 17.4739 371.72 18.3825C371.72 19.2911 370.982 19.9561 369.982 19.9561C368.982 19.9561 368.244 19.2911 368.244 18.3825ZM370.827 18.3825C370.827 17.8579 370.456 17.5176 369.982 17.5176C369.508 17.5176 369.137 17.8579 369.137 18.3825C369.137 18.907 369.508 19.2474 369.982 19.2474C370.456 19.2474 370.827 18.907 370.827 18.3825Z" fill="#35495E"/>
<path d="M340.345 22.7413H339.387V22.0637H342.187V22.7413H341.229V25.0892H340.345V22.7413Z" fill="#578A87"/>
<path d="M343.886 24.2836H343.402V25.0892H342.519V22.0605H343.947C344.802 22.0605 345.337 22.4883 345.337 23.1815C345.337 23.6279 345.115 23.9558 344.725 24.1369L345.399 25.0892H344.45L343.883 24.2836H343.886ZM343.896 22.735H343.406V23.6217H343.896C344.263 23.6217 344.444 23.4562 344.444 23.1815C344.444 22.9067 344.26 22.735 343.896 22.735Z" fill="#578A87"/>
<path d="M347.92 24.5022H346.598L346.353 25.0892H345.45L346.83 22.0605H347.701L349.085 25.0892H348.165L347.92 24.5022ZM347.662 23.8715L347.259 22.9036L346.856 23.8715H347.659H347.662Z" fill="#578A87"/>
<path d="M352.313 22.0605V25.0892H351.584L350.204 23.475V25.0892H349.336V22.0605H350.065L351.445 23.6748V22.0605H352.313Z" fill="#578A87"/>
<path d="M352.722 24.8178L353.012 24.1871C353.29 24.3651 353.683 24.4868 354.044 24.4868C354.406 24.4868 354.554 24.3869 354.554 24.2402C354.554 23.7593 352.777 24.109 352.777 22.985C352.777 22.4448 353.232 22.0015 354.164 22.0015C354.57 22.0015 354.989 22.092 355.299 22.2669L355.025 22.9038C354.725 22.7477 354.431 22.6696 354.157 22.6696C353.786 22.6696 353.651 22.7914 353.651 22.9413C353.651 23.4034 355.425 23.0568 355.425 24.1746C355.425 24.7023 354.97 25.1519 354.041 25.1519C353.528 25.1519 353.019 25.0176 352.722 24.8178Z" fill="#578A87"/>
<path d="M356.715 22.7225V23.3875H358.095V24.0495H356.715V25.0892H355.831V22.0605H358.285V22.7225H356.718H356.715Z" fill="#578A87"/>
<path d="M361.21 24.4273V25.0892H358.698V22.0605H361.152V22.7225H359.575V23.2345H360.965V23.8746H359.575V24.4273H361.21Z" fill="#578A87"/>
<path d="M363.071 24.2836H362.587V25.0892H361.704V22.0605H363.132C363.987 22.0605 364.522 22.4883 364.522 23.1815C364.522 23.6279 364.3 23.9558 363.909 24.1369L364.583 25.0892H363.635L363.068 24.2836H363.071ZM363.081 22.735H362.59V23.6217H363.081C363.448 23.6217 363.629 23.4562 363.629 23.1815C363.629 22.9067 363.445 22.735 363.081 22.735Z" fill="#578A87"/>
<path d="M367.521 24.4275V25.0894H365.009V22.0607H367.463V22.7227H365.886V23.2347H367.276V23.8748H365.886V24.4275H367.521ZM365.854 21.8141H365.29L365.87 21.1553H366.602L367.183 21.8141H366.618L366.234 21.4862L365.851 21.8141H365.854Z" fill="#578A87"/>
<path d="M370.988 22.0605V25.0892H370.259L368.879 23.475V25.0892H368.011V22.0605H368.74L370.12 23.6748V22.0605H370.988Z" fill="#578A87"/>
<path d="M371.456 23.5751C371.456 22.654 372.184 22.0015 373.174 22.0015C373.752 22.0015 374.216 22.2044 374.519 22.5728L373.955 23.0662C373.758 22.8382 373.516 22.7102 373.216 22.7102C372.704 22.7102 372.346 23.0568 372.346 23.5751C372.346 24.0934 372.704 24.44 373.216 24.44C373.516 24.44 373.758 24.3151 373.955 24.084L374.519 24.5774C374.216 24.9458 373.752 25.1488 373.174 25.1488C372.181 25.1488 371.456 24.4962 371.456 23.5751Z" fill="#578A87"/>
<path d="M374.913 22.0605H375.796V25.0892H374.913V22.0605Z" fill="#578A87"/>
<path d="M378.525 24.5022H377.202L376.957 25.0892H376.054L377.435 22.0605H378.305L379.689 25.0892H378.77L378.525 24.5022ZM378.267 23.8715L377.863 22.9036L377.46 23.8715H378.263H378.267Z" fill="#578A87"/>
<path d="M362.223 12.8811L363.181 13.6929C361.1 15.2665 357.93 15.2291 355.96 13.5618C354.767 12.5532 354.28 11.1701 354.496 9.84308H352.609L355.141 7.70117L357.672 9.84308H355.873C355.654 10.8672 356.008 11.9569 356.934 12.7406C358.375 13.9614 360.688 14.0051 362.229 12.8811H362.223Z" fill="#578A87"/>
<path d="M357.492 7.32643L356.534 6.51463C358.614 4.94098 361.784 4.97845 363.755 6.64577C364.948 7.65427 365.435 9.03746 365.219 10.3644H367.105L364.574 12.5064L362.042 10.3644H363.842C364.061 9.34032 363.706 8.25064 362.781 7.46693C361.339 6.24611 359.027 6.2024 357.485 7.32643H357.492Z" fill="#35495E"/>
</svg>
