<svg width="24" height="24" viewBox="0 0 24 24" fill="none" xmlns="http://www.w3.org/2000/svg">
<rect width="24" height="24" rx="12" fill="#A86F9B"/>
<path fill-rule="evenodd" clip-rule="evenodd" d="M16.811 7.18896C17.063 7.44091 17.063 7.84941 16.811 8.10136L8.10136 16.811C7.84941 17.063 7.44091 17.063 7.18896 16.811C6.93701 16.5591 6.93701 16.1506 7.18896 15.8986L15.8986 7.18896C16.1506 6.93701 16.5591 6.93701 16.811 7.18896Z" fill="white"/>
<path fill-rule="evenodd" clip-rule="evenodd" d="M7.18896 7.18896C7.44091 6.93701 7.84941 6.93701 8.10136 7.18896L16.811 15.8986C17.063 16.1506 17.063 16.5591 16.811 16.811C16.5591 17.063 16.1506 17.063 15.8986 16.811L7.18896 8.10136C6.93701 7.84941 6.93701 7.44091 7.18896 7.18896Z" fill="white"/>
</svg>
