<svg width="26" height="26" viewBox="0 0 26 26" fill="none" xmlns="http://www.w3.org/2000/svg">
<path d="M15.9099 8.75736L12.728 11.9393L9.54598 8.75736C9.40532 8.61671 9.21456 8.53769 9.01565 8.53769C8.81673 8.53769 8.62597 8.61671 8.48532 8.75736C8.34466 8.89801 8.26565 9.08878 8.26565 9.28769C8.26565 9.4866 8.34466 9.67737 8.48532 9.81802L11.6673 13L8.48532 16.182C8.34466 16.3226 8.26565 16.5134 8.26565 16.7123C8.26565 16.9112 8.34466 17.102 8.48532 17.2426C8.62597 17.3833 8.81673 17.4623 9.01565 17.4623C9.21456 17.4623 9.40532 17.3833 9.54598 17.2426L12.728 14.0607L15.9099 17.2426C16.0506 17.3833 16.2414 17.4623 16.4403 17.4623C16.6392 17.4623 16.8299 17.3833 16.9706 17.2426C17.1112 17.102 17.1903 16.9112 17.1903 16.7123C17.1903 16.5134 17.1112 16.3226 16.9706 16.182L13.7886 13L16.9706 9.81802C17.1112 9.67737 17.1903 9.4866 17.1903 9.28769C17.1903 9.08878 17.1112 8.89801 16.9706 8.75736C16.8299 8.61671 16.6392 8.53769 16.4403 8.53769C16.2414 8.53769 16.0506 8.61671 15.9099 8.75736Z" fill="#F27580"/>
</svg>
