<svg width="88" height="18" viewBox="0 0 88 18" fill="none" xmlns="http://www.w3.org/2000/svg">
<path fill-rule="evenodd" clip-rule="evenodd" d="M6.43989 17.9767H5.65654C5.02984 17.9767 4.46191 17.683 4.08985 17.2129L0.368724 12.4344C0.290402 12.3168 0.231628 12.1797 0.231628 12.0231C0.231628 11.8663 0.290402 11.7292 0.368724 11.6118L4.1094 6.83313C4.48146 6.3632 5.02984 6.06934 5.67609 6.06934H13.9408L9.24045 11.9643L5.81319 16.2925L6.43989 17.9767Z" fill="url(#paint0_linear_323_2170)"/>
<path fill-rule="evenodd" clip-rule="evenodd" d="M9.2992 12.0231L9.2601 11.9644L5.81317 16.2925C5.67607 16.4687 5.55865 16.7038 5.55865 17.0954C5.55865 17.4871 5.93072 17.9768 6.67497 17.9768H13.9408L9.2992 12.0231Z" fill="url(#paint1_linear_323_2170)"/>
<path fill-rule="evenodd" clip-rule="evenodd" d="M19.0914 1.79996L18.4647 0.115723H19.2482C19.8749 0.115723 20.4428 0.409458 20.8149 0.879517L24.5555 5.65818C24.6339 5.7756 24.6926 5.9127 24.6926 6.06934C24.6926 6.22611 24.6339 6.36321 24.5555 6.48063L20.7953 11.2593C20.4231 11.7293 19.8749 12.0231 19.2285 12.0231H10.9639L15.6641 6.12811L19.0914 1.79996Z" fill="url(#paint2_linear_323_2170)"/>
<path fill-rule="evenodd" clip-rule="evenodd" d="M15.625 6.06934L15.6641 6.12811L19.0914 1.79996C19.2285 1.62376 19.346 1.38868 19.346 0.997067C19.346 0.60533 18.974 0.115723 18.2297 0.115723H10.9639L15.625 6.06934Z" fill="url(#paint3_linear_323_2170)"/>
<path d="M19.2873 1.72164C19.4243 1.54545 19.5027 1.34958 19.5027 1.11461C19.5027 0.566228 19.0523 0.115723 18.5039 0.115723H18.2493C18.7976 0.115723 19.2285 0.566228 19.2285 1.11461C19.2285 1.34958 19.1502 1.565 19.0131 1.72164L15.625 6.06935L10.9835 12.0034L19.2873 1.72164Z" fill="#0BBBEF"/>
<path d="M5.63699 16.3706C5.49989 16.5468 5.42157 16.7427 5.42157 16.9778C5.42157 17.5261 5.87195 17.9766 6.42034 17.9766H6.67498C6.1266 17.9766 5.67608 17.5261 5.67608 16.9778C5.67608 16.7427 5.75441 16.5273 5.8915 16.3706L9.29921 12.0229L13.9408 6.08887L5.63699 16.3706Z" fill="#FFD500"/>
<path d="M55.6946 8.49758C55.2246 8.49758 54.8525 8.55635 54.4608 8.6739C53.8341 8.86977 53.3641 9.20261 53.0116 9.67267C52.4044 10.456 52.4241 11.3961 52.4241 11.3961V17.9372H54.1671C54.2845 17.9372 54.3628 17.8394 54.3628 17.7415V11.5332C54.3628 11.4157 54.3825 10.9848 54.6175 10.7694C54.8134 10.5931 55.0679 10.5148 55.3225 10.4757C55.5967 10.4365 55.8709 10.456 56.008 10.4757H56.0472C56.1842 10.4757 56.2822 10.3972 56.341 10.2994L57.2418 8.75222C56.7718 8.5759 56.2626 8.47803 55.6946 8.49758Z" fill="#06416A"/>
<path d="M50.5635 8.49759C50.0935 8.49759 49.7019 8.55636 49.3297 8.67391C48.703 8.86978 48.233 9.20262 47.8805 9.67268C47.2734 10.456 47.2929 11.3961 47.2929 11.3961V17.9372H49.0359C49.1535 17.9372 49.2318 17.8394 49.2318 17.7415V11.5332C49.2318 11.4157 49.2514 10.9849 49.4864 10.7694C49.6822 10.5931 49.9368 10.5148 50.1915 10.4757C50.4657 10.4365 50.7399 10.456 50.8768 10.4757H50.916C51.0336 10.4757 51.151 10.3972 51.2098 10.2994L52.1302 8.73268C51.6211 8.57591 51.1315 8.47804 50.5635 8.49759Z" fill="#06416A"/>
<path d="M35.3269 15.5285C35.2681 15.4502 35.1506 15.3914 35.0332 15.3914C34.9744 15.3914 34.8961 15.411 34.8568 15.4502C34.2694 15.8027 33.5643 16.0181 32.8201 16.0181C30.6267 16.0181 28.8444 14.2359 28.8444 12.0229C28.8444 9.82941 30.6267 8.0473 32.8201 8.0473C33.5643 8.0473 34.2694 8.24317 34.8568 8.61523C34.9156 8.65433 34.9744 8.674 35.0527 8.674C35.1702 8.674 35.2681 8.61523 35.3464 8.53691L36.3452 7.24428C35.366 6.5197 34.1518 6.08887 32.8201 6.08887C29.5299 6.08887 26.8665 8.75233 26.8665 12.0425C26.8665 15.3327 29.5299 17.9961 32.8201 17.9961C34.1323 17.9961 35.3464 17.5653 36.3452 16.8407L35.3269 15.5285Z" fill="#06416A"/>
<path d="M61.7855 10.2405C63.078 10.2405 64.1747 11.0826 64.5663 12.2381H59.024C59.4157 11.0826 60.5124 10.2405 61.7855 10.2405ZM61.7855 8.36035C59.1415 8.36035 56.9872 10.5147 56.9872 13.1586C56.9872 15.7829 59.1415 17.9371 61.7855 17.9568H61.9226C62.9604 17.9568 63.8027 17.8197 64.919 17.095L65.0952 16.9776C65.0952 16.9776 64.116 15.7045 64.0964 15.6849C64.0376 15.6066 63.9201 15.5478 63.8222 15.5478C63.7634 15.5478 63.7047 15.5674 63.6459 15.5871C63.3914 15.7242 62.6276 16.057 61.7855 16.057C60.5124 16.057 59.4353 15.2541 59.024 14.1182H66.3681C66.4857 14.1182 66.564 14.0202 66.564 13.9224L66.5835 13.374V13.1586C66.6032 10.5147 64.4489 8.36035 61.7855 8.36035Z" fill="#06416A"/>
<path d="M67.9152 17.9764C67.7978 17.9764 67.7195 17.8981 67.7195 17.7805V8.8697C67.7195 8.7717 67.7978 8.67383 67.9152 8.67383H69.4625C69.5799 8.67383 69.6582 8.7717 69.6582 8.8697V17.7805C69.6582 17.8981 69.5604 17.9764 69.4625 17.9764H67.9152Z" fill="#06416A"/>
<path d="M41.496 10.2016C39.89 10.2016 38.5975 11.4941 38.5975 13.1C38.5975 14.7059 39.89 15.9986 41.496 15.9986C43.1019 15.9986 44.3945 14.7059 44.3945 13.1C44.3945 11.4941 43.1019 10.2016 41.496 10.2016ZM41.496 17.9765C38.813 17.9765 36.6391 15.8027 36.6391 13.1196C36.6391 10.4365 38.813 8.2627 41.496 8.2627C44.1791 8.2627 46.3529 10.4365 46.3529 13.1196C46.3529 15.7831 44.1791 17.9765 41.496 17.9765Z" fill="#06416A"/>
<path d="M75.4552 10.2797C73.869 10.2797 72.5763 11.5722 72.5763 13.1586C72.5763 14.745 73.869 16.0179 75.4552 16.0179C77.0416 16.0179 78.3342 14.7253 78.3342 13.1586C78.3342 11.5722 77.0416 10.2797 75.4552 10.2797ZM75.4552 17.9568C72.7918 17.9568 70.6375 15.8025 70.6375 13.1391C70.6375 10.4756 72.7918 8.32129 75.4552 8.32129C78.1188 8.32129 80.273 10.4756 80.273 13.1391C80.273 15.8025 78.1188 17.9568 75.4552 17.9568Z" fill="#06416A"/>
<path d="M85.7372 12.4144C85.4042 12.2577 84.9734 12.1598 84.5033 12.0423C83.8178 11.866 83.1716 11.8269 82.9365 11.4548C82.7211 11.1023 82.8386 10.7106 83.1324 10.4951C83.8178 10.0251 84.7383 10.2209 85.2476 10.4559C85.3454 10.4951 85.7175 10.7106 85.7175 10.7106C85.7763 10.7497 85.835 10.7693 85.8938 10.7693C86.0112 10.7693 86.1092 10.7106 86.1876 10.6127L87.1668 9.35928L87.0101 9.22218C86.9121 9.14373 86.775 9.06541 86.6379 8.98709C86.3442 8.83045 85.463 8.32129 84.1899 8.32129H84.0725C81.2719 8.38006 80.8802 10.358 80.8802 11.0631C80.8802 12.1206 81.4286 12.8844 82.2511 13.3545C82.9169 13.7265 84.1508 13.9419 84.7775 14.1378C85.1105 14.2357 85.3454 14.4708 85.4433 14.6862C85.4825 14.7841 85.5021 14.8821 85.5021 14.9995C85.5216 15.3717 85.3259 15.783 84.7775 15.9592C84.1703 16.1355 83.2304 16.057 82.3686 15.3912C82.349 15.3717 82.2511 15.2933 82.2119 15.2737C82.1728 15.2541 82.1336 15.2541 82.0748 15.2541C81.9573 15.2541 81.8594 15.3129 81.7811 15.4108C81.7615 15.4304 80.8214 16.6446 80.8214 16.6446C80.8214 16.6446 81.1544 16.9188 81.2719 16.9971C81.8202 17.4084 82.7994 17.9568 84.0725 17.9568H84.1116C86.8143 17.9568 87.441 16.0375 87.441 14.9799C87.441 13.9224 86.7947 12.8844 85.7372 12.4144Z" fill="#06416A"/>
<defs>
<linearGradient id="paint0_linear_323_2170" x1="13.7139" y1="5.77445" x2="2.20069" y2="14.7696" gradientUnits="userSpaceOnUse">
<stop stop-color="#FFDD00"/>
<stop offset="0.9" stop-color="#D49F00"/>
<stop offset="1" stop-color="#FFDD00"/>
</linearGradient>
<linearGradient id="paint1_linear_323_2170" x1="13.9439" y1="14.9726" x2="5.56215" y2="14.9726" gradientUnits="userSpaceOnUse">
<stop stop-color="#D49F00"/>
<stop offset="1" stop-color="#AB5808"/>
</linearGradient>
<linearGradient id="paint2_linear_323_2170" x1="11.1848" y1="12.3008" x2="22.7183" y2="3.32221" gradientUnits="userSpaceOnUse">
<stop stop-color="#00537E"/>
<stop offset="0.9" stop-color="#18AAE2"/>
<stop offset="1" stop-color="#107BC0"/>
</linearGradient>
<linearGradient id="paint3_linear_323_2170" x1="18.2109" y1="-0.709007" x2="13.3129" y2="3.11778" gradientUnits="userSpaceOnUse">
<stop stop-color="#002542"/>
<stop offset="1" stop-color="#004169"/>
</linearGradient>
</defs>
</svg>
