<svg width="55" height="48" viewBox="0 0 55 48" fill="none" xmlns="http://www.w3.org/2000/svg">
<path d="M35.3141 2.30752L4.94176 19.843C3.88327 20.4563 3.11114 21.4642 2.79465 22.6459C2.47816 23.8276 2.64314 25.0865 3.25342 26.1467L13.4034 43.727C14.0166 44.7854 15.0244 45.5575 16.2058 45.874C17.3873 46.1906 18.6461 46.0259 19.7063 45.4159L50.0778 27.8809C51.1362 27.2683 51.9087 26.261 52.2258 25.0799C52.543 23.8988 52.379 22.6401 51.7698 21.5796L41.6183 3.99673C41.0052 2.93795 39.9972 2.16554 38.8154 1.84888C37.6337 1.53222 36.3745 1.69715 35.3141 2.30752V2.30752ZM50.1712 22.5026C50.5375 23.1388 50.6366 23.8944 50.4466 24.6035C50.2566 25.3126 49.793 25.9174 49.1576 26.2852L18.7853 43.8207C18.1491 44.1871 17.3935 44.2861 16.6844 44.0961C15.9753 43.9061 15.3705 43.4425 15.0027 42.8071L4.85124 25.2242C4.48486 24.588 4.3858 23.8325 4.57581 23.1234C4.76582 22.4143 5.22938 21.8095 5.86476 21.4417L36.2363 3.90671C36.8725 3.54032 37.628 3.44127 38.3371 3.63128C39.0462 3.82129 39.651 4.28484 40.0188 4.92023L50.1688 22.5005L50.1712 22.5026Z" fill="#212529" stroke="#212529"/>
<path d="M41.2792 5.25719L4.51382 26.4837C4.30182 26.6061 4.14713 26.8077 4.08377 27.0441C4.02041 27.2806 4.05358 27.5325 4.17598 27.7445L6.94448 32.5397C7.06688 32.7517 7.26848 32.9064 7.50493 32.9698C7.74138 33.0331 7.99332 33 8.20532 32.8776L44.9716 11.6506C45.1836 11.5282 45.3383 11.3266 45.4016 11.0901C45.465 10.8537 45.4318 10.6017 45.3094 10.3897L42.5409 5.59453C42.4803 5.48949 42.3995 5.39743 42.3032 5.32362C42.207 5.2498 42.0971 5.19568 41.98 5.16435C41.8628 5.13302 41.7406 5.1251 41.6203 5.14103C41.5001 5.15696 41.3842 5.19643 41.2792 5.25719ZM43.2484 10.5139L8.08166 30.8174L6.23616 27.6209L41.4037 7.31687L43.2492 10.5134L43.2484 10.5139Z" fill="#212529" stroke="#212529"/>
<path d="M25.3624 29.3666L15.7694 34.9051C15.5574 35.0275 15.4027 35.2291 15.3394 35.4655C15.276 35.702 15.3092 35.9539 15.4316 36.1659C15.554 36.3779 15.7556 36.5326 15.992 36.596C16.2285 36.6593 16.4804 36.6262 16.6924 36.5038L26.2854 30.9653C26.4974 30.8429 26.6521 30.6413 26.7154 30.4048C26.7788 30.1684 26.7456 29.9164 26.6232 29.7044C26.5008 29.4924 26.2992 29.3377 26.0628 29.2744C25.8263 29.211 25.5744 29.2442 25.3624 29.3666V29.3666Z" fill="#212529" stroke="#212529"/>
<path d="M27.2085 32.564L17.6155 38.1025C17.4035 38.2249 17.2488 38.4265 17.1855 38.6629C17.1221 38.8994 17.1553 39.1513 17.2777 39.3633C17.4001 39.5753 17.6017 39.73 17.8381 39.7934C18.0746 39.8567 18.3265 39.8235 18.5385 39.7011L28.1315 34.1626C28.3435 34.0403 28.4982 33.8386 28.5615 33.6022C28.6249 33.3657 28.5917 33.1138 28.4693 32.9018C28.3469 32.6898 28.1453 32.5351 27.9089 32.4718C27.6724 32.4084 27.4205 32.4416 27.2085 32.564V32.564Z" fill="#212529" stroke="#212529"/>
<path d="M40.4227 18.5399L38.8249 19.4624C38.1895 19.8302 37.726 20.435 37.536 21.1441C37.3459 21.8532 37.445 22.6088 37.8114 23.2449L38.7344 24.8436C39.1023 25.4787 39.707 25.942 40.416 26.1318C41.125 26.3217 41.8804 26.2226 42.5164 25.8563L44.1142 24.9338C44.7495 24.5661 45.213 23.9615 45.403 23.2526C45.5931 22.5437 45.4943 21.7883 45.1282 21.1521L44.2052 19.5534C43.8375 18.9181 43.2327 18.4545 42.5236 18.2645C41.8144 18.0745 41.0589 18.1735 40.4227 18.5399V18.5399ZM43.5296 22.0751C43.652 22.2871 43.6851 22.5391 43.6218 22.7755C43.5584 23.012 43.4037 23.2136 43.1917 23.336L41.5939 24.2585C41.3819 24.3809 41.13 24.414 40.8935 24.3507C40.6571 24.2873 40.4555 24.1326 40.3331 23.9206L39.4101 22.3219C39.2877 22.1099 39.2545 21.858 39.3179 21.6216C39.3812 21.3851 39.5359 21.1835 39.7479 21.0611L41.3457 20.1386C41.5577 20.0162 41.8097 19.983 42.0461 20.0464C42.2826 20.1098 42.4842 20.2644 42.6066 20.4764L43.5296 22.0751Z" fill="#212529" stroke="#212529"/>
</svg>
