<svg width="45" height="31" viewBox="0 0 45 31" fill="none" xmlns="http://www.w3.org/2000/svg">
<path d="M33.4928 19.6935C32.3884 19.6935 31.3088 20.021 30.3905 20.6346C29.4722 21.2481 28.7565 22.1203 28.3339 23.1406C27.9112 24.1609 27.8007 25.2837 28.0161 26.3669C28.2316 27.4501 28.7634 28.445 29.5443 29.226C30.3253 30.0069 31.3203 30.5387 32.4034 30.7542C33.4866 30.9696 34.6094 30.8591 35.6297 30.4364C36.6501 30.0138 37.5222 29.2981 38.1357 28.3798C38.7493 27.4615 39.0768 26.3819 39.0768 25.2775C39.0752 23.797 38.4864 22.3776 37.4395 21.3307C36.3927 20.2839 34.9733 19.6951 33.4928 19.6935ZM33.4928 28.0685C32.9406 28.0685 32.4008 27.9047 31.9417 27.598C31.4825 27.2912 31.1247 26.8551 30.9133 26.3449C30.702 25.8348 30.6467 25.2734 30.7545 24.7318C30.8622 24.1902 31.1281 23.6927 31.5186 23.3022C31.9091 22.9118 32.4065 22.6459 32.9481 22.5381C33.4897 22.4304 34.0511 22.4857 34.5613 22.697C35.0715 22.9083 35.5075 23.2662 35.8143 23.7253C36.1211 24.1845 36.2848 24.7243 36.2848 25.2765C36.2848 26.0173 35.9907 26.7277 35.4672 27.2518C34.9437 27.7759 34.2336 28.0707 33.4928 28.0715V28.0685Z" fill="#212529"/>
<path d="M14.4158 19.6935C13.3114 19.6935 12.2318 20.021 11.3135 20.6346C10.3952 21.2481 9.67949 22.1203 9.25685 23.1406C8.83421 24.1609 8.72362 25.2837 8.93908 26.3669C9.15454 27.4501 9.68637 28.445 10.4673 29.226C11.2482 30.0069 12.2432 30.5387 13.3264 30.7542C14.4096 30.9696 15.5324 30.8591 16.5527 30.4364C17.573 30.0138 18.4451 29.2981 19.0587 28.3798C19.6723 27.4615 19.9998 26.3819 19.9998 25.2775C19.9982 23.797 19.4094 22.3776 18.3625 21.3307C17.3157 20.2839 15.8963 19.6951 14.4158 19.6935ZM14.4158 28.0685C13.8636 28.0685 13.3238 27.9047 12.8646 27.598C12.4055 27.2912 12.0476 26.8551 11.8363 26.3449C11.625 25.8348 11.5697 25.2734 11.6774 24.7318C11.7852 24.1902 12.0511 23.6927 12.4415 23.3022C12.832 22.9118 13.3295 22.6459 13.8711 22.5381C14.4127 22.4304 14.9741 22.4857 15.4842 22.697C15.9944 22.9083 16.4305 23.2662 16.7372 23.7253C17.044 24.1845 17.2078 24.7243 17.2078 25.2765C17.2078 26.0173 16.9137 26.7277 16.3902 27.2518C15.8667 27.7759 15.1566 28.0707 14.4158 28.0715V28.0685Z" fill="#212529"/>
<path d="M37.2528 3.71553C37.1363 3.48469 36.958 3.29064 36.7379 3.1549C36.5178 3.01916 36.2644 2.94704 36.0058 2.94653H28.6538V5.73853H35.1448L38.9448 13.2985L41.4398 12.0445L37.2528 3.71553Z" fill="#212529"/>
<path d="M29.3048 23.9315H18.7428V26.7235H29.3048V23.9315Z" fill="#212529"/>
<path d="M10.2278 23.9315H5.38879C5.0368 23.9582 4.70788 24.1168 4.46788 24.3757C4.22789 24.6345 4.09454 24.9745 4.09454 25.3275C4.09454 25.6805 4.22789 26.0205 4.46788 26.2793C4.70788 26.5382 5.0368 26.6968 5.38879 26.7235H10.2278C10.42 26.738 10.6131 26.7128 10.7951 26.6492C10.9771 26.5856 11.144 26.4852 11.2854 26.3542C11.4267 26.2231 11.5395 26.0643 11.6166 25.8876C11.6937 25.7109 11.7335 25.5202 11.7335 25.3275C11.7335 25.1347 11.6937 24.944 11.6166 24.7674C11.5395 24.5907 11.4267 24.4319 11.2854 24.3008C11.144 24.1698 10.9771 24.0693 10.7951 24.0058C10.6131 23.9422 10.42 23.9169 10.2278 23.9315Z" fill="#212529"/>
<path d="M44.0408 15.3975L41.2948 11.8615C41.1647 11.6937 40.9979 11.5578 40.8073 11.4642C40.6167 11.3706 40.4072 11.3218 40.1948 11.3215H30.0488V1.55051C30.0488 1.17921 29.9013 0.823113 29.6387 0.560562C29.3762 0.298011 29.0201 0.150513 28.6488 0.150513H5.38879C5.0368 0.177178 4.70788 0.335826 4.46788 0.594688C4.22789 0.85355 4.09454 1.19352 4.09454 1.54652C4.09454 1.89951 4.22789 2.23947 4.46788 2.49834C4.70788 2.7572 5.0368 2.91585 5.38879 2.94251H27.2578V12.7135C27.2578 12.8974 27.294 13.0794 27.3644 13.2493C27.4347 13.4191 27.5378 13.5735 27.6678 13.7035C27.7978 13.8335 27.9522 13.9366 28.122 14.0069C28.2919 14.0773 28.4739 14.1135 28.6578 14.1135H39.5088L41.5418 16.7335V23.9335H37.6778C37.4856 23.919 37.2924 23.9442 37.1104 24.0078C36.9285 24.0714 36.7616 24.1718 36.6202 24.3029C36.4789 24.4339 36.3661 24.5927 36.289 24.7694C36.2118 24.9461 36.172 25.1368 36.172 25.3295C36.172 25.5223 36.2118 25.713 36.289 25.8896C36.3661 26.0663 36.4789 26.2251 36.6202 26.3562C36.7616 26.4872 36.9285 26.5877 37.1104 26.6512C37.2924 26.7148 37.4856 26.7401 37.6778 26.7255H42.9378C43.1216 26.7255 43.3037 26.6893 43.4735 26.6189C43.6434 26.5486 43.7977 26.4455 43.9277 26.3155C44.0577 26.1855 44.1609 26.0311 44.2312 25.8613C44.3016 25.6914 44.3378 25.5094 44.3378 25.3255V16.2535C44.3364 15.9432 44.2319 15.642 44.0408 15.3975Z" fill="#212529"/>
<path d="M10.1348 16.8615H3.71382C3.52161 16.847 3.32847 16.8723 3.14648 16.9358C2.9645 16.9994 2.7976 17.0998 2.65624 17.2309C2.51488 17.3619 2.40211 17.5208 2.325 17.6974C2.24788 17.8741 2.20807 18.0648 2.20807 18.2575C2.20807 18.4503 2.24788 18.641 2.325 18.8177C2.40211 18.9943 2.51488 19.1531 2.65624 19.2842C2.7976 19.4152 2.9645 19.5157 3.14648 19.5793C3.32847 19.6428 3.52161 19.6681 3.71382 19.6535H10.1348C10.4868 19.6269 10.8157 19.4682 11.0557 19.2094C11.2957 18.9505 11.4291 18.6105 11.4291 18.2575C11.4291 17.9045 11.2957 17.5646 11.0557 17.3057C10.8157 17.0469 10.4868 16.8882 10.1348 16.8615Z" fill="#212529"/>
<path d="M13.3448 11.3685H1.4378C1.08581 11.3952 0.75689 11.5538 0.516896 11.8127C0.276902 12.0716 0.143555 12.4115 0.143555 12.7645C0.143555 13.1175 0.276902 13.4575 0.516896 13.7164C0.75689 13.9752 1.08581 14.1339 1.4378 14.1605H13.3448C13.6968 14.1339 14.0257 13.9752 14.2657 13.7164C14.5057 13.4575 14.639 13.1175 14.639 12.7645C14.639 12.4115 14.5057 12.0716 14.2657 11.8127C14.0257 11.5538 13.6968 11.3952 13.3448 11.3685Z" fill="#212529"/>
<path d="M15.6248 5.87754H3.71382C3.52161 5.86297 3.32847 5.88826 3.14648 5.95182C2.9645 6.01537 2.7976 6.11582 2.65624 6.24687C2.51488 6.37793 2.40211 6.53676 2.325 6.71343C2.24788 6.89009 2.20807 7.08077 2.20807 7.27353C2.20807 7.46629 2.24788 7.65699 2.325 7.83365C2.40211 8.01031 2.51488 8.16915 2.65624 8.3002C2.7976 8.43126 2.9645 8.53171 3.14648 8.59526C3.32847 8.65882 3.52161 8.6841 3.71382 8.66954H15.6248C15.817 8.6841 16.0102 8.65882 16.1922 8.59526C16.3741 8.53171 16.541 8.43126 16.6824 8.3002C16.8238 8.16915 16.9365 8.01031 17.0137 7.83365C17.0908 7.65699 17.1306 7.46629 17.1306 7.27353C17.1306 7.08077 17.0908 6.89009 17.0137 6.71343C16.9365 6.53676 16.8238 6.37793 16.6824 6.24687C16.541 6.11582 16.3741 6.01537 16.1922 5.95182C16.0102 5.88826 15.817 5.86297 15.6248 5.87754Z" fill="#212529"/>
</svg>
