<svg width="47" height="34" viewBox="0 0 47 34" fill="none" xmlns="http://www.w3.org/2000/svg">
<path d="M11.2659 17.0674H12.7461C13.7813 17.0674 14.494 17.6513 14.494 18.5817C14.494 19.5122 13.7845 20.096 12.7461 20.096H11.2659V17.0674ZM12.7106 19.4122C13.2427 19.4122 13.6007 19.1063 13.6007 18.5817C13.6007 18.0572 13.2427 17.7512 12.7106 17.7512H12.1527V19.4122H12.7106Z" fill="#35495E"/>
<path d="M17.4673 19.4341V20.096H14.9551V17.0674H17.4093V17.7293H15.8323V18.2414H17.2222V18.8814H15.8323V19.4341H17.4673Z" fill="#35495E"/>
<path d="M20.7793 18.1881C20.7793 18.875 20.244 19.3059 19.3894 19.3059H18.8444V20.099H17.9608V17.0703H19.3894C20.244 17.0703 20.7793 17.4981 20.7793 18.1912V18.1881ZM19.886 18.1881C19.886 17.9071 19.7022 17.7416 19.3378 17.7416H18.8476V18.6283H19.3378C19.7054 18.6283 19.886 18.4629 19.886 18.1881Z" fill="#35495E"/>
<path d="M21.0921 18.5817C21.0921 17.6731 21.8306 17.0081 22.8303 17.0081C23.83 17.0081 24.5685 17.6731 24.5685 18.5817C24.5685 19.4903 23.83 20.1554 22.8303 20.1554C21.8306 20.1554 21.0921 19.4903 21.0921 18.5817ZM23.6752 18.5817C23.6752 18.0572 23.3044 17.7168 22.8303 17.7168C22.3563 17.7168 21.9854 18.0572 21.9854 18.5817C21.9854 19.1063 22.3563 19.4466 22.8303 19.4466C23.3044 19.4466 23.6752 19.1063 23.6752 18.5817ZM22.9916 16.165H23.8397L23.0012 16.8238H22.395L22.9948 16.165H22.9916Z" fill="#35495E"/>
<path d="M24.8136 19.8246L25.1038 19.1939C25.3812 19.3719 25.7746 19.4937 26.1358 19.4937C26.497 19.4937 26.6453 19.3937 26.6453 19.247C26.6453 18.7662 24.8684 19.1159 24.8684 17.9918C24.8684 17.4517 25.3231 17.0083 26.2551 17.0083C26.6615 17.0083 27.0807 17.0988 27.3903 17.2737L27.1194 17.9106C26.8195 17.7545 26.526 17.6765 26.2519 17.6765C25.881 17.6765 25.7456 17.7982 25.7456 17.9481C25.7456 18.4102 27.5193 18.0636 27.5193 19.1814C27.5193 19.7091 27.0646 20.1587 26.1358 20.1587C25.623 20.1587 25.1135 20.0245 24.8168 19.8246H24.8136Z" fill="#35495E"/>
<path d="M27.9257 17.0674H28.8093V20.096H27.9257V17.0674Z" fill="#35495E"/>
<path d="M30.1057 17.7479H29.1447V17.0703H31.9471V17.7479H30.9925V20.0958H30.1089V17.7479H30.1057Z" fill="#35495E"/>
<path d="M32.0728 18.5819C32.0728 17.6734 32.8113 17.0083 33.811 17.0083C34.8107 17.0083 35.5492 17.6734 35.5492 18.5819C35.5492 19.4905 34.8107 20.1556 33.811 20.1556C32.8113 20.1556 32.0728 19.4905 32.0728 18.5819ZM34.6559 18.5819C34.6559 18.0574 34.2851 17.7171 33.811 17.7171C33.337 17.7171 32.9661 18.0574 32.9661 18.5819C32.9661 19.1065 33.337 19.4468 33.811 19.4468C34.2851 19.4468 34.6559 19.1065 34.6559 18.5819Z" fill="#35495E"/>
<path d="M4.17434 22.9407H3.21655V22.2632H6.01575V22.9407H5.05796V25.2887H4.17434V22.9407Z" fill="#578A87"/>
<path d="M7.71525 24.4829H7.23152V25.2884H6.3479V22.2598H7.77652C8.63112 22.2598 9.16645 22.6875 9.16645 23.3807C9.16645 23.8272 8.94393 24.155 8.55372 24.3361L9.22772 25.2884H8.27961L7.71203 24.4829H7.71525ZM7.72493 22.9342H7.23474V23.8209H7.72493C8.09256 23.8209 8.27316 23.6554 8.27316 23.3807C8.27316 23.1059 8.08934 22.9342 7.72493 22.9342Z" fill="#578A87"/>
<path d="M11.7496 24.7014H10.4274L10.1823 25.2884H9.27936L10.6596 22.2598H11.5303L12.9138 25.2884H11.9947L11.7496 24.7014ZM11.4916 24.0707L11.0885 23.1028L10.6854 24.0707H11.4884H11.4916Z" fill="#578A87"/>
<path d="M16.1419 22.2598V25.2884H15.4131L14.0328 23.6742V25.2884H13.1653V22.2598H13.8942L15.2744 23.874V22.2598H16.1419Z" fill="#578A87"/>
<path d="M16.5515 25.017L16.8417 24.3863C17.119 24.5643 17.5125 24.686 17.8737 24.686C18.2348 24.686 18.3832 24.5861 18.3832 24.4394C18.3832 23.9585 16.6063 24.3082 16.6063 23.1842C16.6063 22.6441 17.061 22.2007 17.993 22.2007C18.3993 22.2007 18.8185 22.2912 19.1281 22.4661L18.854 23.103C18.5541 22.9469 18.2606 22.8689 17.9865 22.8689C17.6157 22.8689 17.4802 22.9906 17.4802 23.1405C17.4802 23.6026 19.2539 23.256 19.2539 24.3738C19.2539 24.9015 18.7992 25.3511 17.8704 25.3511C17.3577 25.3511 16.8481 25.2168 16.5515 25.017Z" fill="#578A87"/>
<path d="M20.5438 22.9217V23.5868H21.9241V24.2487H20.5438V25.2884H19.6602V22.2598H22.1144V22.9217H20.5471H20.5438Z" fill="#578A87"/>
<path d="M25.0393 24.6265V25.2884H22.5272V22.2598H24.9813V22.9217H23.4043V23.4338H24.7943V24.0738H23.4043V24.6265H25.0393Z" fill="#578A87"/>
<path d="M26.9001 24.4829H26.4164V25.2884H25.5328V22.2598H26.9614C27.816 22.2598 28.3513 22.6875 28.3513 23.3807C28.3513 23.8272 28.1288 24.155 27.7386 24.3361L28.4126 25.2884H27.4645L26.8969 24.4829H26.9001ZM26.9098 22.9342H26.4196V23.8209H26.9098C27.2774 23.8209 27.458 23.6554 27.458 23.3807C27.458 23.1059 27.2742 22.9342 26.9098 22.9342Z" fill="#578A87"/>
<path d="M31.3504 24.6267V25.2886H28.8383V22.26H31.2924V22.9219H29.7154V23.434H31.1053V24.074H29.7154V24.6267H31.3504ZM29.6832 22.0133H29.1188L29.6993 21.3545H30.4313L31.0118 22.0133H30.4475L30.0637 21.6855L29.68 22.0133H29.6832Z" fill="#578A87"/>
<path d="M34.8172 22.2598V25.2884H34.0884L32.7081 23.6742V25.2884H31.8406V22.2598H32.5695L33.9497 23.874V22.2598H34.8172Z" fill="#578A87"/>
<path d="M35.2848 23.7743C35.2848 22.8532 36.0136 22.2007 37.0037 22.2007C37.5809 22.2007 38.0453 22.4036 38.3484 22.7721L37.7841 23.2654C37.5874 23.0375 37.3455 22.9094 37.0456 22.9094C36.5328 22.9094 36.1749 23.256 36.1749 23.7743C36.1749 24.2926 36.5328 24.6392 37.0456 24.6392C37.3455 24.6392 37.5874 24.5143 37.7841 24.2833L38.3484 24.7766C38.0453 25.145 37.5809 25.348 37.0037 25.348C36.0104 25.348 35.2848 24.6954 35.2848 23.7743Z" fill="#578A87"/>
<path d="M38.7419 22.2598H39.6255V25.2884H38.7419V22.2598Z" fill="#578A87"/>
<path d="M42.3537 24.7014H41.0315L40.7864 25.2884H39.8835L41.2637 22.2598H42.1344L43.5179 25.2884H42.5988L42.3537 24.7014ZM42.0958 24.0707L41.6926 23.1028L41.2895 24.0707H42.0925H42.0958Z" fill="#578A87"/>
<path d="M26.052 13.0803L27.0098 13.8921C24.9297 15.4658 21.7597 15.4283 19.7893 13.761C18.596 12.7525 18.1091 11.3693 18.3252 10.0423H16.4386L18.9701 7.90039L21.5017 10.0423H19.7022C19.4829 11.0664 19.8376 12.1561 20.7632 12.9398C22.2047 14.1606 24.5169 14.2043 26.0584 13.0803H26.052Z" fill="#578A87"/>
<path d="M21.3211 7.52589L20.3633 6.71409C22.4433 5.14044 25.6134 5.17791 27.5838 6.84523C28.777 7.85374 29.264 9.23692 29.0479 10.5639H30.9344L28.4029 12.7058L25.8714 10.5639H27.6709C27.8902 9.53979 27.5354 8.4501 26.6099 7.6664C25.1684 6.44557 22.8561 6.40186 21.3146 7.52589H21.3211Z" fill="#35495E"/>
</svg>
