<svg width="47" height="34" viewBox="0 0 47 34" fill="none" xmlns="http://www.w3.org/2000/svg">
<path fill-rule="evenodd" clip-rule="evenodd" d="M21.6774 27.0505H25.1962C30.689 27.0505 35.066 22.7098 35.2377 17.3478V17.2627C35.1518 11.8155 30.689 7.38973 25.1962 7.47484H21.2483C16.013 7.64506 11.8934 12.0709 12.0651 17.3478C12.0651 22.6247 16.3563 26.9654 21.6774 27.0505ZM13.7816 17.2628C13.7816 12.837 17.472 9.17716 21.9349 9.17716C26.3978 9.17716 30.0882 12.837 30.0882 17.2628C30.0882 21.6886 26.3978 25.3484 21.9349 25.3484C17.472 25.3484 13.7816 21.6886 13.7816 17.2628ZM23.2223 22.7098V11.9006C26.2261 12.6666 28.1143 15.6456 27.3418 18.6245C26.8269 20.6671 25.282 22.1992 23.2223 22.7098ZM16.6138 15.9009C15.8413 18.8798 17.6437 21.9438 20.6475 22.7098V11.9006C18.6735 12.4113 17.1287 13.9433 16.6138 15.9009Z" fill="#0079BE"/>
</svg>
