<svg width="47" height="34" viewBox="0 0 47 34" fill="none" xmlns="http://www.w3.org/2000/svg">
<path d="M11.0681 13.8637C11.458 13.7359 11.8752 13.6665 12.3092 13.6665C14.2035 13.6665 15.7836 14.9865 16.1461 16.74L18.8304 16.2031C18.2145 13.2229 15.5292 10.9795 12.3092 10.9795C11.572 10.9795 10.8624 11.0973 10.2 11.3143L11.0681 13.8637Z" fill="#FECA2F"/>
<path d="M7.87348 22.5003L9.48074 20.425C8.7633 19.6994 8.31049 18.6399 8.31049 17.459C8.31049 16.279 8.76288 15.2196 9.4801 14.4945L7.872 12.4194C6.65293 13.6523 5.8847 15.4532 5.8847 17.459C5.8847 19.4659 6.65405 21.2674 7.87348 22.5003Z" fill="#1BA7DE"/>
<path d="M16.1469 18.1802C15.7832 19.9334 14.2041 21.2517 12.3115 21.2517C11.8772 21.2517 11.4593 21.1821 11.0693 21.0539L10.2 23.6046C10.8634 23.8227 11.5732 23.9407 12.3115 23.9407C15.5285 23.9407 18.212 21.6988 18.8304 18.7198L16.1469 18.1802Z" fill="#EC412A"/>
<path fill-rule="evenodd" clip-rule="evenodd" d="M31.7455 12.4199V19.7952L33.069 20.3257L32.4429 21.7803L31.1341 21.2542C30.8398 21.1308 30.6406 20.9428 30.4893 20.7304C30.344 20.5132 30.2363 20.2162 30.2363 19.8155V12.4199H31.7455ZM21.7077 17.9015C21.7406 15.7924 23.5367 14.1088 25.7162 14.1411C27.566 14.1691 29.0987 15.4221 29.5013 17.0885L22.3468 20.0454C21.9312 19.431 21.695 18.6919 21.7077 17.9015ZM23.3447 18.1973C23.3349 18.1088 23.328 18.018 23.3306 17.9265C23.3511 16.6839 24.4086 15.6923 25.6926 15.7129C26.3916 15.722 27.0122 16.0315 27.4317 16.5105L23.3447 18.1973ZM27.2811 19.5665C26.8499 19.9721 26.2652 20.2192 25.6196 20.2103C25.177 20.2032 24.767 20.075 24.4183 19.8616L23.554 21.1933C24.146 21.5551 24.8439 21.7691 25.5963 21.7804C26.6916 21.7961 27.6898 21.3801 28.4157 20.6931L27.2811 19.5665ZM37.2539 15.7126C36.9961 15.7126 36.7483 15.7529 36.5168 15.8281L36.0018 14.3358C36.3949 14.2089 36.8158 14.1399 37.2539 14.1399C39.1654 14.1399 40.7601 15.453 41.1258 17.1972L39.5316 17.5115C39.3168 16.485 38.3786 15.7126 37.2539 15.7126ZM34.6364 20.8218L35.7136 19.6438C35.2325 19.232 34.9295 18.6304 34.9295 17.96C34.9295 17.2902 35.2325 16.6889 35.7131 16.2774L34.6352 15.0994C33.8179 15.7993 33.303 16.822 33.303 17.96C33.303 19.0994 33.8183 20.1217 34.6364 20.8218ZM37.2538 20.2082C38.3775 20.2082 39.3155 19.4365 39.5315 18.4115L41.1253 18.7271C40.7578 20.4695 39.1636 21.7807 37.2538 21.7807C36.8154 21.7807 36.3939 21.7116 35.9998 21.584L36.516 20.0923C36.7479 20.1672 36.9958 20.2082 37.2538 20.2082Z" fill="black"/>
</svg>
