<svg width="30" height="31" viewBox="0 0 30 31" fill="none" xmlns="http://www.w3.org/2000/svg">
<g clip-path="url(#clip0_55_2963)">
<path d="M23.75 11.03V9.25C23.75 6.92936 22.8281 4.70376 21.1872 3.06282C19.5462 1.42187 17.3206 0.5 15 0.5C12.6794 0.5 10.4538 1.42187 8.81282 3.06282C7.17187 4.70376 6.25 6.92936 6.25 9.25V11.03C5.1367 11.5159 4.18912 12.3157 3.52312 13.3315C2.85713 14.3474 2.5016 15.5353 2.5 16.75V24.25C2.50198 25.907 3.1611 27.4956 4.33277 28.6672C5.50445 29.8389 7.09301 30.498 8.75 30.5H21.25C22.907 30.498 24.4956 29.8389 25.6672 28.6672C26.8389 27.4956 27.498 25.907 27.5 24.25V16.75C27.4984 15.5353 27.1429 14.3474 26.4769 13.3315C25.8109 12.3157 24.8633 11.5159 23.75 11.03ZM8.75 9.25C8.75 7.5924 9.40848 6.00269 10.5806 4.83058C11.7527 3.65848 13.3424 3 15 3C16.6576 3 18.2473 3.65848 19.4194 4.83058C20.5915 6.00269 21.25 7.5924 21.25 9.25V10.5H8.75V9.25ZM25 24.25C25 25.2446 24.6049 26.1984 23.9017 26.9017C23.1984 27.6049 22.2446 28 21.25 28H8.75C7.75544 28 6.80161 27.6049 6.09835 26.9017C5.39509 26.1984 5 25.2446 5 24.25V16.75C5 15.7554 5.39509 14.8016 6.09835 14.0983C6.80161 13.3951 7.75544 13 8.75 13H21.25C22.2446 13 23.1984 13.3951 23.9017 14.0983C24.6049 14.8016 25 15.7554 25 16.75V24.25Z" fill="white"/>
<path d="M15 18C14.6685 18 14.3505 18.1317 14.1161 18.3661C13.8817 18.6005 13.75 18.9185 13.75 19.25V21.75C13.75 22.0815 13.8817 22.3995 14.1161 22.6339C14.3505 22.8683 14.6685 23 15 23C15.3315 23 15.6495 22.8683 15.8839 22.6339C16.1183 22.3995 16.25 22.0815 16.25 21.75V19.25C16.25 18.9185 16.1183 18.6005 15.8839 18.3661C15.6495 18.1317 15.3315 18 15 18Z" fill="white"/>
</g>
<defs>
<clipPath id="clip0_55_2963">
<rect width="30" height="30" fill="white" transform="translate(0 0.5)"/>
</clipPath>
</defs>
</svg>
