<svg width="30" height="30" viewBox="0 0 30 30" fill="none" xmlns="http://www.w3.org/2000/svg">
<g clip-path="url(#clip0_55_2966)">
<path d="M23.75 6.25H21.25V5C21.25 4.00544 20.8549 3.05161 20.1517 2.34835C19.4484 1.64509 18.4946 1.25 17.5 1.25H3.75C2.75544 1.25 1.80161 1.64509 1.09835 2.34835C0.395088 3.05161 0 4.00544 0 5L0 23.75H2.55125C2.51909 23.9568 2.50196 24.1657 2.5 24.375C2.5 25.5353 2.96094 26.6481 3.78141 27.4686C4.60188 28.2891 5.71468 28.75 6.875 28.75C8.03532 28.75 9.14812 28.2891 9.96859 27.4686C10.7891 26.6481 11.25 25.5353 11.25 24.375C11.248 24.1657 11.2309 23.9568 11.1987 23.75H18.8013C18.7691 23.9568 18.752 24.1657 18.75 24.375C18.75 25.5353 19.2109 26.6481 20.0314 27.4686C20.8519 28.2891 21.9647 28.75 23.125 28.75C24.2853 28.75 25.3981 28.2891 26.2186 27.4686C27.0391 26.6481 27.5 25.5353 27.5 24.375C27.498 24.1657 27.4809 23.9568 27.4487 23.75H30V12.5C29.998 10.843 29.3389 9.25445 28.1672 8.08278C26.9956 6.9111 25.407 6.25198 23.75 6.25ZM23.75 8.75C24.7446 8.75 25.6984 9.14509 26.4017 9.84835C27.1049 10.5516 27.5 11.5054 27.5 12.5V13.75H21.25V8.75H23.75ZM8.75 24.375C8.75 24.8723 8.55246 25.3492 8.20083 25.7008C7.84919 26.0525 7.37228 26.25 6.875 26.25C6.37772 26.25 5.90081 26.0525 5.54917 25.7008C5.19754 25.3492 5 24.8723 5 24.375C5.00077 24.1614 5.04015 23.9496 5.11625 23.75H8.63375C8.70985 23.9496 8.74923 24.1614 8.75 24.375ZM18.75 21.25H2.5V5C2.5 4.66848 2.6317 4.35054 2.86612 4.11612C3.10054 3.8817 3.41848 3.75 3.75 3.75H17.5C17.8315 3.75 18.1495 3.8817 18.3839 4.11612C18.6183 4.35054 18.75 4.66848 18.75 5V21.25ZM25 24.375C25 24.8723 24.8025 25.3492 24.4508 25.7008C24.0992 26.0525 23.6223 26.25 23.125 26.25C22.6277 26.25 22.1508 26.0525 21.7992 25.7008C21.4475 25.3492 21.25 24.8723 21.25 24.375C21.2505 24.1613 21.2899 23.9496 21.3663 23.75H24.8837C24.9601 23.9496 24.9995 24.1613 25 24.375ZM21.25 21.25V16.25H27.5V21.25H21.25Z" fill="white"/>
</g>
<defs>
<clipPath id="clip0_55_2966">
<rect width="30" height="30" fill="white"/>
</clipPath>
</defs>
</svg>
