<svg width="83" height="33" viewBox="0 0 83 33" fill="none" xmlns="http://www.w3.org/2000/svg">
<path d="M25.1107 3.75414H14.0581V5.71007H23.1684C23.2171 8.472 23.297 13.77 23.297 18.5443C23.297 21.2977 20.7067 23.7567 18.5334 25.3345C17.1471 26.3283 15.6745 27.1999 14.1328 27.9389L14.0581 27.903V30.0489L14.1398 30.0848C14.1398 30.0848 25.2845 25.4508 25.2845 18.5443C25.2845 11.6378 25.1107 3.75414 25.1107 3.75414Z" fill="#EAEFEE"/>
<path d="M18.3353 11.6258L20.6702 13.924L14.0581 20.4352V27.9013L14.1328 27.9372C15.6751 27.1982 17.1483 26.3267 18.5351 25.3327C20.7084 23.755 23.2987 21.296 23.2987 18.5426C23.2987 13.7631 23.2188 8.46515 23.1702 5.70836H14.0581V15.8388L18.3353 11.6258Z" fill="#419C64"/>
<path d="M18.337 11.6258L14.0581 15.8388V20.4369L20.6702 13.924L18.337 11.6258Z" fill="#ECF0F1"/>
<path d="M4.98429 18.5443C4.98429 13.7648 5.06421 8.46515 5.11285 5.71007H14.0581V3.75414H3.16883C3.16883 3.75414 3.00378 11.6361 3.00378 18.5443C3.00378 25.1188 13.0801 29.6279 14.0581 30.0472V27.903C10.9067 26.3988 4.98429 22.7129 4.98429 18.5443Z" fill="#BDC2C5"/>
<path d="M4.98425 18.5443C4.98425 22.7146 10.9067 26.3989 14.0598 27.903V20.4352L13.0696 21.4106L9.1798 17.5809L11.513 15.281L13.0765 16.8211L14.0668 15.8457V5.71008H5.11281C5.06417 8.46516 4.98425 13.7648 4.98425 18.5443Z" fill="#36985B"/>
<path d="M13.0679 16.8142L11.513 15.2827L9.17981 17.5809L13.0679 21.4106L14.0581 20.4369V15.8388L13.0679 16.8142Z" fill="#EAEFEE"/>
<path d="M42.8432 10.4108H37.2005V12.0605H41.1963C40.9982 14.374 39.0455 15.3597 37.2005 15.3597C36.6167 15.3611 36.0385 15.2481 35.4995 15.0273C34.9605 14.8064 34.4715 14.4821 34.061 14.0733C33.6505 13.6645 33.3267 13.1793 33.1084 12.646C32.8901 12.1127 32.7817 11.5419 32.7895 10.967C32.7791 10.3891 32.886 9.81502 33.1038 9.27836C33.3216 8.7417 33.646 8.25328 34.058 7.84174C34.4699 7.43021 34.9612 7.10384 35.5029 6.88178C36.0446 6.65972 36.6259 6.54644 37.2127 6.54858C38.3381 6.54767 39.42 6.97712 40.2303 7.74644L41.403 6.54858C41.403 6.54858 39.8985 4.89896 37.1536 4.89896C33.6582 4.89896 30.955 7.80805 30.955 10.943C30.976 12.567 31.6495 14.1165 32.8278 15.2525C34.0062 16.3885 35.5935 17.0184 37.2422 17.0042C40.5431 17.0042 42.9457 14.7796 42.9457 11.4957C42.9529 11.1286 42.9185 10.7619 42.8432 10.4023V10.4108Z" fill="#4D74B3"/>
<path d="M47.4662 9.21638C46.9462 9.2075 46.4297 9.30094 45.9469 9.49122C45.4641 9.68151 45.0247 9.96481 44.6545 10.3245C44.2843 10.6842 43.9907 11.1131 43.791 11.5861C43.5912 12.059 43.4893 12.5664 43.4912 13.0786C43.4912 15.1886 45.1 17.0059 47.487 17.0059C48.0067 17.014 48.5228 16.9191 49.0045 16.727C49.4863 16.5348 49.9239 16.2492 50.2914 15.8872C50.6589 15.5252 50.9489 15.0941 51.144 14.6196C51.3391 14.145 51.4354 13.6367 51.4272 13.1248C51.4272 10.546 49.3633 9.21638 47.4592 9.21638H47.4662ZM47.4887 10.7462C48.6267 10.7462 49.7073 11.6532 49.7073 13.1146C49.7073 14.5452 48.6336 15.4778 47.4835 15.4778C46.2223 15.4778 45.2251 14.4818 45.2251 13.1043C45.2251 11.7559 46.2084 10.7479 47.4835 10.7479L47.4887 10.7462Z" fill="#C33C3C"/>
<path d="M56.1109 9.21638C55.591 9.2075 55.0745 9.30094 54.5917 9.49122C54.1089 9.68151 53.6695 9.96481 53.2993 10.3245C52.9291 10.6842 52.6355 11.1131 52.4357 11.5861C52.236 12.059 52.1341 12.5664 52.136 13.0786C52.136 15.1886 53.7447 17.0059 56.1318 17.0059C56.6515 17.014 57.1675 16.9191 57.6493 16.727C58.131 16.5348 58.5687 16.2492 58.9362 15.8872C59.3037 15.5252 59.5936 15.0941 59.7888 14.6196C59.9839 14.145 60.0802 13.6367 60.072 13.1248C60.072 10.546 58.0081 9.21638 56.104 9.21638H56.1109ZM56.1335 10.7462C57.2714 10.7462 58.352 11.6532 58.352 13.1146C58.352 14.5452 57.2784 15.4778 56.1283 15.4778C54.867 15.4778 53.8698 14.4818 53.8698 13.1043C53.8698 11.7559 54.8531 10.7479 56.1283 10.7479L56.1335 10.7462Z" fill="#E8BB25"/>
<path d="M64.5905 9.21982C62.4658 9.21982 60.7946 11.0525 60.7946 13.1112C60.7946 15.4641 62.7316 17.0042 64.5471 17.0042C65.6746 17.0042 66.274 16.5644 66.7152 16.0579V16.8331C66.7152 18.1764 65.8866 18.9807 64.6305 18.9807C63.4144 18.9807 62.8168 18.096 62.6065 17.5946L61.0864 18.2209C61.625 19.3435 62.7108 20.5139 64.6426 20.5139C66.7552 20.5139 68.3657 19.2031 68.3657 16.4532V9.45426H66.7083V10.1148C66.4384 9.82456 66.1085 9.59466 65.7408 9.44057C65.3731 9.28649 64.9761 9.2118 64.5766 9.22153L64.5905 9.21982ZM64.7452 10.7462C65.7875 10.7462 66.8577 11.6224 66.8577 13.1197C66.8577 14.617 65.7875 15.4795 64.7208 15.4795C63.5881 15.4795 62.5336 14.5725 62.5336 13.1351C62.5336 11.6395 63.6281 10.7394 64.7434 10.7394L64.7452 10.7462Z" fill="#4D74B3"/>
<path d="M75.751 9.21126C73.7462 9.21126 72.0627 10.7822 72.0627 13.1009C72.0627 15.5548 73.939 17.0093 75.9438 17.0093C77.6169 17.0093 78.6436 16.1075 79.2569 15.2981L77.8896 14.4031C77.6914 14.7343 77.4079 15.008 77.0677 15.1964C76.7275 15.3849 76.3428 15.4813 75.9525 15.4761C74.8407 15.4761 74.3299 14.8771 74.0137 14.2953L79.3142 12.1272L79.0397 11.4923C78.5272 10.2483 77.3337 9.20955 75.751 9.20955V9.21126ZM75.8205 10.7086C76.1193 10.6962 76.4155 10.7678 76.6746 10.9151C76.9336 11.0623 77.1447 11.2792 77.2833 11.5402L73.7427 12.9982C73.5898 11.8705 74.6756 10.7086 75.8274 10.7086H75.8205Z" fill="#C33C3C"/>
<path d="M69.5349 16.7766H71.2722V5.29767H69.5349V16.7766Z" fill="#479C51"/>
<path d="M30.948 26.2448C31.377 26.4984 31.8671 26.6343 32.3674 26.6384C33.177 26.6384 33.6495 26.2175 33.6495 25.6117C33.6495 25.047 33.3229 24.7253 32.4942 24.4138C31.4935 24.0716 30.875 23.5582 30.875 22.7026C30.875 21.7614 31.6655 21.0632 32.8573 21.0632C33.3271 21.0475 33.7934 21.1493 34.2124 21.3593L33.9935 21.9959C33.6358 21.8062 33.2357 21.7074 32.8295 21.7084C31.9921 21.7084 31.6742 22.2012 31.6742 22.6136C31.6742 23.1783 32.0477 23.4555 32.8903 23.779C33.9327 24.1725 34.4539 24.6654 34.4539 25.5535C34.4539 26.4844 33.7589 27.2921 32.3083 27.2921C31.7621 27.2987 31.2235 27.1661 30.7448 26.9071L30.948 26.2448Z" fill="#5C5C5C"/>
<path d="M36.4032 21.6399C36.4032 21.7695 36.3509 21.8938 36.2579 21.9854C36.1649 22.077 36.0387 22.1285 35.9072 22.1285C35.7756 22.1285 35.6495 22.077 35.5564 21.9854C35.4634 21.8938 35.4112 21.7695 35.4112 21.6399C35.4095 21.5747 35.4213 21.5099 35.4459 21.4494C35.4704 21.3889 35.5072 21.3339 35.554 21.2878C35.6008 21.2417 35.6566 21.2054 35.7181 21.1812C35.7795 21.1571 35.8453 21.1454 35.9115 21.1471C35.9775 21.1446 36.0433 21.1557 36.1046 21.1797C36.166 21.2037 36.2216 21.2401 36.2679 21.2865C36.3142 21.3329 36.3501 21.3883 36.3734 21.4491C36.3967 21.51 36.4068 21.575 36.4032 21.6399ZM35.5119 27.1946V22.8583H36.3128V27.1946H35.5119Z" fill="#5C5C5C"/>
<path d="M38.6059 21.6125V22.8583H39.7526V23.459H38.6059V25.7965C38.6059 26.3338 38.7606 26.6384 39.207 26.6384C39.3634 26.6408 39.5193 26.623 39.6709 26.5854L39.7074 27.1775C39.4799 27.256 39.2396 27.2926 38.9986 27.2853C38.838 27.2952 38.6772 27.2707 38.5272 27.2134C38.3772 27.1561 38.2416 27.0673 38.1299 26.9533C37.9023 26.7206 37.8207 26.3355 37.8207 25.8239V23.4573H37.1379V22.8566H37.8207V21.8179L38.6059 21.6125Z" fill="#5C5C5C"/>
<path d="M41.0434 25.1685C41.0607 26.2346 41.7522 26.6744 42.5531 26.6744C42.9701 26.6869 43.385 26.6104 43.7692 26.4502L43.9064 27.0149C43.4429 27.205 42.9438 27.2965 42.4419 27.2836C41.0868 27.2836 40.2772 26.4057 40.2772 25.0983C40.2772 23.7909 41.059 22.7608 42.3411 22.7608C43.7779 22.7608 44.1601 24.0065 44.1601 24.804C44.1585 24.9271 44.1492 25.0499 44.1323 25.1719L41.0434 25.1685ZM43.3904 24.6038C43.3991 24.1024 43.182 23.3221 42.2803 23.3221C41.4707 23.3221 41.1163 24.0562 41.0521 24.6038H43.3904Z" fill="#5C5C5C"/>
<path d="M47.0005 26.2448C47.4295 26.4984 47.9196 26.6343 48.4199 26.6384C49.2295 26.6384 49.702 26.2175 49.702 25.6117C49.702 25.047 49.3754 24.7253 48.5467 24.4138C47.546 24.0716 46.9276 23.5582 46.9276 22.7026C46.9276 21.7614 47.718 21.0632 48.9098 21.0632C49.3796 21.0475 49.8459 21.1493 50.2649 21.3593L50.046 21.9959C49.6883 21.8062 49.2882 21.7074 48.882 21.7084C48.0446 21.7084 47.7267 22.2012 47.7267 22.6136C47.7267 23.1783 48.1002 23.4555 48.9428 23.779C49.9852 24.1725 50.5064 24.6654 50.5064 25.5535C50.5064 26.4844 49.8115 27.2921 48.3591 27.2921C47.8129 27.2987 47.2743 27.1661 46.7955 26.9071L47.0005 26.2448Z" fill="#5C5C5C"/>
<path d="M52.0664 25.1685C52.0855 26.2346 52.7753 26.6744 53.5761 26.6744C53.9932 26.6869 54.408 26.6104 54.7922 26.4502L54.9295 27.0149C54.466 27.205 53.9669 27.2965 53.465 27.2836C52.1099 27.2836 51.3003 26.4057 51.3003 25.0983C51.3003 23.7909 52.0821 22.7608 53.3642 22.7608C54.8009 22.7608 55.1831 24.0065 55.1831 24.804C55.1815 24.9271 55.1723 25.0499 55.1553 25.1719L52.0664 25.1685ZM54.4135 24.6038C54.4222 24.1024 54.205 23.3221 53.3034 23.3221C52.4938 23.3221 52.1394 24.0562 52.0751 24.6038H54.4135Z" fill="#5C5C5C"/>
<path d="M59.9694 22.8583C59.9503 23.1715 59.933 23.5206 59.933 24.0562V26.5734C59.933 27.5676 59.7332 28.1768 59.3058 28.5533C58.8784 28.9298 58.2634 29.0667 57.7057 29.0667C57.1938 29.0797 56.6877 28.9561 56.2412 28.709L56.441 28.1084C56.8314 28.3366 57.2779 28.4549 57.7318 28.4506C58.5501 28.4506 59.1512 28.0297 59.1512 26.9362V26.4502H59.1338C58.987 26.6829 58.7799 26.8728 58.5337 27.0003C58.2876 27.1279 58.0114 27.1884 57.7335 27.1758C56.6425 27.1758 55.859 26.262 55.859 25.0607C55.859 23.5907 56.8319 22.7574 57.8413 22.7574C58.6057 22.7574 59.0243 23.1509 59.2155 23.5103H59.2328L59.2693 22.8566L59.9694 22.8583ZM59.1425 24.5696C59.1471 24.4487 59.1319 24.3279 59.0973 24.2119C59.0297 23.9712 58.8835 23.7591 58.6813 23.6085C58.479 23.4578 58.232 23.377 57.9785 23.3785C57.2141 23.3785 56.6686 24.0151 56.6686 25.0179C56.6686 25.8735 57.1046 26.5768 57.9698 26.5768C58.2176 26.5755 58.4586 26.4967 58.6581 26.3519C58.8576 26.2071 59.0053 26.0036 59.0799 25.7708C59.1235 25.6347 59.1452 25.4926 59.1442 25.3499L59.1425 24.5696Z" fill="#5C5C5C"/>
<path d="M64.945 26.0104C64.945 26.4587 64.9537 26.8523 64.9815 27.1929H64.2727L64.2275 26.4844H64.1997C64.0513 26.7338 63.8383 26.9398 63.5825 27.0815C63.3267 27.2231 63.0373 27.2952 62.7439 27.2904C62.0489 27.2904 61.2255 26.9139 61.2255 25.3909V22.8583H62.0264V25.254C62.0264 26.0788 62.2817 26.6333 63.0079 26.6333C63.2359 26.6294 63.4575 26.5593 63.6452 26.4317C63.8328 26.3041 63.9779 26.1248 64.0625 25.9163C64.1111 25.787 64.1358 25.6503 64.1354 25.5124V22.8583H64.9363L64.945 26.0104Z" fill="#5C5C5C"/>
<path d="M66.2723 24.2102C66.2723 23.6968 66.2636 23.2604 66.2358 22.8566H66.9308L66.9586 23.7122H66.995C67.1948 23.1304 67.6778 22.7625 68.2111 22.7625C68.2879 22.7617 68.3644 22.7709 68.4387 22.7899V23.5342C68.3492 23.5149 68.2576 23.5057 68.166 23.5069C67.6013 23.5069 67.2018 23.9278 67.0923 24.5199C67.0698 24.6413 67.0576 24.7644 67.0558 24.8878V27.1997H66.2636L66.2723 24.2102Z" fill="#5C5C5C"/>
<path d="M73.1398 24.9905C73.1398 26.5939 72.0123 27.2938 70.9474 27.2938C69.7556 27.2938 68.8365 26.4382 68.8365 25.0692C68.8365 23.6181 69.8007 22.7659 71.0186 22.7659C72.2833 22.7591 73.1398 23.6643 73.1398 24.9905ZM69.6479 25.035C69.6479 25.9847 70.2021 26.7017 70.9856 26.7017C71.7691 26.7017 72.3233 25.9933 72.3233 25.0179C72.3233 24.2838 71.9498 23.3511 71.0047 23.3511C70.0596 23.3511 69.6461 24.2102 69.6461 25.035H69.6479Z" fill="#5C5C5C"/>
</svg>
