<svg width="82" height="33" viewBox="0 0 82 33" fill="none" xmlns="http://www.w3.org/2000/svg">
<path d="M24.322 4.01489H13.2694V5.97083H22.3797C22.4284 8.73275 22.5083 14.0307 22.5083 18.8051C22.5083 21.5584 19.918 24.0175 17.7447 25.5952C16.3584 26.5891 14.8858 27.4606 13.3441 28.1997L13.2694 28.1638V30.3097L13.3511 30.3456C13.3511 30.3456 24.4958 25.7116 24.4958 18.8051C24.4958 11.8985 24.322 4.01489 24.322 4.01489Z" fill="#EAEFEE"/>
<path d="M17.5466 11.8864L19.8815 14.1846L13.2694 20.6958V28.1619L13.3441 28.1979C14.8864 27.4589 16.3596 26.5873 17.7464 25.5934C19.9197 24.0156 22.51 21.5566 22.51 18.8032C22.51 14.0238 22.4301 8.72579 22.3815 5.96899H13.2694V16.0995L17.5466 11.8864Z" fill="#419C64"/>
<path d="M17.5483 11.8865L13.2694 16.0995V20.6976L19.8815 14.1847L17.5483 11.8865Z" fill="#ECF0F1"/>
<path d="M4.19555 18.8051C4.19555 14.0256 4.27547 8.72591 4.32411 5.97083H13.2694V4.01489H2.38008C2.38008 4.01489 2.21504 11.8968 2.21504 18.8051C2.21504 25.3796 12.2913 29.8887 13.2694 30.3079V28.1638C10.118 26.6596 4.19555 22.9736 4.19555 18.8051Z" fill="#BDC2C5"/>
<path d="M4.19553 18.8049C4.19553 22.9752 10.1179 26.6595 13.2711 28.1636V20.6958L12.2809 21.6712L8.39108 17.8415L10.7243 15.5416L12.2878 17.0817L13.2781 16.1063V5.9707H4.32409C4.27545 8.72578 4.19553 14.0255 4.19553 18.8049Z" fill="#36985B"/>
<path d="M12.2791 17.075L10.7242 15.5435L8.39107 17.8416L12.2791 21.6714L13.2694 20.6977V16.0996L12.2791 17.075Z" fill="#EAEFEE"/>
<path d="M42.0545 10.6715H36.4118V12.3212H40.4076C40.2095 14.6348 38.2568 15.6204 36.4118 15.6204C35.828 15.6218 35.2498 15.5088 34.7108 15.288C34.1718 15.0671 33.6828 14.7428 33.2723 14.334C32.8618 13.9252 32.538 13.44 32.3197 12.9067C32.1014 12.3734 31.993 11.8027 32.0008 11.2277C31.9904 10.6498 32.0973 10.0757 32.3151 9.53907C32.5329 9.00241 32.8573 8.51399 33.2693 8.10246C33.6812 7.69092 34.1725 7.36455 34.7142 7.14249C35.2559 6.92043 35.8372 6.80715 36.424 6.80929C37.5494 6.80838 38.6313 7.23783 39.4416 8.00716L40.6143 6.80929C40.6143 6.80929 39.1098 5.15967 36.3649 5.15967C32.8695 5.15967 30.1663 8.06876 30.1663 11.2037C30.1873 12.8277 30.8608 14.3773 32.0391 15.5132C33.2175 16.6492 34.8048 17.2791 36.4535 17.2649C39.7544 17.2649 42.157 15.0403 42.157 11.7565C42.1642 11.3894 42.1298 11.0226 42.0545 10.663V10.6715Z" fill="#4D74B3"/>
<path d="M46.6775 9.47714C46.1575 9.46826 45.641 9.56169 45.1582 9.75198C44.6754 9.94226 44.236 10.2256 43.8658 10.5853C43.4956 10.945 43.202 11.3739 43.0023 11.8468C42.8025 12.3197 42.7006 12.8272 42.7026 13.3394C42.7026 15.4493 44.3113 17.2667 46.6983 17.2667C47.218 17.2748 47.7341 17.1799 48.2158 16.9877C48.6976 16.7955 49.1352 16.51 49.5028 16.1479C49.8703 15.7859 50.1602 15.3549 50.3553 14.8803C50.5504 14.4058 50.6467 13.8975 50.6385 13.3856C50.6385 10.8068 48.5746 9.47714 46.6705 9.47714H46.6775ZM46.7001 11.007C47.838 11.007 48.9186 11.9139 48.9186 13.3753C48.9186 14.8059 47.8449 15.7385 46.6949 15.7385C45.4336 15.7385 44.4364 14.7426 44.4364 13.3651C44.4364 12.0166 45.4197 11.0087 46.6949 11.0087L46.7001 11.007Z" fill="#C33C3C"/>
<path d="M55.3222 9.47714C54.8023 9.46826 54.2858 9.56169 53.803 9.75198C53.3202 9.94226 52.8808 10.2256 52.5106 10.5853C52.1404 10.945 51.8468 11.3739 51.647 11.8468C51.4473 12.3197 51.3454 12.8272 51.3473 13.3394C51.3473 15.4493 52.956 17.2667 55.3431 17.2667C55.8628 17.2748 56.3788 17.1799 56.8606 16.9877C57.3423 16.7955 57.78 16.51 58.1475 16.1479C58.515 15.7859 58.805 15.3549 59.0001 14.8803C59.1952 14.4058 59.2915 13.8975 59.2833 13.3856C59.2833 10.8068 57.2194 9.47714 55.3153 9.47714H55.3222ZM55.3448 11.007C56.4827 11.007 57.5633 11.9139 57.5633 13.3753C57.5633 14.8059 56.4897 15.7385 55.3396 15.7385C54.0783 15.7385 53.0811 14.7426 53.0811 13.3651C53.0811 12.0166 54.0644 11.0087 55.3396 11.0087L55.3448 11.007Z" fill="#E8BB25"/>
<path d="M63.8019 9.48047C61.6772 9.48047 60.0059 11.3132 60.0059 13.3718C60.0059 15.7247 61.943 17.2649 63.7585 17.2649C64.886 17.2649 65.4853 16.8251 65.9266 16.3185V17.0937C65.9266 18.437 65.0979 19.2413 63.8419 19.2413C62.6258 19.2413 62.0281 18.3566 61.8179 17.8552L60.2978 18.4815C60.8363 19.6041 61.9221 20.7746 63.854 20.7746C65.9666 20.7746 67.577 19.4638 67.577 16.7138V9.71491H65.9197V10.3754C65.6497 10.0852 65.3198 9.85531 64.9521 9.70122C64.5844 9.54714 64.1875 9.47245 63.788 9.48218L63.8019 9.48047ZM63.9565 11.0069C64.9989 11.0069 66.0691 11.883 66.0691 13.3804C66.0691 14.8777 64.9989 15.7401 63.9322 15.7401C62.7995 15.7401 61.7449 14.8332 61.7449 13.3958C61.7449 11.9001 62.8394 11 63.9548 11L63.9565 11.0069Z" fill="#4D74B3"/>
<path d="M74.9622 9.47193C72.9574 9.47193 71.274 11.0428 71.274 13.3616C71.274 15.8155 73.1503 17.27 75.1551 17.27C76.8281 17.27 77.8548 16.3682 78.4681 15.5588L77.1008 14.6638C76.9027 14.995 76.6191 15.2687 76.2789 15.4571C75.9387 15.6455 75.554 15.742 75.1638 15.7367C74.0519 15.7367 73.5411 15.1378 73.225 14.556L78.5254 12.3879L78.2509 11.753C77.7384 10.5089 76.5449 9.47021 74.9622 9.47021V9.47193ZM75.0317 10.9693C75.3306 10.9568 75.6268 11.0285 75.8858 11.1757C76.1448 11.323 76.356 11.5398 76.4945 11.8009L72.9539 13.2589C72.8011 12.1312 73.8869 10.9693 75.0387 10.9693H75.0317Z" fill="#C33C3C"/>
<path d="M68.7462 17.0373H70.4835V5.55835H68.7462V17.0373Z" fill="#479C51"/>
<path d="M30.1594 26.5055C30.5884 26.759 31.0784 26.8949 31.5787 26.899C32.3883 26.899 32.8608 26.4781 32.8608 25.8723C32.8608 25.3076 32.5342 24.9859 31.7056 24.6744C30.7049 24.3322 30.0864 23.8188 30.0864 22.9632C30.0864 22.022 30.8769 21.3239 32.0686 21.3239C32.5385 21.3081 33.0047 21.4099 33.4237 21.6199L33.2048 22.2565C32.8471 22.0668 32.4471 21.968 32.0408 21.969C31.2035 21.969 30.8856 22.4618 30.8856 22.8742C30.8856 23.4389 31.2591 23.7162 32.1017 24.0396C33.144 24.4332 33.6652 24.926 33.6652 25.8141C33.6652 26.745 32.9703 27.5527 31.5197 27.5527C30.9735 27.5593 30.4349 27.4267 29.9561 27.1677L30.1594 26.5055Z" fill="#5C5C5C"/>
<path d="M35.6144 21.9006C35.6144 22.0302 35.5622 22.1545 35.4691 22.2461C35.3761 22.3377 35.25 22.3892 35.1184 22.3892C34.9869 22.3892 34.8607 22.3377 34.7677 22.2461C34.6747 22.1545 34.6224 22.0302 34.6224 21.9006C34.6208 21.8355 34.6326 21.7707 34.6571 21.7101C34.6817 21.6496 34.7185 21.5946 34.7653 21.5485C34.8121 21.5024 34.8679 21.4662 34.9293 21.442C34.9908 21.4178 35.0566 21.4062 35.1228 21.4078C35.1888 21.4053 35.2545 21.4164 35.3159 21.4404C35.3773 21.4645 35.4329 21.5008 35.4792 21.5472C35.5254 21.5936 35.5614 21.649 35.5847 21.7099C35.608 21.7707 35.6181 21.8357 35.6144 21.9006ZM34.7232 27.4553V23.119H35.5241V27.4553H34.7232Z" fill="#5C5C5C"/>
<path d="M37.8173 21.8733V23.1191H38.9639V23.7197H37.8173V26.0572C37.8173 26.5946 37.9719 26.8992 38.4184 26.8992C38.5747 26.9015 38.7307 26.8837 38.8823 26.8461L38.9187 27.4382C38.6912 27.5167 38.4509 27.5533 38.2099 27.546C38.0494 27.556 37.8885 27.5315 37.7385 27.4741C37.5885 27.4168 37.453 27.3281 37.3413 27.214C37.1137 26.9813 37.032 26.5963 37.032 26.0846V23.718H36.3493V23.1174H37.032V22.0786L37.8173 21.8733Z" fill="#5C5C5C"/>
<path d="M40.2547 25.4292C40.272 26.4953 40.9635 26.9351 41.7644 26.9351C42.1814 26.9476 42.5963 26.8711 42.9805 26.7109L43.1177 27.2756C42.6542 27.4657 42.1551 27.5573 41.6532 27.5443C40.2981 27.5443 39.4885 26.6664 39.4885 25.359C39.4885 24.0516 40.2703 23.0215 41.5524 23.0215C42.9892 23.0215 43.3714 24.2673 43.3714 25.0647C43.3698 25.1878 43.3605 25.3106 43.3436 25.4326L40.2547 25.4292ZM42.6017 24.8645C42.6104 24.3631 42.3933 23.5828 41.4916 23.5828C40.682 23.5828 40.3276 24.3169 40.2634 24.8645H42.6017Z" fill="#5C5C5C"/>
<path d="M46.2118 26.5055C46.6408 26.759 47.1309 26.8949 47.6312 26.899C48.4408 26.899 48.9133 26.4781 48.9133 25.8723C48.9133 25.3076 48.5867 24.9859 47.758 24.6744C46.7573 24.3322 46.1389 23.8188 46.1389 22.9632C46.1389 22.022 46.9293 21.3239 48.1211 21.3239C48.591 21.3081 49.0572 21.4099 49.4762 21.6199L49.2573 22.2565C48.8996 22.0668 48.4995 21.968 48.0933 21.969C47.2559 21.969 46.938 22.4618 46.938 22.8742C46.938 23.4389 47.3115 23.7162 48.1541 24.0396C49.1965 24.4332 49.7177 24.926 49.7177 25.8141C49.7177 26.745 49.0228 27.5527 47.5704 27.5527C47.0242 27.5593 46.4856 27.4267 46.0068 27.1677L46.2118 26.5055Z" fill="#5C5C5C"/>
<path d="M51.2778 25.4292C51.2969 26.4953 51.9866 26.9351 52.7875 26.9351C53.2045 26.9476 53.6194 26.8711 54.0036 26.7109L54.1409 27.2756C53.6773 27.4657 53.1783 27.5573 52.6763 27.5443C51.3212 27.5443 50.5117 26.6664 50.5117 25.359C50.5117 24.0516 51.2934 23.0215 52.5756 23.0215C54.0123 23.0215 54.3945 24.2673 54.3945 25.0647C54.3929 25.1878 54.3836 25.3106 54.3667 25.4326L51.2778 25.4292ZM53.6249 24.8645C53.6336 24.3631 53.4164 23.5828 52.5148 23.5828C51.7052 23.5828 51.3508 24.3169 51.2865 24.8645H53.6249Z" fill="#5C5C5C"/>
<path d="M59.1807 23.119C59.1616 23.4322 59.1442 23.7813 59.1442 24.3169V26.8341C59.1442 27.8283 58.9444 28.4375 58.5171 28.814C58.0897 29.1905 57.4747 29.3274 56.917 29.3274C56.4051 29.3404 55.899 29.2168 55.4525 28.9697L55.6523 28.3691C56.0427 28.5973 56.4891 28.7156 56.9431 28.7113C57.7614 28.7113 58.3625 28.2904 58.3625 27.1969V26.7109H58.3451C58.1983 26.9436 57.9911 27.1335 57.745 27.261C57.4989 27.3886 57.2227 27.4491 56.9448 27.4365C55.8538 27.4365 55.0703 26.5227 55.0703 25.3214C55.0703 23.8514 56.0432 23.0181 57.0525 23.0181C57.817 23.0181 58.2356 23.4117 58.4267 23.771H58.4441L58.4806 23.1173L59.1807 23.119ZM58.3538 24.8303C58.3584 24.7094 58.3432 24.5886 58.3086 24.4726C58.241 24.2319 58.0948 24.0198 57.8926 23.8692C57.6903 23.7185 57.4433 23.6377 57.1898 23.6392C56.4254 23.6392 55.8799 24.2758 55.8799 25.2786C55.8799 26.1342 56.3159 26.8375 57.1811 26.8375C57.4289 26.8362 57.6699 26.7574 57.8694 26.6126C58.0689 26.4678 58.2166 26.2643 58.2912 26.0315C58.3348 25.8954 58.3565 25.7533 58.3555 25.6106L58.3538 24.8303Z" fill="#5C5C5C"/>
<path d="M64.1563 26.271C64.1563 26.7193 64.165 27.1129 64.1928 27.4534H63.484L63.4388 26.745H63.411C63.2626 26.9944 63.0496 27.2004 62.7938 27.342C62.538 27.4837 62.2486 27.5558 61.9552 27.551C61.2603 27.551 60.4368 27.1745 60.4368 25.6515V23.1189H61.2377V25.5146C61.2377 26.3394 61.4931 26.8939 62.2192 26.8939C62.4472 26.89 62.6689 26.8198 62.8565 26.6923C63.0441 26.5647 63.1893 26.3854 63.2738 26.1769C63.3224 26.0476 63.3471 25.9108 63.3467 25.773V23.1189H64.1476L64.1563 26.271Z" fill="#5C5C5C"/>
<path d="M65.4836 24.4709C65.4836 23.9576 65.4749 23.5212 65.4471 23.1174H66.1421L66.1699 23.973H66.2063C66.4061 23.3912 66.8891 23.0232 67.4224 23.0232C67.4992 23.0224 67.5757 23.0316 67.65 23.0506V23.795C67.5605 23.7757 67.4689 23.7665 67.3773 23.7676C66.8126 23.7676 66.4131 24.1886 66.3036 24.7807C66.2811 24.9021 66.2689 25.0252 66.2671 25.1486V27.4605H65.4749L65.4836 24.4709Z" fill="#5C5C5C"/>
<path d="M72.3511 25.2512C72.3511 26.8547 71.2236 27.5546 70.1587 27.5546C68.9669 27.5546 68.0479 26.6989 68.0479 25.33C68.0479 23.8788 69.0121 23.0266 70.2299 23.0266C71.4947 23.0198 72.3511 23.925 72.3511 25.2512ZM68.8592 25.2957C68.8592 26.2455 69.4134 26.9625 70.1969 26.9625C70.9804 26.9625 71.5346 26.254 71.5346 25.2786C71.5346 24.5445 71.1611 23.6119 70.216 23.6119C69.2709 23.6119 68.8575 24.4709 68.8575 25.2957H68.8592Z" fill="#5C5C5C"/>
</svg>
