<svg width="14" height="14" viewBox="0 0 14 14" fill="none" xmlns="http://www.w3.org/2000/svg">
<g clip-path="url(#clip0_304_7293)">
<path d="M13.8291 13.0043L10.3472 9.52234C11.296 8.36185 11.7625 6.88106 11.6502 5.38625C11.5379 3.89144 10.8554 2.49698 9.74375 1.49131C8.63214 0.485634 7.17651 -0.0543103 5.67795 -0.0168418C4.1794 0.0206268 2.75257 0.632641 1.6926 1.69261C0.632633 2.75258 0.0206191 4.17941 -0.0168494 5.67796C-0.054318 7.17651 0.485626 8.63214 1.4913 9.74376C2.49697 10.8554 3.89143 11.5379 5.38624 11.6502C6.88105 11.7626 8.36184 11.296 9.52233 10.3472L13.0042 13.8291C13.1143 13.9353 13.2616 13.9941 13.4146 13.9928C13.5675 13.9915 13.7138 13.9301 13.822 13.822C13.9301 13.7138 13.9915 13.5675 13.9928 13.4146C13.9941 13.2616 13.9353 13.1143 13.8291 13.0043ZM5.83333 10.5C4.91035 10.5 4.0081 10.2263 3.24067 9.71353C2.47324 9.20075 1.8751 8.47191 1.52189 7.61919C1.16868 6.76647 1.07627 5.82816 1.25633 4.92291C1.43639 4.01767 1.88085 3.18615 2.5335 2.5335C3.18614 1.88086 4.01766 1.4364 4.92291 1.25634C5.82815 1.07627 6.76646 1.16869 7.61918 1.5219C8.47191 1.87511 9.20074 2.47324 9.71352 3.24067C10.2263 4.0081 10.5 4.91036 10.5 5.83334C10.4986 7.07059 10.0065 8.25676 9.13163 9.13163C8.25676 10.0065 7.07058 10.4986 5.83333 10.5Z" fill="white"/>
</g>
<defs>
<clipPath id="clip0_304_7293">
<rect width="14" height="14" fill="white"/>
</clipPath>
</defs>
</svg>
