<svg width="41" height="40" viewBox="0 0 41 40" fill="none" xmlns="http://www.w3.org/2000/svg">
<path d="M29.5831 9.09992C29.1875 9.09992 28.8008 9.21722 28.4719 9.43698C28.143 9.65674 27.8867 9.9691 27.7353 10.3346C27.5839 10.7 27.5443 11.1021 27.6215 11.4901C27.6987 11.8781 27.8891 12.2344 28.1688 12.5141C28.4485 12.7938 28.8049 12.9843 29.1929 13.0615C29.5808 13.1387 29.983 13.0991 30.3484 12.9477C30.7139 12.7963 31.0262 12.54 31.246 12.2111C31.4658 11.8822 31.5831 11.4955 31.5831 11.0999C31.5831 10.5695 31.3723 10.0608 30.9973 9.68571C30.6222 9.31063 30.1135 9.09992 29.5831 9.09992ZM37.2497 13.1333C37.2173 11.7504 36.9583 10.3823 36.4831 9.08325C36.0593 7.97181 35.3997 6.96538 34.5497 6.13325C33.7244 5.27896 32.7157 4.62355 31.5997 4.21659C30.3041 3.72685 28.9345 3.46194 27.5497 3.43325C25.7831 3.33325 25.2164 3.33325 20.6831 3.33325C16.1497 3.33325 15.5831 3.33325 13.8164 3.43325C12.4316 3.46194 11.062 3.72685 9.76639 4.21659C8.65252 4.62767 7.64461 5.28252 6.81639 6.13325C5.9621 6.95855 5.30668 7.96732 4.89972 9.08325C4.40999 10.3788 4.14507 11.7485 4.11639 13.1333C4.01639 14.8999 4.01639 15.4666 4.01639 19.9999C4.01639 24.5333 4.01639 25.0999 4.11639 26.8666C4.14507 28.2513 4.40999 29.621 4.89972 30.9166C5.30668 32.0325 5.9621 33.0413 6.81639 33.8666C7.64461 34.7173 8.65252 35.3722 9.76639 35.7833C11.062 36.273 12.4316 36.5379 13.8164 36.5666C15.5831 36.6666 16.1497 36.6666 20.6831 36.6666C25.2164 36.6666 25.7831 36.6666 27.5497 36.5666C28.9345 36.5379 30.3041 36.273 31.5997 35.7833C32.7157 35.3763 33.7244 34.7209 34.5497 33.8666C35.4035 33.0376 36.0636 32.0302 36.4831 30.9166C36.9583 29.6176 37.2173 28.2494 37.2497 26.8666C37.2497 25.0999 37.3497 24.5333 37.3497 19.9999C37.3497 15.4666 37.3497 14.8999 37.2497 13.1333ZM34.2497 26.6666C34.2376 27.7245 34.046 28.7728 33.6831 29.7666C33.4169 30.4919 32.9895 31.1473 32.4331 31.6833C31.8925 32.2341 31.2384 32.6606 30.5164 32.9333C29.5226 33.2962 28.4743 33.4878 27.4164 33.4999C25.7497 33.5833 25.1331 33.5999 20.7497 33.5999C16.3664 33.5999 15.7497 33.5999 14.0831 33.4999C12.9845 33.5205 11.8907 33.3513 10.8497 32.9999C10.1594 32.7134 9.53531 32.2879 9.01639 31.7499C8.4632 31.2145 8.04113 30.5586 7.78306 29.8333C7.37615 28.8252 7.15046 27.7532 7.11639 26.6666C7.11639 24.9999 7.01639 24.3833 7.01639 19.9999C7.01639 15.6166 7.01639 14.9999 7.11639 13.3333C7.12386 12.2517 7.32131 11.1798 7.69972 10.1666C7.99313 9.4631 8.4435 8.83602 9.01639 8.33325C9.52274 7.7602 10.1485 7.30508 10.8497 6.99992C11.8656 6.63332 12.9364 6.44172 14.0164 6.43325C15.6831 6.43325 16.2997 6.33325 20.6831 6.33325C25.0664 6.33325 25.6831 6.33325 27.3497 6.43325C28.4077 6.44539 29.4559 6.637 30.4497 6.99992C31.2071 7.28101 31.8869 7.738 32.4331 8.33325C32.9792 8.84522 33.406 9.47114 33.6831 10.1666C34.0535 11.1815 34.2452 12.2529 34.2497 13.3333C34.3331 14.9999 34.3497 15.6166 34.3497 19.9999C34.3497 24.3833 34.3331 24.9999 34.2497 26.6666ZM20.6831 11.4499C18.9927 11.4532 17.3413 11.9575 15.9375 12.8989C14.5336 13.8404 13.4404 15.1769 12.7958 16.7395C12.1512 18.3021 11.9843 20.0207 12.316 21.6781C12.6478 23.3356 13.4634 24.8575 14.6598 26.0515C15.8562 27.2456 17.3797 28.0583 19.0378 28.3868C20.6959 28.7154 22.4142 28.5451 23.9755 27.8975C25.5368 27.2499 26.8712 26.154 27.8099 24.7483C28.7487 23.3426 29.2497 21.6902 29.2497 19.9999C29.2519 18.8751 29.0317 17.7609 28.6018 16.7215C28.1718 15.6821 27.5407 14.7379 26.7445 13.9433C25.9484 13.1487 25.003 12.5194 23.9627 12.0915C22.9225 11.6636 21.8079 11.4455 20.6831 11.4499ZM20.6831 25.5499C19.5854 25.5499 18.5123 25.2244 17.5996 24.6146C16.6869 24.0047 15.9756 23.1379 15.5555 22.1238C15.1355 21.1097 15.0255 19.9938 15.2397 18.9172C15.4538 17.8406 15.9824 16.8517 16.7586 16.0755C17.5348 15.2993 18.5237 14.7707 19.6003 14.5566C20.6769 14.3424 21.7928 14.4523 22.8069 14.8724C23.8211 15.2925 24.6879 16.0038 25.2977 16.9165C25.9076 17.8292 26.2331 18.9022 26.2331 19.9999C26.2331 20.7288 26.0895 21.4505 25.8106 22.1238C25.5317 22.7972 25.1229 23.409 24.6075 23.9244C24.0921 24.4397 23.4803 24.8485 22.8069 25.1275C22.1336 25.4064 21.4119 25.5499 20.6831 25.5499Z" fill="#F9E547"/>
</svg>
