<svg width="43" height="44" viewBox="0 0 43 44" fill="none" xmlns="http://www.w3.org/2000/svg">
<path d="M29.3717 30.341V18.714C29.3717 18.3854 29.2412 18.0703 29.0088 17.8379C28.7765 17.6056 28.4613 17.475 28.1327 17.475H28.1037V15.16C28.1142 14.3249 27.9588 13.496 27.6465 12.7214C27.3342 11.9468 26.8712 11.2419 26.2844 10.6476C25.6975 10.0534 24.9985 9.58153 24.2279 9.25948C23.4573 8.93744 22.6304 8.77161 21.7952 8.77161C20.96 8.77161 20.1332 8.93744 19.3625 9.25948C18.5919 9.58153 17.8929 10.0534 17.3061 10.6476C16.7193 11.2419 16.2563 11.9468 15.9439 12.7214C15.6316 13.496 15.4762 14.3249 15.4867 15.16V17.475H15.4587C15.1302 17.4753 14.8152 17.6059 14.5829 17.8382C14.3506 18.0705 14.22 18.3855 14.2197 18.714V30.341C14.22 30.6696 14.3506 30.9846 14.5829 31.2169C14.8152 31.4492 15.1302 31.5798 15.4587 31.58H28.1317C28.2945 31.5802 28.4557 31.5482 28.6062 31.486C28.7566 31.4238 28.8933 31.3326 29.0085 31.2175C29.1236 31.1024 29.215 30.9658 29.2773 30.8154C29.3397 30.665 29.3717 30.5038 29.3717 30.341ZM16.7037 19.953H26.8977V29.101H16.7037V19.953ZM17.9707 15.159C17.9625 14.6509 18.0555 14.1463 18.2443 13.6745C18.433 13.2027 18.7138 12.7731 19.0702 12.4109C19.4266 12.0487 19.8516 11.761 20.3203 11.5646C20.789 11.3683 21.2921 11.2672 21.8002 11.2672C22.3084 11.2672 22.8115 11.3683 23.2802 11.5646C23.7489 11.761 24.1738 12.0487 24.5302 12.4109C24.8867 12.7731 25.1674 13.2027 25.3562 13.6745C25.545 14.1463 25.6379 14.6509 25.6297 15.159V17.474H17.9707V15.159Z" fill="#212529"/>
<path d="M23.0358 24.338C23.0358 24.0093 22.9052 23.694 22.6727 23.4615C22.4403 23.2291 22.125 23.0985 21.7963 23.0985C21.4675 23.0985 21.1523 23.2291 20.9198 23.4615C20.6873 23.694 20.5568 24.0093 20.5568 24.338V25.881C20.5568 26.2097 20.6873 26.525 20.9198 26.7575C21.1523 26.9899 21.4675 27.1205 21.7963 27.1205C22.125 27.1205 22.4403 26.9899 22.6727 26.7575C22.9052 26.525 23.0358 26.2097 23.0358 25.881V24.338Z" fill="#212529"/>
<path d="M36.7537 6.91597C34.6931 4.84974 32.2272 3.2322 29.5112 2.16506C26.7952 1.09791 23.8878 0.604246 20.9718 0.715099C18.0557 0.825951 15.1942 1.53892 12.567 2.80919C9.93985 4.07945 7.60392 5.87953 5.7061 8.09624C3.80828 10.313 2.38961 12.8983 1.53931 15.6899C0.689001 18.4814 0.425449 21.4186 0.765222 24.3169C1.10499 27.2152 2.04074 30.0118 3.51363 32.531C4.98651 35.0501 6.96467 37.2373 9.32373 38.955L8.92373 39.088C8.76481 39.1357 8.61708 39.2148 8.4893 39.3207C8.36151 39.4265 8.25628 39.557 8.17982 39.7042C8.10336 39.8515 8.05724 40.0126 8.04419 40.178C8.03114 40.3435 8.05142 40.5098 8.10383 40.6673C8.15624 40.8247 8.23972 40.97 8.34932 41.0946C8.45892 41.2192 8.59241 41.3205 8.74188 41.3926C8.89135 41.4646 9.05376 41.5059 9.2195 41.5141C9.38523 41.5222 9.55091 41.497 9.70673 41.44L12.4277 40.534C12.6704 40.4532 12.8822 40.2993 13.034 40.0934C13.1858 39.8875 13.2703 39.6397 13.2757 39.384L13.3427 36.516C13.3493 36.3513 13.323 36.1869 13.2654 36.0325C13.2077 35.8781 13.1199 35.7367 13.0069 35.6166C12.894 35.4965 12.7582 35.4002 12.6076 35.3332C12.457 35.2662 12.2945 35.23 12.1297 35.2265C11.9649 35.2231 11.8011 35.2525 11.6478 35.3131C11.4945 35.3737 11.3548 35.4643 11.237 35.5795C11.1191 35.6947 11.0254 35.8323 10.9613 35.9841C10.8972 36.136 10.864 36.2991 10.8637 36.464L10.8527 36.998C7.24945 34.3903 4.69529 30.5821 3.64993 26.2588C2.60458 21.9355 3.1367 17.381 5.15052 13.4152C7.16434 9.44927 10.5276 6.33243 14.635 4.62561C18.7423 2.91879 23.324 2.73409 27.5555 4.10476C31.7869 5.47542 35.3901 8.31142 37.7166 12.1023C40.0432 15.8932 40.9402 20.3901 40.2462 24.7835C39.5522 29.1769 37.3129 33.1783 33.9312 36.0676C30.5495 38.9569 26.2476 40.5442 21.7997 40.544C21.471 40.544 21.1557 40.6746 20.9233 40.907C20.6908 41.1395 20.5602 41.4547 20.5602 41.7835C20.5602 42.1122 20.6908 42.4275 20.9233 42.6599C21.1557 42.8924 21.471 43.023 21.7997 43.023C25.9824 43.0216 30.0708 41.7803 33.5481 39.4559C37.0255 37.1315 39.7356 33.8283 41.3361 29.964C42.9365 26.0996 43.3554 21.8475 42.5398 17.7451C41.7242 13.6427 39.7106 9.87425 36.7537 6.91597Z" fill="#212529"/>
</svg>
