<svg width="216" height="70" viewBox="0 0 216 70" fill="none" xmlns="http://www.w3.org/2000/svg">
<g clip-path="url(#clip0_304_1008)">
<path d="M88.798 53.5109C88.3923 53.7484 87.9176 53.8632 87.3664 53.8632C86.6162 53.8632 86.0114 53.6258 85.552 53.1586C85.0927 52.6915 84.863 52.0864 84.863 51.3359C84.863 50.5087 85.108 49.8348 85.6056 49.3293C86.1032 48.8238 86.7616 48.5711 87.5884 48.5711C88.0478 48.5711 88.4535 48.6554 88.8057 48.8085V49.8731C88.4535 49.6127 88.0784 49.4825 87.6803 49.4825C87.198 49.4825 86.7999 49.6433 86.4937 49.9726C86.1875 50.302 86.0267 50.7308 86.0267 51.2593C86.0267 51.7877 86.1721 52.1936 86.4631 52.5C86.754 52.7987 87.1444 52.9519 87.6344 52.9519C88.0478 52.9519 88.4306 52.8063 88.798 52.5153V53.5109Z" fill="#B6CBD8"/>
<path d="M99.7686 49.4901C99.3246 49.4901 98.9648 49.6433 98.7121 49.9573C98.4518 50.2713 98.3217 50.7002 98.3217 51.2516C98.3217 51.8031 98.4518 52.1937 98.7198 52.5C98.9801 52.8063 99.3322 52.9595 99.7763 52.9595C100.22 52.9595 100.572 52.8063 100.81 52.5153C101.055 52.2166 101.17 51.7877 101.17 51.2363C101.17 50.6849 101.047 50.256 100.81 49.9497C100.572 49.6433 100.22 49.4978 99.7763 49.4978L99.7686 49.4901ZM99.7227 53.8632C98.9494 53.8632 98.3217 53.6258 97.8623 53.1586C97.3953 52.6915 97.1657 52.0635 97.1657 51.2823C97.1657 50.4322 97.4107 49.7735 97.893 49.2987C98.3753 48.8238 99.026 48.5864 99.8528 48.5864C100.68 48.5864 101.254 48.8162 101.69 49.2834C102.134 49.7429 102.349 50.3862 102.349 51.2057C102.349 52.0252 102.111 52.6532 101.637 53.1433C101.162 53.6258 100.527 53.8709 99.7227 53.8709V53.8632Z" fill="#B6CBD8"/>
<path d="M110.731 53.5875V52.5306C111.16 52.8599 111.627 53.0208 112.148 53.0208C112.837 53.0208 113.181 52.814 113.181 52.4081C113.181 52.2932 113.151 52.1936 113.089 52.1171C113.028 52.0328 112.952 51.9639 112.852 51.9026C112.753 51.8413 112.63 51.7877 112.5 51.7341C112.362 51.6805 112.209 51.6269 112.041 51.5656C111.834 51.4814 111.65 51.3971 111.482 51.3052C111.313 51.2133 111.176 51.1061 111.068 50.9912C110.961 50.8764 110.877 50.7462 110.823 50.593C110.77 50.4475 110.739 50.2713 110.739 50.0722C110.739 49.8271 110.793 49.6127 110.908 49.4289C111.022 49.2451 111.176 49.0842 111.375 48.9617C111.566 48.8392 111.788 48.7396 112.033 48.6783C112.278 48.6171 112.531 48.5788 112.799 48.5788C113.266 48.5788 113.679 48.6477 114.054 48.7932V49.7888C113.702 49.5438 113.288 49.4289 112.829 49.4289C112.684 49.4289 112.554 49.4442 112.439 49.4748C112.324 49.5055 112.224 49.5438 112.14 49.5974C112.056 49.651 111.995 49.7122 111.949 49.7888C111.903 49.8654 111.88 49.942 111.88 50.0339C111.88 50.1411 111.903 50.233 111.949 50.3096C111.995 50.3862 112.064 50.4551 112.155 50.5087C112.247 50.5624 112.354 50.616 112.485 50.6619C112.607 50.7079 112.753 50.7615 112.921 50.8151C113.135 50.8993 113.334 50.9912 113.503 51.0831C113.679 51.175 113.824 51.2823 113.947 51.3971C114.069 51.512 114.161 51.6499 114.23 51.8031C114.299 51.9562 114.33 52.14 114.33 52.3468C114.33 52.5996 114.268 52.8293 114.154 53.0131C114.039 53.2046 113.878 53.3578 113.679 53.488C113.48 53.6105 113.258 53.7024 112.998 53.7637C112.737 53.8249 112.469 53.8556 112.178 53.8556C111.627 53.8556 111.153 53.7637 110.747 53.5799" fill="#B6CBD8"/>
<path d="M130.483 53.7407H129.342V50.9912C129.342 50.4628 129.266 50.0799 129.12 49.8424C128.967 49.605 128.722 49.4901 128.362 49.4901C128.064 49.4901 127.811 49.6433 127.605 49.9343C127.398 50.233 127.291 50.593 127.291 51.0065V53.733H126.142V50.8917C126.142 49.9497 125.813 49.4825 125.147 49.4825C124.841 49.4825 124.581 49.6203 124.389 49.9037C124.19 50.1871 124.091 50.5547 124.091 50.9989V53.7254H122.95V48.6783H124.091V49.4748H124.114C124.481 48.8621 125.009 48.5558 125.706 48.5558C126.05 48.5558 126.357 48.6553 126.617 48.8468C126.877 49.0383 127.053 49.291 127.153 49.605C127.528 48.9081 128.087 48.5634 128.829 48.5634C129.94 48.5634 130.491 49.2451 130.491 50.616V53.7254L130.483 53.7407Z" fill="#B6CBD8"/>
<path d="M142.931 46.128L141.523 47.744H140.673L141.867 46.128H142.931ZM142.594 50.7232C142.594 50.3096 142.495 49.9956 142.303 49.7659C142.112 49.5361 141.852 49.4212 141.515 49.4212C141.178 49.4212 140.91 49.5438 140.68 49.7812C140.451 50.0186 140.313 50.3326 140.259 50.7232H142.594ZM143.697 51.535H140.259C140.275 52.0022 140.412 52.3621 140.688 52.6149C140.964 52.8676 141.339 52.9978 141.821 52.9978C142.357 52.9978 142.855 52.837 143.306 52.5153V53.4343C142.847 53.7254 142.242 53.8709 141.484 53.8709C140.726 53.8709 140.16 53.6411 139.739 53.1816C139.318 52.7221 139.103 52.0788 139.103 51.244C139.103 50.4551 139.333 49.8195 139.8 49.3217C140.267 48.8238 140.841 48.5788 141.53 48.5788C142.219 48.5788 142.755 48.8009 143.13 49.2451C143.505 49.6893 143.697 50.302 143.697 51.0908V51.5273V51.535Z" fill="#B6CBD8"/>
<path d="M154.989 53.6871C154.767 53.7943 154.476 53.8556 154.108 53.8556C153.129 53.8556 152.639 53.3884 152.639 52.4464V49.5974H151.796V48.7013H152.639V47.5372L153.779 47.2079V48.7013H154.981V49.5974H153.779V52.1171C153.779 52.4158 153.833 52.6302 153.94 52.7604C154.047 52.8906 154.231 52.9519 154.484 52.9519C154.675 52.9519 154.843 52.8982 154.981 52.7834V53.6871H154.989Z" fill="#B6CBD8"/>
<path d="M164.666 53.7407H163.525V48.6936H164.666V53.7407ZM164.099 47.6367C163.915 47.6367 163.755 47.5755 163.617 47.4529C163.479 47.3304 163.418 47.1772 163.418 46.9858C163.418 46.7943 163.487 46.6411 163.617 46.5186C163.747 46.396 163.908 46.3348 164.099 46.3348C164.291 46.3348 164.459 46.396 164.589 46.5186C164.727 46.6411 164.788 46.802 164.788 46.9858C164.788 47.1696 164.719 47.3151 164.589 47.4453C164.451 47.5678 164.291 47.6367 164.099 47.6367Z" fill="#B6CBD8"/>
<path d="M177.32 53.5109C176.915 53.7484 176.44 53.8632 175.889 53.8632C175.139 53.8632 174.534 53.6258 174.074 53.1586C173.615 52.6915 173.385 52.0864 173.385 51.3359C173.385 50.5087 173.63 49.8348 174.128 49.3293C174.626 48.8238 175.284 48.5711 176.111 48.5711C176.57 48.5711 176.976 48.6554 177.328 48.8085V49.8731C176.976 49.6127 176.601 49.4825 176.203 49.4825C175.72 49.4825 175.322 49.6433 175.016 49.9726C174.71 50.302 174.549 50.7308 174.549 51.2593C174.549 51.7877 174.695 52.1936 174.985 52.5C175.276 52.7987 175.667 52.9519 176.157 52.9519C176.57 52.9519 176.953 52.8063 177.32 52.5153V53.5109Z" fill="#B6CBD8"/>
<path d="M188.291 49.4901C187.847 49.4901 187.487 49.6433 187.235 49.9573C186.974 50.2713 186.844 50.7002 186.844 51.2516C186.844 51.8031 186.974 52.1937 187.242 52.5C187.502 52.8063 187.855 52.9595 188.299 52.9595C188.743 52.9595 189.095 52.8063 189.332 52.5153C189.577 52.2166 189.692 51.7877 189.692 51.2363C189.692 50.6849 189.57 50.256 189.332 49.9497C189.095 49.6433 188.743 49.4978 188.299 49.4978L188.291 49.4901ZM188.245 53.8632C187.472 53.8632 186.844 53.6258 186.385 53.1586C185.918 52.6915 185.688 52.0635 185.688 51.2823C185.688 50.4322 185.933 49.7735 186.415 49.2987C186.898 48.8238 187.548 48.5864 188.375 48.5864C189.202 48.5864 189.776 48.8162 190.213 49.2834C190.657 49.7429 190.871 50.3862 190.871 51.2057C190.871 52.0252 190.634 52.6532 190.159 53.1433C189.684 53.6258 189.049 53.8709 188.245 53.8709V53.8632Z" fill="#B6CBD8"/>
<path d="M199.254 53.5875V52.5306C199.683 52.8599 200.15 53.0208 200.67 53.0208C201.359 53.0208 201.704 52.814 201.704 52.4081C201.704 52.2932 201.673 52.1936 201.612 52.1171C201.551 52.0328 201.474 51.9639 201.375 51.9026C201.275 51.8413 201.153 51.7877 201.022 51.7341C200.885 51.6805 200.731 51.6269 200.563 51.5656C200.356 51.4814 200.173 51.3971 200.004 51.3052C199.836 51.2133 199.698 51.1061 199.591 50.9912C199.484 50.8764 199.399 50.7462 199.346 50.593C199.292 50.4475 199.262 50.2713 199.262 50.0722C199.262 49.8271 199.315 49.6127 199.43 49.4289C199.545 49.2451 199.698 49.0842 199.897 48.9617C200.088 48.8392 200.31 48.7396 200.555 48.6783C200.8 48.6171 201.053 48.5788 201.321 48.5788C201.788 48.5788 202.201 48.6477 202.576 48.7932V49.7888C202.224 49.5438 201.811 49.4289 201.352 49.4289C201.206 49.4289 201.076 49.4442 200.961 49.4748C200.846 49.5055 200.747 49.5438 200.663 49.5974C200.578 49.651 200.517 49.7122 200.471 49.7888C200.425 49.8654 200.402 49.942 200.402 50.0339C200.402 50.1411 200.425 50.233 200.471 50.3096C200.517 50.3862 200.586 50.4551 200.678 50.5087C200.77 50.5624 200.877 50.616 201.007 50.6619C201.13 50.7079 201.275 50.7615 201.443 50.8151C201.658 50.8993 201.857 50.9912 202.025 51.0831C202.201 51.175 202.347 51.2823 202.469 51.3971C202.592 51.512 202.684 51.6499 202.753 51.8031C202.821 51.9562 202.852 52.14 202.852 52.3468C202.852 52.5996 202.791 52.8293 202.676 53.0131C202.561 53.2046 202.4 53.3578 202.201 53.488C202.002 53.6105 201.78 53.7024 201.52 53.7637C201.26 53.8249 200.992 53.8556 200.701 53.8556C200.15 53.8556 199.675 53.7637 199.269 53.5799" fill="#B6CBD8"/>
<path d="M107.271 32.2735C107.271 33.6521 107.409 35.0383 107.723 36.1794C108.381 38.768 112.416 40.0853 116.496 40.0853C120.577 40.0853 124.573 38.8063 125.231 36.2484C125.476 35.2834 125.614 34.3796 125.614 33.5219C125.614 30.6882 124.818 28.6893 121.021 27.5788C123.539 26.6138 124.336 25.2659 124.336 23.0219C124.336 22.3632 124.228 21.7122 124.022 20.9464C123.432 18.802 119.604 17.8063 115.907 17.8063C112.209 17.8063 108.795 18.6028 107.271 20.5022V32.2812V32.2735ZM116.458 28.4748H116.496C119.918 28.4748 121.61 30.2363 121.61 33.5219C121.61 36.8074 119.811 38.5996 116.496 38.5996C114.184 38.5996 111.941 37.5656 111.558 35.4595C111.382 34.5252 111.313 33.384 111.313 32.2812V28.4825H116.458V28.4748ZM117.599 19.3534C119.911 19.6674 120.875 20.7319 120.875 23.0142C120.875 25.2965 119.497 26.8818 116.734 26.9891H111.313V19.9048C112.485 19.4912 114.008 19.2845 116.006 19.2845C116.596 19.2845 117.147 19.2845 117.599 19.3534Z" fill="#A972A2"/>
<path d="M137.695 17.7987H137.036C133.408 17.7987 129.993 18.5952 128.508 20.4945V32.2735C128.508 33.6904 128.646 35.0689 128.96 36.279C129.618 38.768 133.653 40.047 137.733 40.047C139.946 40.047 142.189 39.6641 143.842 38.8753L142.74 37.5656C141.392 38.2549 139.563 38.5689 137.733 38.5689C135.49 38.5689 133.14 37.535 132.795 35.5284C132.657 34.5634 132.55 33.4223 132.55 32.2812V28.4825H140.351V26.9967H132.55V19.9125C133.721 19.4989 135.207 19.2921 137.212 19.2921H142.839V17.8063H137.695V17.7987Z" fill="#A972A2"/>
<path d="M146.185 17.9365V39.7024H157.821V38.2549H150.227V18.4573L146.185 17.9365Z" fill="#A972A2"/>
<path d="M169.19 17.7987H168.532C164.903 17.7987 161.489 18.5952 160.003 20.4945V32.2735C160.003 33.6904 160.141 35.0689 160.455 36.279C161.113 38.768 165.148 40.047 169.228 40.047C171.441 40.047 173.684 39.6641 175.338 38.8753L174.235 37.5656C172.888 38.2549 171.058 38.5689 169.228 38.5689C166.985 38.5689 164.635 37.535 164.29 35.5284C164.153 34.5634 164.045 33.4223 164.045 32.2812V28.4825H171.847V26.9967H164.045V19.9125C165.217 19.4989 166.702 19.2921 168.708 19.2921H174.335V17.8063H169.19V17.7987Z" fill="#A972A2"/>
<path d="M189.248 19.6291L177.68 39.7024H194.186V38.2549H183.208L194.775 18.1816H178.476V19.6291H189.248Z" fill="#A972A2"/>
<path d="M211.105 25.2965V29.302H201.78V19.9048C202.99 19.4912 204.475 19.2844 205.922 19.2844C208.203 19.2844 210.477 20.3184 210.829 22.3249C211.005 23.221 211.074 24.2626 211.105 25.2965ZM215.147 39.7024V25.2965C215.109 23.9869 214.971 22.6696 214.665 21.5667C213.524 17.0405 200.854 16.5197 197.746 20.4945V39.7024H201.788V30.826H211.113V39.7024H215.155H215.147Z" fill="#A972A2"/>
<path d="M72.0857 17.9365V39.7024H76.1279V30.0984L77.1614 31.1324L85.7281 39.7024H91.4622L80.0323 28.268L86.8382 21.4595L90.1148 18.1739H88.0401L76.1279 30.0908V18.4497L72.0857 17.9289V17.9365Z" fill="#B6CBD8"/>
<path d="M93.8048 17.9365V39.7024H97.847V18.4573L93.8048 17.9365Z" fill="#B6CBD8"/>
<path d="M104.462 28.7122H100.404V30.4967H104.462V28.7122Z" fill="#B6CBD8"/>
<path d="M52.6097 39.9245C47.4804 43.6772 39.6793 46.4267 33.5318 47.7899C33.6007 47.3381 33.9988 43.5317 32.2992 42.4978C35.7136 42.1991 37.8649 41.9004 40.2611 38.4617C40.2611 38.4617 39.5874 39.2122 38.1252 39.2965C34.0141 39.6564 34.4428 36.1718 37.084 33.9048C39.4802 31.5076 44.9157 32.0897 49.2871 27.5328C51.4307 25.2276 53.3906 20.6094 53.8269 18.1663C55.5724 21.8118 53.6968 25.465 53.6968 29.1105C53.6968 30.9332 55.0059 31.8063 56.338 33.2308C56.6213 33.5372 57.494 34.0044 57.4787 34.0656C57.1648 35.1378 55.3045 38.1783 52.6097 39.9322" fill="#A972A2"/>
<path d="M33.5548 47.6138C39.7023 46.2505 46.8756 43.3173 52.0049 39.5645C54.4624 37.9562 55.9169 35.6357 57.1265 34.0427C57.3562 33.7363 57.2337 34.1805 59.5228 35.0459C60.4108 36.302 58.9103 39.5875 56.805 39.3961C55.381 39.7024 56.0854 41.6094 57.9074 41.7932C57.9074 41.7932 57.8615 43.7079 56.5677 45.4157C56.5677 45.4157 57.5246 46.0744 57.3868 47.9661C56.7591 48.4792 56.1849 48.2954 55.5112 48.9464C55.6567 50.3709 57.0883 51.3818 55.2356 54.0624C53.9188 55.9617 43.7521 50.0722 40.774 52.814C40.1233 53.4114 39.4573 54.2921 39.0821 55.0886C37.3443 58.7571 37.4132 65.8796 42.2592 69.3413C42.2899 69.3643 42.3281 69.3873 42.3588 69.4103C42.42 69.4562 42.3894 69.4409 42.3894 69.4409H42.3588C42.3588 69.4409 42.3052 69.4715 42.2746 69.4869C36.7089 71.4781 32.5825 67.3807 29.4207 63.2144C26.3661 59.1936 27.0704 54.675 27.4149 53.8096C31.281 53.151 33.2792 50.5011 33.5394 47.6214" fill="#A972A2"/>
<path d="M43.9129 2.221C40.1386 -0.88075 33.7155 -0.71226 32.1078 2.59627C31.0131 5.01641 34.573 8.05689 36.4945 7.44419C37.2907 7.19146 37.5663 6.43325 37.5204 5.66739C37.4362 4.28118 36.0658 4.23522 36.0658 4.23522C37.2142 4.62581 36.3414 5.52953 35.4763 5.15426C32.5519 3.69146 39.5338 -0.183813 41.0037 4.88621C41.3635 6.11925 41.065 6.96936 40.0621 7.94201C39.396 8.59299 38.4314 9.11378 37.1912 9.11378C32.8428 9.11378 25.279 7.39824 22.1861 6.94638C5.75706 4.51093 12.3486 31.186 9.04134 34.2188C6.57622 36.9759 5.01446 30.581 5.01446 30.581C1.14835 42.5131 16.4291 43.5011 20.3258 37.9792C24.2225 32.4343 16.2606 26.6904 16.896 15.8457C17.1028 12.8129 18.588 11.2505 20.4712 10.2702C23.2809 8.80743 25.6235 8.60831 28.747 9.10612C34.5577 10.0252 41.5779 12.9201 44.6172 10.3392C47.1206 8.21772 46.4086 4.27352 43.9129 2.22866" fill="#A972A2"/>
<path d="M52.0355 15.302C52.0355 15.302 52.2575 28.0842 41.0114 30.3665C29.7652 32.6565 33.1567 41.2954 37.8266 40.0164C37.8266 40.0164 30.9748 43.8457 28.2341 35.942C26.3125 29.4092 28.0044 20.6937 33.9376 21.4748C37.9338 21.9037 50.1599 27.0733 52.0355 15.2943" fill="#B6CBD8"/>
<path d="M51.3312 13.7473C51.3312 13.7473 51.2929 18.2046 48.2 20.2495C42.5884 23.4431 25.8072 10.6379 26.9403 30.8184C23.0512 26.2462 22.3698 14.5055 29.658 14.0077C36.8008 13.5252 49.0192 22.6543 51.3312 13.7396" fill="#A972A2"/>
<path d="M8.06141 33.2768C8.00782 31.5996 6.15515 27.6477 4.0575 29.5317C1.79908 31.5689 0.436371 40.1313 6.6298 42.337C15.5486 45.5153 17.6846 41.5711 22.8292 40.0394C24.6665 39.4956 26.0446 39.7254 27.1393 40.2079C35.3003 43.7462 31.5566 51.6346 27.4762 51.3052C27.4762 51.3052 30.2705 48.6783 28.4867 47.3151C26.3278 45.6149 22.6761 51.6269 15.273 53.2123C13.4357 53.6028 12.4098 53.6947 10.6107 53.1816C2.05937 50.7309 -3.06227 37.6116 2.01344 30.849C3.26131 29.1871 6.20109 26.9814 7.86236 29.256C8.82698 30.581 8.68152 31.7834 8.06141 33.2691" fill="#B6CBD8"/>
<path d="M46.0718 1.50108C50.2288 3.96717 51.0786 15.9453 38.1329 13.1116C32.1002 11.7943 23.9163 9.35885 21.321 12.6674C20.3947 13.8545 19.476 15.3785 19.1162 18.2888C17.0798 29.7768 28.8542 34.1575 21.0378 39.6641C21.0378 39.6641 28.4102 38.3621 24.3144 29.4551C21.1373 22.4168 22.5459 16.872 26.5269 14.1608C30.2016 11.6564 39.4803 15.4322 44.066 15.8227C49.4479 16.3129 52.3954 13.7779 52.2729 8.30962C52.1657 3.74507 46.0718 1.50108 46.0718 1.50108Z" fill="#B6CBD8"/>
</g>
<defs>
<clipPath id="clip0_304_1008">
<rect width="215.147" height="70" fill="white"/>
</clipPath>
</defs>
</svg>
