<svg width="128" height="128" viewBox="0 0 128 128" fill="none" xmlns="http://www.w3.org/2000/svg">
<g clip-path="url(#clip0_8_68)">
<path d="M105.234 72.9994C95.8513 79.861 81.5818 84.8882 70.3371 87.3808C70.4631 86.5546 71.1913 79.595 68.0826 77.7045C74.3281 77.1584 78.263 76.6122 82.6461 70.3247C82.6461 70.3247 81.4138 71.697 78.7391 71.8511C71.2193 72.5092 72.0035 66.1377 76.8347 61.9927C81.2177 57.6096 91.1601 58.6739 99.1561 50.3419C103.077 46.1269 106.662 37.6828 107.46 33.2158C110.653 39.8814 107.222 46.561 107.222 53.2266C107.222 56.5594 109.617 58.1558 112.053 60.7604C112.571 61.3205 114.168 62.1747 114.14 62.2868C113.566 64.2472 110.163 69.8066 105.234 73.0134" fill="#A972A2"/>
<path d="M70.3791 87.0588C81.6238 84.5662 94.745 79.2029 104.127 72.3412C108.622 69.4005 111.283 65.1575 113.496 62.2448C113.916 61.6847 113.692 62.4969 117.879 64.0792C119.503 66.3758 116.758 72.3833 112.907 72.0332C110.303 72.5933 111.591 76.0801 114.924 76.4162C114.924 76.4162 114.84 79.9171 112.473 83.0398C112.473 83.0398 114.224 84.2441 113.972 87.703C112.823 88.6412 111.773 88.3051 110.541 89.4954C110.807 92.1 113.426 93.9485 110.037 98.8496C107.628 102.322 89.0316 91.5539 83.5843 96.5671C82.394 97.6594 81.1757 99.2697 80.4896 100.726C77.3108 107.434 77.4368 120.457 86.301 126.786C86.357 126.828 86.427 126.87 86.483 126.912C86.5951 126.996 86.539 126.968 86.539 126.968H86.483C86.483 126.968 86.385 127.024 86.329 127.052C76.1485 130.693 68.6007 123.202 62.8173 115.584C57.23 108.232 58.5183 99.9699 59.1484 98.3875C66.2201 97.1832 69.875 92.3381 70.3511 87.0728" fill="#A972A2"/>
<path d="M89.3257 4.06074C82.4221 -1.61063 70.6732 -1.30255 67.7325 4.74691C65.73 9.17198 72.2416 14.7313 75.7565 13.611C77.2128 13.1489 77.7169 11.7626 77.6329 10.3623C77.4789 7.82765 74.9723 7.74363 74.9723 7.74363C77.0728 8.4578 75.4764 10.1102 73.894 9.42404C68.5447 6.74939 81.3158 -0.336318 84.0045 8.93392C84.6626 11.1885 84.1165 12.7428 82.282 14.5213C81.0638 15.7116 79.2993 16.6638 77.0308 16.6638C69.0769 16.6638 55.2415 13.527 49.5841 12.7008C19.5329 8.24775 31.5898 57.0215 25.5403 62.5669C21.0313 67.6081 18.1746 55.9153 18.1746 55.9153C11.1029 77.7325 39.0536 79.539 46.1813 69.4425C53.309 59.3041 38.7455 48.8015 39.9078 28.9728C40.2859 23.4274 43.0026 20.5707 46.4474 18.7783C51.5866 16.1036 55.8717 15.7396 61.585 16.6498C72.2136 18.3302 85.0547 23.6235 90.6141 18.9043C95.1932 15.0254 93.8908 7.81365 89.3257 4.07475" fill="#A972A2"/>
<path d="M104.183 27.9785C104.183 27.9785 104.589 51.3502 84.0185 55.5232C63.4475 59.7102 69.651 75.506 78.1931 73.1674C78.1931 73.1674 65.66 80.1691 60.6468 65.7176C57.132 53.7727 60.2267 37.8369 71.0793 39.2652C78.3891 40.0494 100.753 49.5017 104.183 27.9645" fill="#B6CBD8"/>
<path d="M102.895 25.1358C102.895 25.1358 102.825 33.2858 97.1676 37.0247C86.9031 42.8641 56.2077 19.4505 58.2802 56.3494C51.1665 47.9893 49.9202 26.5222 63.2514 25.6119C76.3166 24.7297 98.666 41.4218 102.895 25.1218" fill="#A972A2"/>
<path d="M23.7479 60.8444C23.6499 57.7777 20.2611 50.552 16.4241 53.9968C12.2931 57.7217 9.80053 73.3775 21.1293 77.4104C37.4432 83.2218 41.3501 76.0101 50.7604 73.2094C54.1212 72.2152 56.6418 72.6353 58.6443 73.5175C73.5719 79.9871 66.7243 94.4105 59.2605 93.8084C59.2605 93.8084 64.3717 89.0052 61.1089 86.5126C57.16 83.4039 50.4804 94.3965 36.9391 97.2952C33.5783 98.0094 31.7018 98.1775 28.411 97.2392C12.7692 92.7581 3.40099 68.7703 12.6852 56.4054C14.9678 53.3666 20.3451 49.3337 23.3838 53.4927C25.1482 55.9152 24.8822 58.1138 23.7479 60.8304" fill="#B6CBD8"/>
<path d="M93.2747 2.74445C100.879 7.25353 102.433 29.1548 78.7532 23.9736C67.7185 21.565 52.7489 17.1119 48.0018 23.1614C46.3074 25.3319 44.627 28.1186 43.9688 33.4399C40.2439 54.4449 61.7811 62.4549 47.4836 72.5233C47.4836 72.5233 60.9689 70.1427 53.4771 53.8568C47.6657 40.9877 50.2423 30.8492 57.5241 25.892C64.2457 21.3129 81.2178 28.2166 89.6058 28.9308C99.4502 29.827 104.841 25.1919 104.617 15.1935C104.421 6.84744 93.2747 2.74445 93.2747 2.74445Z" fill="#B6CBD8"/>
</g>
<defs>
<clipPath id="clip0_8_68">
<rect width="128" height="128" fill="white"/>
</clipPath>
</defs>
</svg>
