<svg width="128" height="42" viewBox="0 0 128 42" fill="none" xmlns="http://www.w3.org/2000/svg">
<g clip-path="url(#clip0_304_7252)">
<path d="M52.8297 32.1066C52.5884 32.249 52.306 32.3179 51.978 32.3179C51.5317 32.3179 51.1718 32.1755 50.8986 31.8952C50.6253 31.6149 50.4886 31.2519 50.4886 30.8015C50.4886 30.3053 50.6344 29.9009 50.9305 29.5976C51.2265 29.2943 51.6182 29.1427 52.1101 29.1427C52.3834 29.1427 52.6248 29.1932 52.8343 29.2851V29.9239C52.6248 29.7676 52.4016 29.6895 52.1648 29.6895C51.8778 29.6895 51.641 29.786 51.4588 29.9836C51.2766 30.1812 51.181 30.4385 51.181 30.7556C51.181 31.0726 51.2675 31.3162 51.4406 31.5C51.6137 31.6792 51.8459 31.7711 52.1374 31.7711C52.3834 31.7711 52.6111 31.6838 52.8297 31.5092V32.1066Z" fill="#B6CBD8"/>
<path d="M59.3566 29.6941C59.0924 29.6941 58.8783 29.786 58.728 29.9744C58.5732 30.1628 58.4957 30.4201 58.4957 30.751C58.4957 31.0818 58.5732 31.3162 58.7326 31.5C58.8874 31.6838 59.097 31.7757 59.3611 31.7757C59.6253 31.7757 59.8348 31.6838 59.976 31.5092C60.1218 31.33 60.1901 31.0726 60.1901 30.7418C60.1901 30.4109 60.1172 30.1536 59.976 29.9698C59.8348 29.786 59.6253 29.6987 59.3611 29.6987L59.3566 29.6941ZM59.3292 32.3179C58.8692 32.3179 58.4957 32.1755 58.2225 31.8952C57.9446 31.6149 57.808 31.2381 57.808 30.7694C57.808 30.2593 57.9537 29.8641 58.2407 29.5792C58.5276 29.2943 58.9148 29.1519 59.4067 29.1519C59.8986 29.1519 60.2402 29.2897 60.4998 29.57C60.764 29.8457 60.8915 30.2317 60.8915 30.7234C60.8915 31.2151 60.7503 31.5919 60.4679 31.886C60.1855 32.1755 59.8075 32.3225 59.3292 32.3225V32.3179Z" fill="#B6CBD8"/>
<path d="M65.8789 32.1525V31.5184C66.134 31.716 66.4118 31.8125 66.7215 31.8125C67.1314 31.8125 67.3364 31.6884 67.3364 31.4449C67.3364 31.3759 67.3182 31.3162 67.2817 31.2702C67.2453 31.2197 67.1998 31.1783 67.1406 31.1416C67.0813 31.1048 67.0085 31.0726 66.931 31.0405C66.849 31.0083 66.758 30.9761 66.6578 30.9394C66.5348 30.8888 66.4255 30.8383 66.3253 30.7831C66.2251 30.728 66.1431 30.6637 66.0793 30.5947C66.0155 30.5258 65.9654 30.4477 65.9336 30.3558C65.9017 30.2685 65.8835 30.1628 65.8835 30.0433C65.8835 29.8963 65.9153 29.7676 65.9837 29.6573C66.052 29.547 66.1431 29.4505 66.2615 29.377C66.3754 29.3035 66.5074 29.2438 66.6532 29.207C66.7989 29.1702 66.9493 29.1473 67.1087 29.1473C67.3865 29.1473 67.6325 29.1886 67.8556 29.2759V29.8733C67.6461 29.7263 67.4002 29.6573 67.1269 29.6573C67.0403 29.6573 66.9629 29.6665 66.8946 29.6849C66.8263 29.7033 66.7671 29.7263 66.717 29.7584C66.6669 29.7906 66.6304 29.8274 66.6031 29.8733C66.5758 29.9193 66.5621 29.9652 66.5621 30.0203C66.5621 30.0847 66.5758 30.1398 66.6031 30.1858C66.6304 30.2317 66.6714 30.2731 66.7261 30.3052C66.7807 30.3374 66.8445 30.3696 66.9219 30.3972C66.9948 30.4247 67.0813 30.4569 67.1815 30.4891C67.3091 30.5396 67.4275 30.5947 67.5277 30.6499C67.6325 30.705 67.719 30.7694 67.7919 30.8383C67.8647 30.9072 67.9194 30.9899 67.9604 31.0818C68.0014 31.1737 68.0196 31.284 68.0196 31.4081C68.0196 31.5597 67.9832 31.6976 67.9148 31.8079C67.8465 31.9228 67.7509 32.0147 67.6325 32.0928C67.514 32.1663 67.382 32.2214 67.2271 32.2582C67.0722 32.295 66.9128 32.3133 66.7397 32.3133C66.4118 32.3133 66.1294 32.2582 65.888 32.1479" fill="#B6CBD8"/>
<path d="M77.6299 32.2444H76.9513V30.5948C76.9513 30.2777 76.9057 30.0479 76.8192 29.9055C76.7281 29.763 76.5823 29.6941 76.3683 29.6941C76.1906 29.6941 76.0403 29.786 75.9174 29.9606C75.7944 30.1398 75.7306 30.3558 75.7306 30.6039V32.2398H75.0474V30.535C75.0474 29.9698 74.8516 29.6895 74.4553 29.6895C74.2731 29.6895 74.1183 29.7722 74.0044 29.9422C73.886 30.1123 73.8268 30.3328 73.8268 30.5993V32.2352H73.1481V29.207H73.8268V29.6849H73.8404C74.0591 29.3173 74.3733 29.1335 74.7878 29.1335C74.9928 29.1335 75.175 29.1932 75.3298 29.3081C75.4847 29.423 75.5894 29.5746 75.6486 29.763C75.8718 29.3449 76.2043 29.1381 76.6461 29.1381C77.3065 29.1381 77.6345 29.547 77.6345 30.3696V32.2352L77.6299 32.2444Z" fill="#B6CBD8"/>
<path d="M85.0358 27.6768L84.1978 28.6464H83.6922L84.4027 27.6768H85.0358ZM84.8354 30.4339C84.8354 30.1858 84.7762 29.9974 84.6623 29.8595C84.5485 29.7217 84.3936 29.6527 84.1932 29.6527C83.9928 29.6527 83.8334 29.7263 83.6967 29.8687C83.5601 30.0112 83.4781 30.1996 83.4462 30.4339H84.8354ZM85.4913 30.921H83.4462C83.4554 31.2013 83.5373 31.4173 83.7013 31.5689C83.8653 31.7206 84.0884 31.7987 84.3754 31.7987C84.6942 31.7987 84.9903 31.7022 85.259 31.5092V32.0606C84.9857 32.2352 84.6259 32.3225 84.175 32.3225C83.7241 32.3225 83.387 32.1847 83.1365 31.909C82.886 31.6333 82.7585 31.2473 82.7585 30.7464C82.7585 30.2731 82.8951 29.8917 83.173 29.593C83.4508 29.2943 83.7924 29.1473 84.2023 29.1473C84.6122 29.1473 84.9311 29.2805 85.1542 29.547C85.3774 29.8136 85.4913 30.1812 85.4913 30.6545V30.9164V30.921Z" fill="#B6CBD8"/>
<path d="M92.2095 32.2122C92.0774 32.2766 91.9043 32.3133 91.6857 32.3133C91.1027 32.3133 90.8112 32.033 90.8112 31.4678V29.7584H90.3102V29.2208H90.8112V28.5223L91.4898 28.3247V29.2208H92.2049V29.7584H91.4898V31.2702C91.4898 31.4494 91.5217 31.5781 91.5855 31.6562C91.6493 31.7343 91.7586 31.7711 91.9089 31.7711C92.0227 31.7711 92.1229 31.7389 92.2049 31.67V32.2122H92.2095Z" fill="#B6CBD8"/>
<path d="M97.9665 32.2444H97.2879V29.2162H97.9665V32.2444ZM97.6295 28.5821C97.5202 28.5821 97.4245 28.5453 97.3425 28.4718C97.2606 28.3982 97.2241 28.3063 97.2241 28.1915C97.2241 28.0766 97.2651 27.9847 97.3425 27.9112C97.42 27.8376 97.5156 27.8009 97.6295 27.8009C97.7434 27.8009 97.8436 27.8376 97.921 27.9112C98.003 27.9847 98.0394 28.0812 98.0394 28.1915C98.0394 28.3017 97.9984 28.3891 97.921 28.4672C97.839 28.5407 97.7434 28.5821 97.6295 28.5821Z" fill="#B6CBD8"/>
<path d="M105.495 32.1066C105.254 32.249 104.972 32.3179 104.644 32.3179C104.197 32.3179 103.838 32.1755 103.564 31.8952C103.291 31.6149 103.154 31.2519 103.154 30.8015C103.154 30.3053 103.3 29.9009 103.596 29.5976C103.892 29.2943 104.284 29.1427 104.776 29.1427C105.049 29.1427 105.291 29.1932 105.5 29.2851V29.9239C105.291 29.7676 105.067 29.6895 104.83 29.6895C104.544 29.6895 104.307 29.786 104.125 29.9836C103.942 30.1812 103.847 30.4385 103.847 30.7556C103.847 31.0726 103.933 31.3162 104.106 31.5C104.279 31.6792 104.512 31.7711 104.803 31.7711C105.049 31.7711 105.277 31.6838 105.495 31.5092V32.1066Z" fill="#B6CBD8"/>
<path d="M112.022 29.6941C111.758 29.6941 111.544 29.786 111.394 29.9744C111.239 30.1628 111.161 30.4201 111.161 30.751C111.161 31.0818 111.239 31.3162 111.398 31.5C111.553 31.6838 111.763 31.7757 112.027 31.7757C112.291 31.7757 112.501 31.6838 112.642 31.5092C112.787 31.33 112.856 31.0726 112.856 30.7418C112.856 30.4109 112.783 30.1536 112.642 29.9698C112.501 29.786 112.291 29.6987 112.027 29.6987L112.022 29.6941ZM111.995 32.3179C111.535 32.3179 111.161 32.1755 110.888 31.8952C110.61 31.6149 110.474 31.2381 110.474 30.7694C110.474 30.2593 110.619 29.8641 110.906 29.5792C111.193 29.2943 111.58 29.1519 112.072 29.1519C112.564 29.1519 112.906 29.2897 113.166 29.57C113.43 29.8457 113.557 30.2317 113.557 30.7234C113.557 31.2151 113.416 31.5919 113.134 31.886C112.851 32.1755 112.473 32.3225 111.995 32.3225V32.3179Z" fill="#B6CBD8"/>
<path d="M118.545 32.1525V31.5184C118.8 31.716 119.077 31.8125 119.387 31.8125C119.797 31.8125 120.002 31.6884 120.002 31.4449C120.002 31.3759 119.984 31.3162 119.947 31.2702C119.911 31.2197 119.865 31.1783 119.806 31.1416C119.747 31.1048 119.674 31.0726 119.597 31.0405C119.515 31.0083 119.424 30.9761 119.323 30.9394C119.2 30.8888 119.091 30.8383 118.991 30.7831C118.891 30.728 118.809 30.6637 118.745 30.5947C118.681 30.5258 118.631 30.4477 118.599 30.3558C118.567 30.2685 118.549 30.1628 118.549 30.0433C118.549 29.8963 118.581 29.7676 118.649 29.6573C118.718 29.547 118.809 29.4505 118.927 29.377C119.041 29.3035 119.173 29.2438 119.319 29.207C119.465 29.1702 119.615 29.1473 119.774 29.1473C120.052 29.1473 120.298 29.1886 120.521 29.2759V29.8733C120.312 29.7263 120.066 29.6573 119.793 29.6573C119.706 29.6573 119.629 29.6665 119.56 29.6849C119.492 29.7033 119.433 29.7263 119.383 29.7584C119.333 29.7906 119.296 29.8274 119.269 29.8733C119.241 29.9193 119.228 29.9652 119.228 30.0203C119.228 30.0847 119.241 30.1398 119.269 30.1858C119.296 30.2317 119.337 30.2731 119.392 30.3052C119.446 30.3374 119.51 30.3696 119.588 30.3972C119.66 30.4247 119.747 30.4569 119.847 30.4891C119.975 30.5396 120.093 30.5947 120.193 30.6499C120.298 30.705 120.385 30.7694 120.458 30.8383C120.53 30.9072 120.585 30.9899 120.626 31.0818C120.667 31.1737 120.685 31.284 120.685 31.4081C120.685 31.5597 120.649 31.6976 120.58 31.8079C120.512 31.9228 120.417 32.0147 120.298 32.0928C120.18 32.1663 120.048 32.2214 119.893 32.2582C119.738 32.295 119.578 32.3133 119.405 32.3133C119.077 32.3133 118.795 32.2582 118.554 32.1479" fill="#B6CBD8"/>
<path d="M63.8201 19.3641C63.8201 20.1912 63.9021 21.023 64.0889 21.7077C64.4806 23.2608 66.8809 24.0512 69.3085 24.0512C71.7362 24.0512 74.1137 23.2838 74.5054 21.749C74.6511 21.17 74.7331 20.6278 74.7331 20.1131C74.7331 18.4129 74.2594 17.2136 72.0003 16.5473C73.4988 15.9683 73.9725 15.1595 73.9725 13.8131C73.9725 13.4179 73.9087 13.0274 73.7858 12.5678C73.435 11.2812 71.1577 10.6838 68.9578 10.6838C66.7579 10.6838 64.7265 11.1617 63.8201 12.3013V19.3687V19.3641ZM69.2857 17.0849H69.3085C71.3445 17.0849 72.351 18.1418 72.351 20.1131C72.351 22.0845 71.2807 23.1597 69.3085 23.1597C67.933 23.1597 66.5985 22.5394 66.3707 21.2757C66.266 20.7151 66.225 20.0304 66.225 19.3687V17.0895H69.2857V17.0849ZM69.9644 11.612C71.3399 11.8004 71.9138 12.4392 71.9138 13.8085C71.9138 15.1779 71.0939 16.1291 69.4497 16.1934H66.225V11.9429C66.9219 11.6947 67.8282 11.5707 69.017 11.5707C69.3677 11.5707 69.6957 11.5707 69.9644 11.612Z" fill="#A972A2"/>
<path d="M81.9204 10.6792H81.5287C79.3698 10.6792 77.3384 11.1571 76.4548 12.2967V19.3641C76.4548 20.2142 76.5368 21.0414 76.7235 21.7674C77.1152 23.2608 79.5155 24.0282 81.9432 24.0282C83.2595 24.0282 84.594 23.7985 85.5778 23.3252L84.9219 22.5394C84.1203 22.953 83.0317 23.1414 81.9432 23.1414C80.6086 23.1414 79.2104 22.521 79.0054 21.3171C78.9234 20.7381 78.8596 20.0534 78.8596 19.3687V17.0895H83.5009V16.198H78.8596V11.9475C79.5565 11.6993 80.4401 11.5753 81.6334 11.5753H84.9811V10.6838H81.9204V10.6792Z" fill="#A972A2"/>
<path d="M86.9715 10.7619V23.8215H93.8946V22.953H89.3764V11.0744L86.9715 10.7619Z" fill="#A972A2"/>
<path d="M100.658 10.6792H100.267C98.1077 10.6792 96.0763 11.1571 95.1927 12.2967V19.3641C95.1927 20.2142 95.2747 21.0414 95.4614 21.7674C95.8531 23.2608 98.2534 24.0282 100.681 24.0282C101.997 24.0282 103.332 23.7985 104.316 23.3252L103.66 22.5394C102.858 22.953 101.77 23.1414 100.681 23.1414C99.3466 23.1414 97.9483 22.521 97.7433 21.3171C97.6613 20.7381 97.5976 20.0534 97.5976 19.3687V17.0895H102.239V16.198H97.5976V11.9475C98.2944 11.6993 99.178 11.5753 100.371 11.5753H103.719V10.6838H100.658V10.6792Z" fill="#A972A2"/>
<path d="M112.592 11.7775L105.709 23.8214H115.529V22.9529H108.998L115.88 10.909H106.183V11.7775H112.592Z" fill="#A972A2"/>
<path d="M125.595 15.1779V17.5812H120.048V11.9429C120.767 11.6947 121.651 11.5707 122.512 11.5707C123.869 11.5707 125.222 12.191 125.431 13.395C125.536 13.9326 125.577 14.5575 125.595 15.1779ZM128 23.8214V15.1779C127.977 14.3921 127.895 13.6018 127.713 12.94C127.034 10.2243 119.496 9.91182 117.647 12.2967V23.8214H120.052V18.4956H125.6V23.8214H128.005H128Z" fill="#A972A2"/>
<path d="M42.8868 10.7619V23.8214H45.2917V18.0591L45.9066 18.6794L51.0033 23.8214H54.4147L47.6146 16.9608L51.6637 12.8757L53.6131 10.9044H52.3788L45.2917 18.0545V11.0698L42.8868 10.7573V10.7619Z" fill="#B6CBD8"/>
<path d="M55.8085 10.7619V23.8215H58.2133V11.0744L55.8085 10.7619Z" fill="#B6CBD8"/>
<path d="M62.1486 17.2274H59.7346V18.298H62.1486V17.2274Z" fill="#B6CBD8"/>
<path d="M31.2997 23.9547C28.2481 26.2063 23.6069 27.856 19.9495 28.674C19.9905 28.4028 20.2273 26.119 19.2162 25.4987C21.2476 25.3195 22.5274 25.1403 23.953 23.077C23.953 23.077 23.5522 23.5274 22.6823 23.5779C20.2364 23.7939 20.4915 21.7031 22.0629 20.3429C23.4885 18.9046 26.7223 19.2538 29.323 16.5197C30.5983 15.1365 31.7643 12.3656 32.0239 10.8998C33.0624 13.0871 31.9465 15.279 31.9465 17.4663C31.9465 18.56 32.7253 19.0838 33.5179 19.9385C33.6864 20.1223 34.2056 20.4026 34.1965 20.4394C34.0098 21.0827 32.903 22.907 31.2997 23.9593" fill="#A972A2"/>
<path d="M19.9631 28.5683C23.6205 27.7503 27.8883 25.9904 30.9399 23.7387C32.402 22.7737 33.2673 21.3814 33.987 20.4256C34.1236 20.2418 34.0507 20.5083 35.4126 21.0276C35.9409 21.7812 35.0482 23.7525 33.7957 23.6376C32.9485 23.8214 33.3675 24.9656 34.4516 25.0759C34.4516 25.0759 34.4242 26.2247 33.6545 27.2494C33.6545 27.2494 34.2238 27.6446 34.1418 28.7796C33.7684 29.0875 33.4268 28.9772 33.0259 29.3678C33.1125 30.2225 33.9642 30.8291 32.862 32.4374C32.0786 33.577 26.03 30.0433 24.2582 31.6884C23.8711 32.0468 23.4748 32.5753 23.2516 33.0532C22.2177 35.2543 22.2587 39.5278 25.1418 41.6048C25.16 41.6186 25.1828 41.6324 25.201 41.6462C25.2375 41.6737 25.2192 41.6645 25.2192 41.6645H25.201C25.201 41.6645 25.1691 41.6829 25.1509 41.6921C21.8397 42.8869 19.3847 40.4284 17.5036 37.9287C15.6863 35.5162 16.1053 32.805 16.3103 32.2858C18.6104 31.8906 19.7992 30.3006 19.954 28.5729" fill="#A972A2"/>
<path d="M26.1257 1.3326C23.8802 -0.52845 20.0588 -0.427356 19.1024 1.55776C18.451 3.00984 20.569 4.83413 21.7122 4.46652C22.1859 4.31488 22.3498 3.85995 22.3225 3.40043C22.2724 2.56871 21.4571 2.54113 21.4571 2.54113C22.1403 2.77549 21.6211 3.31772 21.1064 3.09256C19.3665 2.21488 23.5204 -0.110288 24.3949 2.93173C24.609 3.67155 24.4313 4.18162 23.8347 4.7652C23.4384 5.15579 22.8645 5.46827 22.1267 5.46827C19.5396 5.46827 15.0396 4.43895 13.1995 4.16783C3.42518 2.70656 7.34675 18.7116 5.37913 20.5313C3.91253 22.1856 2.98337 18.3486 2.98337 18.3486C0.683263 25.5079 9.77439 26.1007 12.0927 22.7875C14.4111 19.4606 9.67419 16.0142 10.0522 9.50744C10.1752 7.68774 11.0588 6.75032 12.1793 6.16214C13.8508 5.28446 15.2446 5.16499 17.1029 5.46367C20.5599 6.01509 24.7365 7.75207 26.5447 6.2035C28.0341 4.93063 27.6105 2.56411 26.1257 1.3372" fill="#A972A2"/>
<path d="M30.9582 9.18119C30.9582 9.18119 31.0902 16.8506 24.3994 18.2199C17.7086 19.5939 19.7263 24.7772 22.5047 24.0098C22.5047 24.0098 18.4283 26.3074 16.7977 21.5652C15.6545 17.6455 16.661 12.4162 20.1909 12.8849C22.5685 13.1422 29.8423 16.244 30.9582 9.17659" fill="#B6CBD8"/>
<path d="M30.5392 8.24835C30.5392 8.24835 30.5164 10.9228 28.6763 12.1497C25.3377 14.0659 15.3539 6.38271 16.028 18.491C13.7142 15.7477 13.3088 8.70328 17.6449 8.40459C21.8944 8.11509 29.1637 13.5926 30.5392 8.24376" fill="#A972A2"/>
<path d="M4.7961 19.9661C4.76422 18.9597 3.66199 16.5886 2.41401 17.719C1.07038 18.9414 0.259645 24.0788 3.94438 25.4022C9.25057 27.3092 10.5213 24.9427 13.5821 24.0236C14.6752 23.6974 15.495 23.8352 16.1463 24.1247C21.0016 26.2477 18.7744 30.9807 16.3468 30.7832C16.3468 30.7832 18.0092 29.207 16.948 28.3891C15.6636 27.3689 13.491 30.9762 9.0866 31.9274C7.99348 32.1617 7.38316 32.2169 6.31281 31.909C1.22524 30.4385 -1.82184 22.567 1.19791 18.5094C1.94032 17.5123 3.68932 16.1888 4.67768 17.5536C5.25157 18.3486 5.16503 19.07 4.7961 19.9615" fill="#B6CBD8"/>
<path d="M27.4101 0.90065C29.8833 2.3803 30.3889 9.56717 22.6869 7.86695C19.0978 7.07658 14.2289 5.61531 12.6849 7.60043C12.1337 8.31269 11.5872 9.22713 11.3731 10.9733C10.1616 17.8661 17.1667 20.4945 12.5163 23.7985C12.5163 23.7985 16.9025 23.0173 14.4657 17.6731C12.5755 13.4501 13.4136 10.1232 15.782 8.49649C17.9683 6.99387 23.4885 9.25929 26.2168 9.49365C29.4187 9.78774 31.1723 8.26673 31.0994 4.98577C31.0356 2.24704 27.4101 0.90065 27.4101 0.90065Z" fill="#B6CBD8"/>
</g>
<defs>
<clipPath id="clip0_304_7252">
<rect width="128" height="42" fill="white"/>
</clipPath>
</defs>
</svg>
