<svg width="216" height="175" viewBox="0 0 216 175" fill="none" xmlns="http://www.w3.org/2000/svg">
<g clip-path="url(#clip0_317_4036)">
<path d="M53.1205 141.95C53.1205 144.04 53.3295 146.139 53.7997 147.87C54.7925 151.796 60.8883 153.789 67.045 153.789C73.2018 153.789 79.2453 151.857 80.238 147.975C80.6038 146.506 80.8128 145.151 80.8128 143.839C80.8128 139.546 79.611 136.512 73.881 134.833C77.6865 133.364 78.8883 131.327 78.8883 127.926C78.8883 126.929 78.7315 125.932 78.418 124.787C77.5298 121.543 71.7475 120.021 66.1655 120.021C60.5835 120.021 55.4282 121.228 53.1292 124.105V141.959L53.1205 141.95ZM66.9928 136.188H67.045C72.209 136.188 74.7605 138.855 74.7605 143.83C74.7605 148.806 72.0523 151.525 67.045 151.525C63.553 151.525 60.1655 149.951 59.5907 146.76C59.3295 145.343 59.225 143.621 59.225 141.942V136.18H66.9928V136.188ZM68.717 122.365C72.209 122.837 73.672 124.454 73.672 127.917C73.672 131.379 71.5907 133.784 67.4195 133.941H59.2337V123.213C61.0102 122.583 63.3005 122.268 66.3222 122.268C67.2105 122.268 68.0465 122.268 68.717 122.373V122.365Z" fill="#A972A2"/>
<path d="M99.0566 120.021H98.0639C92.5864 120.021 87.4311 121.228 85.1843 124.105V141.959C85.1843 144.101 85.3933 146.2 85.8636 148.027C86.8563 151.796 92.9521 153.737 99.1089 153.737C102.444 153.737 105.832 153.16 108.34 151.953L106.668 149.96C104.639 151.009 101.869 151.481 99.1089 151.481C95.7213 151.481 92.1771 149.907 91.6546 146.873C91.4456 145.404 91.2888 143.682 91.2888 141.95V136.188H103.071V133.941H91.2888V123.213C93.0653 122.583 95.3033 122.268 98.3251 122.268H106.824V120.021H99.0566V120.021Z" fill="#A972A2"/>
<path d="M111.884 120.231V153.213H129.457V151.018H117.988V121.018L111.893 120.231H111.884Z" fill="#A972A2"/>
<path d="M146.604 120.021H145.611C140.133 120.021 134.978 121.228 132.731 124.105V141.959C132.731 144.101 132.94 146.2 133.411 148.027C134.403 151.796 140.499 153.737 146.656 153.737C149.991 153.737 153.379 153.16 155.887 151.953L154.215 149.96C152.186 151.009 149.417 151.481 146.656 151.481C143.268 151.481 139.724 149.907 139.202 146.873C138.993 145.404 138.836 143.682 138.836 141.95V136.188H150.618V133.941H138.836V123.213C140.612 122.583 142.85 122.268 145.872 122.268H154.372V120.021H146.604V120.021Z" fill="#A972A2"/>
<path d="M176.9 122.793L159.431 153.204H184.354V151.009H167.774L185.242 120.598H160.633V122.793H176.9V122.793Z" fill="#A972A2"/>
<path d="M209.896 131.38V137.448H195.814V123.213C197.643 122.583 199.881 122.269 202.067 122.269C205.507 122.269 208.946 123.842 209.469 126.877C209.73 128.241 209.835 129.806 209.887 131.38H209.896ZM215.983 153.213V131.38C215.93 129.386 215.721 127.401 215.251 125.722C213.527 118.867 194.395 118.08 189.701 124.096V153.204H195.797V139.747H209.878V153.204H215.974L215.983 153.213Z" fill="#A972A2"/>
<path d="M25.2279 174.136C24.6183 174.495 23.8955 174.67 23.0595 174.67C21.9275 174.67 21.0218 174.32 20.3251 173.603C19.6285 172.895 19.2802 171.977 19.2802 170.84C19.2802 169.581 19.6546 168.567 20.4035 167.806C21.1524 167.045 22.1452 166.66 23.3992 166.66C24.0958 166.66 24.7054 166.783 25.2366 167.028V168.636C24.7054 168.243 24.1394 168.042 23.5385 168.042C22.807 168.042 22.2148 168.287 21.7446 168.785C21.2743 169.284 21.0479 169.931 21.0479 170.726C21.0479 171.522 21.2656 172.143 21.7098 172.606C22.1452 173.061 22.7373 173.288 23.4775 173.288C24.0958 173.288 24.6793 173.07 25.2366 172.624V174.128L25.2279 174.136Z" fill="#B6CBD8"/>
<path d="M41.7997 168.042C41.1204 168.042 40.5892 168.278 40.1973 168.75C39.8055 169.222 39.6052 169.878 39.6052 170.709C39.6052 171.539 39.8055 172.143 40.1973 172.597C40.5892 173.061 41.1204 173.288 41.791 173.288C42.4615 173.288 42.9927 173.061 43.3584 172.606C43.7242 172.151 43.9071 171.504 43.9071 170.674C43.9071 169.843 43.7242 169.187 43.3584 168.724C42.9927 168.269 42.4702 168.042 41.791 168.042H41.7997ZM41.7039 174.661C40.5283 174.661 39.5878 174.302 38.8911 173.594C38.1857 172.877 37.8374 171.933 37.8374 170.752C37.8374 169.467 38.2031 168.47 38.9346 167.745C39.6661 167.028 40.6502 166.66 41.8955 166.66C43.1407 166.66 44.0116 167.01 44.6734 167.71C45.3352 168.409 45.6748 169.38 45.6748 170.63C45.6748 171.88 45.3178 172.825 44.6037 173.559C43.8897 174.294 42.923 174.661 41.7126 174.661H41.7039Z" fill="#B6CBD8"/>
<path d="M58.3541 174.241V172.632C58.9985 173.131 59.7126 173.376 60.4876 173.376C61.5326 173.376 62.0464 173.07 62.0464 172.449C62.0464 172.274 62.0029 172.125 61.9158 172.003C61.8287 171.88 61.7068 171.767 61.5587 171.679C61.4107 171.583 61.2278 171.504 61.0188 171.426C60.8098 171.347 60.5834 171.268 60.3309 171.172C60.0174 171.05 59.7387 170.919 59.4862 170.779C59.2336 170.639 59.0246 170.481 58.8592 170.306C58.6937 170.132 58.5631 169.931 58.4847 169.703C58.3976 169.476 58.3541 169.222 58.3541 168.916C58.3541 168.549 58.4412 168.225 58.6153 167.946C58.7895 167.666 59.0246 167.43 59.312 167.237C59.6081 167.045 59.939 166.905 60.3047 166.8C60.6792 166.704 61.0624 166.652 61.4542 166.652C62.1596 166.652 62.7866 166.757 63.3439 166.975V168.488C62.8127 168.121 62.1944 167.937 61.4978 167.937C61.2801 167.937 61.0798 167.954 60.9056 168.007C60.7314 168.051 60.5834 168.112 60.4528 168.191C60.3309 168.269 60.2351 168.365 60.1654 168.479C60.0957 168.593 60.0609 168.715 60.0609 168.846C60.0609 169.012 60.0957 169.152 60.1654 169.266C60.2351 169.38 60.3396 169.485 60.4702 169.572C60.6095 169.659 60.7663 169.738 60.9666 169.808C61.1582 169.878 61.3759 169.957 61.6197 170.044C61.9506 170.175 62.238 170.315 62.4992 170.455C62.7605 170.595 62.9782 170.752 63.1611 170.927C63.3439 171.102 63.4833 171.303 63.5878 171.539C63.6835 171.775 63.7358 172.046 63.7358 172.361C63.7358 172.746 63.6487 173.087 63.4658 173.376C63.2917 173.664 63.0478 173.9 62.7518 174.093C62.4557 174.285 62.1161 174.425 61.7242 174.512C61.3323 174.6 60.923 174.652 60.4963 174.652C59.6603 174.652 58.9462 174.512 58.3367 174.232" fill="#B6CBD8"/>
<path d="M88.18 174.486H86.4557V170.315C86.4557 169.511 86.3425 168.934 86.1161 168.575C85.8897 168.217 85.5065 168.033 84.9753 168.033C84.5225 168.033 84.1393 168.26 83.8258 168.715C83.5123 169.17 83.3556 169.712 83.3556 170.341V174.477H81.6226V170.167C81.6226 168.741 81.1263 168.033 80.1161 168.033C79.6459 168.033 79.2627 168.243 78.9666 168.671C78.6705 169.1 78.5138 169.651 78.5138 170.333V174.468H76.7896V166.826H78.5138V168.033H78.5486C79.0972 167.106 79.8984 166.643 80.9521 166.643C81.4746 166.643 81.9361 166.791 82.3367 167.08C82.7286 167.369 82.9986 167.753 83.1379 168.225C83.7039 167.167 84.5486 166.643 85.672 166.643C87.344 166.643 88.1887 167.683 88.1887 169.756V174.468L88.18 174.486Z" fill="#B6CBD8"/>
<path d="M106.972 162.944L104.848 165.393H103.567L105.37 162.944H106.981H106.972ZM106.459 169.913C106.459 169.292 106.311 168.803 106.023 168.462C105.736 168.121 105.344 167.946 104.839 167.946C104.334 167.946 103.925 168.129 103.576 168.488C103.228 168.846 103.019 169.327 102.94 169.913H106.467H106.459ZM108.122 171.137H102.932C102.949 171.845 103.167 172.388 103.585 172.772C104.003 173.157 104.569 173.349 105.292 173.349C106.11 173.349 106.85 173.105 107.53 172.615V174.005C106.833 174.442 105.919 174.661 104.778 174.661C103.637 174.661 102.784 174.311 102.139 173.62C101.504 172.921 101.181 171.95 101.181 170.691C101.181 169.502 101.53 168.532 102.235 167.78C102.932 167.028 103.803 166.652 104.848 166.652C105.893 166.652 106.694 166.984 107.268 167.657C107.835 168.33 108.122 169.266 108.122 170.455V171.12V171.137Z" fill="#B6CBD8"/>
<path d="M125.181 174.407C124.85 174.573 124.406 174.661 123.849 174.661C122.369 174.661 121.637 173.953 121.637 172.527V168.208H120.366V166.853H121.637V165.087L123.361 164.588V166.853H125.181V168.208H123.361V172.029C123.361 172.484 123.44 172.807 123.605 173C123.771 173.192 124.041 173.288 124.424 173.288C124.72 173.288 124.964 173.201 125.181 173.035V174.407V174.407Z" fill="#B6CBD8"/>
<path d="M139.794 174.486H138.07V166.844H139.794V174.486ZM138.941 165.235C138.662 165.235 138.418 165.148 138.218 164.964C138.017 164.781 137.913 164.544 137.913 164.265C137.913 163.985 138.009 163.749 138.218 163.556C138.418 163.364 138.662 163.277 138.941 163.277C139.219 163.277 139.48 163.373 139.681 163.556C139.881 163.749 139.986 163.985 139.986 164.265C139.986 164.544 139.881 164.763 139.681 164.955C139.48 165.148 139.228 165.244 138.941 165.244V165.235Z" fill="#B6CBD8"/>
<path d="M158.891 174.136C158.282 174.495 157.559 174.67 156.723 174.67C155.591 174.67 154.685 174.32 153.988 173.603C153.292 172.895 152.943 171.977 152.943 170.84C152.943 169.581 153.318 168.567 154.067 167.806C154.816 167.045 155.808 166.66 157.062 166.66C157.759 166.66 158.369 166.783 158.9 167.028V168.636C158.369 168.243 157.803 168.042 157.202 168.042C156.47 168.042 155.878 168.287 155.408 168.785C154.938 169.284 154.711 169.931 154.711 170.726C154.711 171.522 154.929 172.143 155.373 172.606C155.808 173.061 156.401 173.288 157.141 173.288C157.759 173.288 158.342 173.07 158.9 172.624V174.128L158.891 174.136Z" fill="#B6CBD8"/>
<path d="M175.454 168.042C174.775 168.042 174.244 168.278 173.852 168.75C173.46 169.222 173.26 169.878 173.26 170.709C173.26 171.539 173.46 172.143 173.852 172.597C174.244 173.061 174.775 173.288 175.446 173.288C176.116 173.288 176.647 173.061 177.013 172.606C177.379 172.151 177.562 171.504 177.562 170.674C177.562 169.843 177.379 169.187 177.013 168.724C176.647 168.269 176.125 168.042 175.446 168.042H175.454ZM175.359 174.661C174.183 174.661 173.251 174.302 172.546 173.594C171.84 172.877 171.492 171.933 171.492 170.752C171.492 169.467 171.858 168.47 172.589 167.745C173.321 167.028 174.305 166.66 175.55 166.66C176.795 166.66 177.666 167.01 178.328 167.71C178.99 168.409 179.33 169.38 179.33 170.63C179.33 171.88 178.972 172.825 178.258 173.559C177.544 174.294 176.578 174.661 175.367 174.661H175.359Z" fill="#B6CBD8"/>
<path d="M192.017 174.241V172.632C192.662 173.131 193.376 173.376 194.151 173.376C195.196 173.376 195.71 173.07 195.71 172.449C195.71 172.274 195.666 172.125 195.579 172.003C195.492 171.88 195.37 171.767 195.222 171.679C195.074 171.583 194.891 171.504 194.682 171.426C194.473 171.347 194.247 171.268 193.994 171.172C193.681 171.05 193.402 170.919 193.149 170.779C192.897 170.639 192.688 170.481 192.523 170.306C192.357 170.132 192.226 169.931 192.148 169.703C192.061 169.476 192.017 169.222 192.017 168.916C192.017 168.549 192.105 168.225 192.279 167.946C192.453 167.666 192.688 167.43 192.975 167.237C193.271 167.045 193.602 166.905 193.968 166.8C194.343 166.704 194.726 166.652 195.118 166.652C195.823 166.652 196.45 166.757 197.007 166.975V168.488C196.476 168.121 195.858 167.937 195.161 167.937C194.943 167.937 194.743 167.954 194.569 168.007C194.395 168.051 194.247 168.112 194.116 168.191C193.994 168.269 193.898 168.365 193.829 168.479C193.759 168.593 193.724 168.715 193.724 168.846C193.724 169.012 193.759 169.152 193.829 169.266C193.898 169.38 194.003 169.485 194.134 169.572C194.273 169.659 194.43 169.738 194.63 169.808C194.821 169.878 195.039 169.957 195.283 170.044C195.614 170.175 195.901 170.315 196.163 170.455C196.424 170.595 196.642 170.752 196.824 170.927C197.007 171.102 197.147 171.303 197.251 171.539C197.347 171.775 197.399 172.046 197.399 172.361C197.399 172.746 197.312 173.087 197.129 173.376C196.955 173.664 196.711 173.9 196.415 174.093C196.119 174.285 195.779 174.425 195.388 174.512C194.996 174.6 194.586 174.652 194.16 174.652C193.324 174.652 192.61 174.512 192 174.232" fill="#B6CBD8"/>
<path d="M0 120.231V153.213H6.09579V138.663L7.66328 140.237L20.5951 153.221H29.2511L11.9913 135.891L22.2583 125.582L27.2134 120.607H24.0871L6.09579 138.672V121.027L0 120.24L0 120.231Z" fill="#B6CBD8"/>
<path d="M32.7954 120.231V153.213H38.8912V121.018L32.7954 120.231Z" fill="#B6CBD8"/>
<path d="M48.8882 136.547H42.7576V139.249H48.8882V136.547Z" fill="#B6CBD8"/>
<path d="M136.894 61.1674C129.152 66.8596 117.379 71.0216 108.087 73.0851C108.192 72.4031 108.792 66.6323 106.224 65.0671C111.379 64.6125 114.627 64.1665 118.241 58.9553C118.241 58.9553 117.222 60.1007 115.019 60.2231C108.81 60.774 109.454 55.484 113.443 52.0477C117.057 48.4191 125.268 49.3022 131.869 42.3947C135.109 38.8972 138.061 31.9022 138.723 28.2036C141.353 33.7209 138.522 39.2557 138.522 44.7817C138.522 47.5447 140.499 48.865 142.511 51.0247C142.946 51.4881 144.253 52.2051 144.235 52.2838C143.765 53.9101 140.952 58.5093 136.885 61.1762" fill="#A972A2"/>
<path d="M108.122 72.8054C117.405 70.7419 128.238 66.3 135.98 60.6079C139.689 58.1771 141.884 54.6534 143.713 52.2401C144.061 51.7855 143.869 52.4412 147.335 53.7615C148.668 55.6677 146.404 60.6429 143.234 60.3456C141.083 60.8177 142.145 63.7032 144.897 63.9742C144.897 63.9742 144.827 66.8771 142.877 69.4653C142.877 69.4653 144.322 70.4708 144.113 73.3212C143.164 74.0994 142.293 73.8196 141.274 74.7989C141.492 76.9586 143.66 78.4888 140.865 82.5546C138.88 85.44 123.527 76.5127 119.033 80.6572C118.058 81.5578 117.048 82.8956 116.482 84.1023C113.852 89.6545 113.965 100.453 121.28 105.708C121.332 105.743 121.385 105.778 121.428 105.813C121.515 105.883 121.48 105.865 121.48 105.865C121.463 105.865 121.446 105.874 121.428 105.883C121.385 105.9 121.341 105.918 121.298 105.927C112.894 108.943 106.668 102.735 101.887 96.4222C97.2715 90.3278 98.3426 83.4815 98.8651 82.1699C104.7 81.1731 107.721 77.151 108.113 72.7879" fill="#A972A2"/>
<path d="M123.762 4.01844C118.067 -0.67694 108.366 -0.423372 105.945 4.59552C104.29 8.25914 109.672 12.8758 112.572 11.9402C113.774 11.5555 114.192 10.4101 114.122 9.24718C114 7.14869 111.919 7.07874 111.919 7.07874C113.652 7.66457 112.337 9.04607 111.03 8.46899C106.615 6.25683 117.152 0.38105 119.382 8.06678C119.922 9.93793 119.469 11.2233 117.962 12.6922C116.952 13.6802 115.507 14.4672 113.626 14.4672C107.06 14.4672 95.6343 11.8703 90.9666 11.1795C66.1481 7.50718 76.1103 47.9294 71.1205 52.5198C67.3933 56.6993 65.0334 47.0113 65.0334 47.0113C59.1901 65.0933 82.2671 66.5885 88.1539 58.2207C94.0319 49.8268 82.0145 41.118 82.9724 24.6798C83.2859 20.0894 85.524 17.7198 88.3716 16.2334C92.6125 14.0213 96.1481 13.7152 100.859 14.4672C109.637 15.8662 120.235 20.2468 124.824 16.3383C128.604 13.1206 127.524 7.13994 123.762 4.04467" fill="#A972A2"/>
<path d="M136.032 23.8403C136.032 23.8403 136.372 43.2077 119.39 46.6702C102.409 50.1414 107.53 63.2308 114.575 61.2984C114.575 61.2984 104.221 67.0955 100.084 55.1254C97.1843 45.2275 99.7445 32.0157 108.697 33.2049C114.731 33.8606 133.184 41.6863 136.023 23.8403" fill="#B6CBD8"/>
<path d="M134.97 21.497C134.97 21.497 134.909 28.2559 130.241 31.3512C121.768 36.1865 96.4354 16.7929 98.1422 47.3697C92.2641 40.4447 91.2366 22.6425 102.244 21.8992C113.025 21.1735 131.478 34.9973 134.97 21.4883" fill="#A972A2"/>
<path d="M69.6313 51.0858C69.5442 48.5413 66.7489 42.5519 63.5878 45.4198C60.1741 48.5064 58.119 61.482 67.4717 64.8309C80.9347 69.6487 84.1654 63.668 91.9332 61.3509C94.7112 60.5202 96.7837 60.8787 98.4383 61.6045C110.752 66.9644 105.109 78.9258 98.9521 78.4186C98.9521 78.4186 103.167 74.4315 100.476 72.3767C97.2104 69.7973 91.7068 78.9083 80.5254 81.3128C77.7474 81.9074 76.2061 82.0473 73.4804 81.2603C60.5573 77.5355 52.8331 57.661 60.4964 47.4134C62.3773 44.8952 66.8186 41.5551 69.3265 45.0001C70.7895 47.0112 70.5631 48.8299 69.6226 51.0858" fill="#B6CBD8"/>
<path d="M127.019 2.93433C133.298 6.66789 134.578 24.8199 115.028 20.5267C105.919 18.5244 93.5704 14.8345 89.643 19.8534C88.241 21.6459 86.8564 23.963 86.3164 28.3785C83.2337 45.7873 101.016 52.4238 89.225 60.7653C89.225 60.7653 100.354 58.7892 94.1713 45.2976C89.373 34.6303 91.5066 26.2276 97.5153 22.118C103.062 18.332 117.074 24.0504 123.997 24.6362C132.122 25.3795 136.572 21.541 136.389 13.2519C136.232 6.33563 127.028 2.94307 127.028 2.94307" fill="#B6CBD8"/>
</g>
<defs>
<clipPath id="clip0_317_4036">
<rect width="216" height="174" fill="white" transform="translate(0 0.657471)"/>
</clipPath>
</defs>
</svg>
