<svg width="20" height="20" viewBox="0 0 20 20" fill="none" xmlns="http://www.w3.org/2000/svg">
<path fill-rule="evenodd" clip-rule="evenodd" d="M9.06246 3.33341C5.89833 3.33341 3.33329 5.89845 3.33329 9.06258C3.33329 12.2267 5.89833 14.7917 9.06246 14.7917C12.2266 14.7917 14.7917 12.2267 14.7917 9.06258C14.7917 5.89845 12.2266 3.33341 9.06246 3.33341ZM1.66663 9.06258C1.66663 4.97798 4.97785 1.66675 9.06246 1.66675C13.1471 1.66675 16.4583 4.97798 16.4583 9.06258C16.4583 13.1472 13.1471 16.4584 9.06246 16.4584C4.97785 16.4584 1.66663 13.1472 1.66663 9.06258Z" fill="#231F20"/>
<path fill-rule="evenodd" clip-rule="evenodd" d="M13.1134 13.114C13.4388 12.7885 13.9664 12.7885 14.2919 13.114L18.0888 16.9109C18.4142 17.2363 18.4142 17.7639 18.0888 18.0894C17.7634 18.4148 17.2357 18.4148 16.9103 18.0894L13.1134 14.2925C12.7879 13.967 12.7879 13.4394 13.1134 13.114Z" fill="#231F20"/>
</svg>
