<svg width="47" height="34" viewBox="0 0 47 34" fill="none" xmlns="http://www.w3.org/2000/svg">
<path fill-rule="evenodd" clip-rule="evenodd" d="M23.6634 23.8038C22.0585 25.1566 19.9767 25.9733 17.7018 25.9733C12.6259 25.9733 8.51111 21.9074 8.51111 16.8919C8.51111 11.8764 12.6259 7.81055 17.7018 7.81055C19.9767 7.81055 22.0585 8.62719 23.6634 9.97996C25.2683 8.62719 27.3501 7.81055 29.625 7.81055C34.7008 7.81055 38.8157 11.8764 38.8157 16.8919C38.8157 21.9074 34.7008 25.9733 29.625 25.9733C27.3501 25.9733 25.2683 25.1566 23.6634 23.8038Z" fill="#ED0006"/>
<path fill-rule="evenodd" clip-rule="evenodd" d="M23.6634 23.8039C25.6395 22.1382 26.8926 19.6596 26.8926 16.8919C26.8926 14.1242 25.6395 11.6456 23.6634 9.97996C25.2683 8.62719 27.3501 7.81055 29.6249 7.81055C34.7008 7.81055 38.8157 11.8764 38.8157 16.8919C38.8157 21.9074 34.7008 25.9733 29.6249 25.9733C27.3501 25.9733 25.2683 25.1566 23.6634 23.8039Z" fill="#F9A000"/>
<path fill-rule="evenodd" clip-rule="evenodd" d="M23.6634 23.8043C25.6395 22.1386 26.8925 19.6601 26.8925 16.8924C26.8925 14.1247 25.6395 11.6462 23.6634 9.98047C21.6873 11.6462 20.4343 14.1247 20.4343 16.8924C20.4343 19.6601 21.6873 22.1386 23.6634 23.8043Z" fill="#FF5E00"/>
</svg>
