<svg width="20" height="20" viewBox="0 0 20 20" fill="none" xmlns="http://www.w3.org/2000/svg">
<path fill-rule="evenodd" clip-rule="evenodd" d="M2.29163 10C2.29163 9.53977 2.66472 9.16667 3.12496 9.16667H16.875C17.3352 9.16667 17.7083 9.53977 17.7083 10C17.7083 10.4602 17.3352 10.8333 16.875 10.8333H3.12496C2.66472 10.8333 2.29163 10.4602 2.29163 10Z" fill="#A7A9AC"/>
<path fill-rule="evenodd" clip-rule="evenodd" d="M2.29163 5.00001C2.29163 4.53977 2.66472 4.16667 3.12496 4.16667H16.875C17.3352 4.16667 17.7083 4.53977 17.7083 5.00001C17.7083 5.46024 17.3352 5.83334 16.875 5.83334H3.12496C2.66472 5.83334 2.29163 5.46024 2.29163 5.00001Z" fill="#A7A9AC"/>
<path fill-rule="evenodd" clip-rule="evenodd" d="M2.29163 15C2.29163 14.5398 2.66472 14.1667 3.12496 14.1667H16.875C17.3352 14.1667 17.7083 14.5398 17.7083 15C17.7083 15.4602 17.3352 15.8333 16.875 15.8333H3.12496C2.66472 15.8333 2.29163 15.4602 2.29163 15Z" fill="#A7A9AC"/>
</svg>
