<svg width="20" height="20" viewBox="0 0 20 20" fill="none" xmlns="http://www.w3.org/2000/svg">
<path fill-rule="evenodd" clip-rule="evenodd" d="M10 3.33334C7.69883 3.33334 5.83335 5.19882 5.83335 7.5C5.83335 9.80119 7.69883 11.6667 10 11.6667C12.3012 11.6667 14.1667 9.80119 14.1667 7.5C14.1667 5.19882 12.3012 3.33334 10 3.33334ZM4.16669 7.5C4.16669 4.27834 6.77836 1.66667 10 1.66667C13.2217 1.66667 15.8334 4.27834 15.8334 7.5C15.8334 10.7217 13.2217 13.3333 10 13.3333C6.77836 13.3333 4.16669 10.7217 4.16669 7.5Z" fill="white"/>
<path fill-rule="evenodd" clip-rule="evenodd" d="M10.0001 13.3333C8.61026 13.3333 7.24492 13.699 6.04121 14.3938C4.83751 15.0885 3.83781 16.0877 3.14256 17.2911C2.91233 17.6897 2.40263 17.8261 2.00412 17.5958C1.60561 17.3656 1.4692 16.8559 1.69943 16.4574C2.54099 15.0007 3.75107 13.7912 5.2081 12.9503C6.66513 12.1093 8.31779 11.6667 10.0001 11.6667C11.6824 11.6667 13.335 12.1094 14.792 12.9504C16.249 13.7913 17.4591 15.0009 18.3006 16.4576C18.5309 16.8561 18.3944 17.3658 17.9959 17.596C17.5974 17.8262 17.0877 17.6898 16.8575 17.2913C16.1623 16.0879 15.1626 15.0886 13.9589 14.3939C12.7552 13.6991 11.3899 13.3334 10.0001 13.3333Z" fill="white"/>
</svg>
