<svg width="42" height="42" viewBox="0 0 42 42" fill="none" xmlns="http://www.w3.org/2000/svg">
<path d="M12.842 29.9952C12.6837 29.9952 12.5291 30.0422 12.3975 30.1301C12.266 30.218 12.1634 30.3429 12.1029 30.4891C12.0423 30.6353 12.0265 30.7961 12.0573 30.9513C12.0882 31.1065 12.1644 31.249 12.2763 31.3609C12.3882 31.4728 12.5307 31.549 12.6859 31.5799C12.8411 31.6107 13.0019 31.5949 13.1481 31.5343C13.2943 31.4738 13.4192 31.3712 13.5071 31.2397C13.5951 31.1081 13.642 30.9535 13.642 30.7952C13.642 30.5831 13.5577 30.3796 13.4077 30.2296C13.2576 30.0795 13.0541 29.9952 12.842 29.9952Z" fill="#212529" stroke="#212529"/>
<path d="M36.417 15.5713L41.1399 10.8483C41.2382 10.7508 41.3094 10.6296 41.3467 10.4963C41.3841 10.3631 41.3862 10.2225 41.353 10.0882C41.3197 9.95389 41.2522 9.83051 41.1571 9.73009C41.0619 9.62968 40.9423 9.55566 40.81 9.51528L29.3099 5.96528C28.816 4.38778 27.8464 3.00158 26.534 1.99653C25.2216 0.99149 23.6305 0.416759 21.9788 0.351062C20.3271 0.285365 18.6955 0.731916 17.3074 1.62955C15.9193 2.52718 14.8427 3.832 14.2249 5.36528L0.90195 9.51628C0.769971 9.55699 0.650781 9.63118 0.55598 9.73162C0.461179 9.83206 0.393997 9.95534 0.360973 10.0894C0.327949 10.2236 0.330208 10.3639 0.36753 10.4969C0.404853 10.6299 0.475966 10.7509 0.57395 10.8483L5.42095 15.6953L2.36395 20.7953C2.30186 20.8981 2.26375 21.0137 2.25243 21.1333C2.24112 21.2529 2.25689 21.3736 2.29858 21.4862C2.34028 21.5989 2.40682 21.7008 2.49327 21.7842C2.57972 21.8677 2.68386 21.9306 2.79795 21.9683L7.23195 23.4413V35.7683C7.23183 35.9314 7.28157 36.0907 7.37451 36.2247C7.46745 36.3587 7.59915 36.4612 7.75195 36.5183C10.4629 37.5353 20.5359 41.3133 20.59 41.3323C20.7555 41.3909 20.9358 41.3933 21.103 41.3393H21.11L35.54 36.5283C35.6996 36.4753 35.8385 36.3733 35.9369 36.2369C36.0352 36.1005 36.0881 35.9365 36.088 35.7683V23.1113L40.816 21.6253C40.9477 21.5844 41.0666 21.5101 41.1611 21.4097C41.2556 21.3093 41.3226 21.1861 41.3555 21.0522C41.3884 20.9182 41.3861 20.7781 41.3489 20.6453C41.3116 20.5125 41.2407 20.3916 41.143 20.2943L36.417 15.5713ZM29.673 8.35828C29.673 8.15828 29.6639 7.95128 29.649 7.74928L39.066 10.6563L35.066 14.6563L28.5319 12.4783C29.2772 11.2331 29.6715 9.80943 29.673 8.35828ZM15.5939 6.27228C16.086 4.83578 17.072 3.62058 18.3763 2.84309C19.6806 2.0656 21.2185 1.7763 22.7162 2.02671C24.2139 2.27712 25.574 3.05098 26.5545 4.21048C27.5349 5.36998 28.0719 6.83983 28.07 8.35828C28.0701 9.20035 27.9043 10.0342 27.5821 10.8122C27.2599 11.5902 26.7876 12.2971 26.1922 12.8925C25.5968 13.488 24.8899 13.9603 24.1119 14.2825C23.3339 14.6046 22.5 14.7704 21.658 14.7703C20.6367 14.7696 19.6305 14.5251 18.7227 14.0573C17.815 13.5895 17.032 12.9118 16.4389 12.0805C15.8457 11.2492 15.4595 10.2883 15.3124 9.2778C15.1653 8.26725 15.2615 7.23618 15.5929 6.27028L15.5939 6.27228ZM2.63995 10.6523L13.7289 7.19528C13.6713 7.5803 13.6416 7.96897 13.6399 8.35828C13.6379 9.63442 13.9424 10.8924 14.5279 12.0263L6.64695 14.6543L2.63995 10.6523ZM4.25295 20.7583L6.78695 16.5343L19.656 20.8243L17.122 25.0483L4.25295 20.7583ZM20.0529 39.4203L8.83995 35.2123V23.9753C17.6679 26.9023 17.24 26.8133 17.483 26.8133C17.6213 26.8134 17.7574 26.7776 17.8778 26.7094C17.9982 26.6412 18.0989 26.543 18.17 26.4243L20.0599 23.2733L20.0529 39.4203ZM20.853 19.5353L8.96495 15.5713L15.4399 13.4133C16.162 14.302 17.0661 15.0256 18.0914 15.5353C19.1167 16.0451 20.2394 16.3291 21.3837 16.3684C22.5281 16.4076 23.6676 16.2011 24.7254 15.7627C25.7832 15.3244 26.7348 14.6644 27.516 13.8273L32.748 15.5713L20.853 19.5353ZM34.4819 35.1903L21.658 39.4643V22.6643L24.499 26.2153C24.5997 26.3416 24.7364 26.4344 24.891 26.4816C25.0456 26.5287 25.2108 26.5279 25.365 26.4793L34.4809 23.6143L34.4819 35.1903ZM25.409 24.7903L22.201 20.7813L35.067 16.4923L39.067 20.4923L25.409 24.7903Z" fill="#212529"/>
<path d="M17.9319 31.7762L16.1499 31.1082C15.951 31.0336 15.7306 31.041 15.5372 31.1288C15.3437 31.2167 15.1931 31.3778 15.1184 31.5767C15.0438 31.7756 15.0512 31.996 15.1391 32.1895C15.2269 32.3829 15.388 32.5336 15.5869 32.6082L17.3689 33.2762C17.5679 33.3509 17.7883 33.3434 17.9817 33.2556C18.1752 33.1677 18.3258 33.0066 18.4004 32.8077C18.4751 32.6088 18.4677 32.3884 18.3798 32.1949C18.292 32.0015 18.1308 31.8509 17.9319 31.7762Z" fill="#212529" stroke="#212529"/>
<path d="M17.9329 35.1992L13.1239 33.3992C12.925 33.3246 12.7046 33.332 12.5112 33.4198C12.3177 33.5077 12.1671 33.6688 12.0924 33.8677C12.0178 34.0667 12.0252 34.2871 12.1131 34.4805C12.2009 34.674 12.362 34.8246 12.5609 34.8992L17.3699 36.6992C17.5689 36.7739 17.7893 36.7665 17.9827 36.6786C18.1762 36.5907 18.3268 36.4296 18.4014 36.2307C18.4761 36.0318 18.4687 35.8114 18.3808 35.618C18.293 35.4245 18.1318 35.2739 17.9329 35.1992Z" fill="#212529" stroke="#212529"/>
<path d="M26.233 5.38723C26.1586 5.3127 26.0703 5.25356 25.9731 5.21321C25.8759 5.17287 25.7717 5.1521 25.6665 5.1521C25.5612 5.1521 25.457 5.17287 25.3598 5.21321C25.2626 5.25356 25.1743 5.3127 25.1 5.38723L20.8549 9.62923L19.819 8.59323C19.6686 8.44285 19.4646 8.35837 19.252 8.35837C19.0393 8.35837 18.8353 8.44285 18.685 8.59323C18.5346 8.74361 18.4501 8.94757 18.4501 9.16023C18.4501 9.3729 18.5346 9.57685 18.685 9.72723L20.285 11.3272C20.3593 11.4019 20.4476 11.4612 20.545 11.5016C20.6423 11.542 20.7466 11.5629 20.852 11.5629C20.9573 11.5629 21.0617 11.542 21.159 11.5016C21.2563 11.4612 21.3446 11.4019 21.419 11.3272L26.228 6.51823C26.3785 6.36888 26.4636 6.16585 26.4646 5.95377C26.4655 5.74168 26.3822 5.53791 26.233 5.38723Z" fill="#212529" stroke="#212529"/>
</svg>
