<svg width="361" height="31" viewBox="0 0 361 31" fill="none" xmlns="http://www.w3.org/2000/svg">
<rect width="361" height="30.3529" fill="white"/>
<path fill-rule="evenodd" clip-rule="evenodd" d="M14.2441 19.89H11.6391L9.68569 12.2185C9.59298 11.8656 9.39611 11.5536 9.10653 11.4066C8.38385 11.0371 7.5875 10.743 6.71875 10.5947V10.2993H10.9151C11.4943 10.2993 11.9287 10.743 12.0011 11.2583L13.0146 16.792L15.6183 10.2993H18.1509L14.2441 19.89ZM19.5988 19.89H17.1386L19.1644 10.2993H21.6246L19.5988 19.89ZM24.8075 12.9562C24.8799 12.4397 25.3142 12.1443 25.821 12.1443C26.6173 12.0702 27.4848 12.2185 28.2088 12.5867L28.6432 10.5218C27.9192 10.2264 27.1228 10.0781 26.4002 10.0781C24.0124 10.0781 22.2749 11.4066 22.2749 13.2503C22.2749 14.6529 23.5056 15.3894 24.3744 15.8331C25.3142 16.2755 25.6762 16.5708 25.6038 17.0132C25.6038 17.6768 24.8799 17.9721 24.1572 17.9721C23.2884 17.9721 22.4197 17.7509 21.6246 17.3814L21.1902 19.4476C22.059 19.8159 22.9988 19.9642 23.8676 19.9642C26.545 20.0371 28.2088 18.7099 28.2088 16.7178C28.2088 14.2093 24.8075 14.0622 24.8075 12.9562ZM36.8187 19.89L34.8653 10.2993H32.7671C32.3328 10.2993 31.8984 10.5947 31.7536 11.0371L28.1364 19.89H30.6689L31.1744 18.4887H34.2862L34.5758 19.89H36.8187ZM33.1291 12.8821L33.8518 16.4967H31.826L33.1291 12.8821Z" fill="#212121"/>
<path fill-rule="evenodd" clip-rule="evenodd" d="M73.0309 24.3135H76.3142C81.4394 24.3135 85.5234 20.2633 85.6836 15.2602V15.1807C85.6035 10.0982 81.4394 5.96859 76.3142 6.048H72.6305C67.7456 6.20683 63.9018 10.3364 64.062 15.2602C64.062 20.1839 68.066 24.2341 73.0309 24.3135ZM65.6636 15.1807C65.6636 11.0511 69.107 7.63627 73.2712 7.63627C77.4353 7.63627 80.8788 11.0511 80.8788 15.1807C80.8788 19.3103 77.4353 22.7251 73.2712 22.7251C69.107 22.7251 65.6636 19.3103 65.6636 15.1807ZM74.4724 20.2633V10.1776C77.2752 10.8923 79.037 13.6718 78.3162 16.4514C77.8358 18.3573 76.3943 19.7868 74.4724 20.2633ZM68.3062 13.9101C67.5855 16.6896 69.2672 19.5485 72.07 20.2633V10.1776C70.2281 10.654 68.7867 12.0835 68.3062 13.9101Z" fill="#212121"/>
<path fill-rule="evenodd" clip-rule="evenodd" d="M113.709 10.75L109.686 19.915H114.502L115.099 18.4537H116.464L117.061 19.915H122.362V18.7997L122.835 19.915H125.577L126.049 18.7761V19.915H137.075L138.416 18.4917L139.671 19.915L145.334 19.9268L141.298 15.3581L145.334 10.75H139.759L138.454 12.147L137.238 10.75H125.244L124.214 13.1156L123.16 10.75H118.353V11.8273L117.819 10.75H113.709ZM114.641 12.0514H116.989L119.657 18.2663V12.0514H122.229L124.29 16.5074L126.19 12.0514H128.749V18.6279H127.192L127.179 13.4746L124.909 18.6279H123.516L121.233 13.4746V18.6279H118.03L117.423 17.1536H114.142L113.536 18.6266H111.819L114.641 12.0514ZM136.504 12.0514H130.173V18.624H136.406L138.416 16.4458L140.352 18.624H142.376L139.434 15.3568L142.376 12.0514H140.44L138.441 14.2047L136.504 12.0514ZM115.783 13.1642L114.702 15.7906H116.863L115.783 13.1642ZM131.737 14.6136V13.4131V13.412H135.687L137.411 15.3319L135.611 17.2624H131.737V15.9517H135.191V14.6136H131.737Z" fill="#212121"/>
<path fill-rule="evenodd" clip-rule="evenodd" d="M180.726 21.2842C179.229 22.5464 177.286 23.3084 175.164 23.3084C170.428 23.3084 166.588 19.5147 166.588 14.8349C166.588 10.1551 170.428 6.36133 175.164 6.36133C177.286 6.36133 179.229 7.12331 180.726 8.38554C182.224 7.12331 184.166 6.36133 186.289 6.36133C191.025 6.36133 194.864 10.1551 194.864 14.8349C194.864 19.5147 191.025 23.3084 186.289 23.3084C184.166 23.3084 182.224 22.5464 180.726 21.2842Z" fill="#212121"/>
<path fill-rule="evenodd" clip-rule="evenodd" d="M180.726 21.2842C182.57 19.73 183.739 17.4173 183.739 14.8349C183.739 12.2524 182.57 9.93974 180.726 8.38554C182.224 7.12331 184.166 6.36133 186.289 6.36133C191.025 6.36133 194.864 10.1551 194.864 14.8349C194.864 19.5147 191.025 23.3084 186.289 23.3084C184.166 23.3084 182.224 22.5464 180.726 21.2842Z" fill="#C4C4C4"/>
<path fill-rule="evenodd" clip-rule="evenodd" d="M180.726 21.2841C182.57 19.7299 183.739 17.4172 183.739 14.8348C183.739 12.2523 182.57 9.9397 180.726 8.3855C178.883 9.9397 177.713 12.2523 177.713 14.8348C177.713 17.4172 178.883 19.7299 180.726 21.2841Z" fill="#5C5C5C"/>
<g clip-path="url(#clip0_607_3426)">
<path d="M212 4C212 1.79086 213.791 0 216 0H251C253.209 0 255 1.79086 255 4V24.8906C255 27.0998 253.209 28.8906 251 28.8906H216C213.791 28.8906 212 27.0998 212 24.8906V4Z" fill="#005A9C"/>
<path fill-rule="evenodd" clip-rule="evenodd" d="M211.664 0H255.369L255.416 13.62C250.14 11.6133 233.353 6.81083 211.664 12.7955V0Z" fill="#F2F2F2"/>
<path fill-rule="evenodd" clip-rule="evenodd" d="M211.664 28.8907H255.369V17.9944C247.486 15.3564 233.475 11.4035 211.664 17.0037V28.8907Z" fill="white"/>
<path fill-rule="evenodd" clip-rule="evenodd" d="M255.369 17.9944C247.486 15.3563 233.475 11.4035 211.664 17.0036V12.7956C233.353 6.81089 250.14 11.6201 255.416 13.62L255.369 17.9944Z" fill="#212121"/>
<path fill-rule="evenodd" clip-rule="evenodd" d="M225.586 10.2296C226.668 7.24061 229.143 4.65968 233.443 4.68822C237.744 4.71677 240.612 7.17344 241.386 10.3874C235.845 9.81146 232.15 9.71071 225.586 10.2296Z" fill="#C4C4C4"/>
<path d="M221.429 23.371L224.355 19.0051H225.434L228.552 23.371H227.41L226.522 22.0495H223.331L222.492 23.371H221.429ZM223.627 21.5793H226.211L225.415 20.372C225.218 20.081 225.038 19.7788 224.876 19.4669C224.773 19.7621 224.635 20.044 224.465 20.3065L223.625 21.5844L223.627 21.5793ZM233.678 23.371V22.9076C233.247 23.2647 232.663 23.4432 231.925 23.4432C231.618 23.4456 231.312 23.4101 231.013 23.3375C230.788 23.2912 230.575 23.1998 230.385 23.0688C230.253 22.9675 230.152 22.8298 230.097 22.6725C230.051 22.5086 230.032 22.3386 230.04 22.1687V20.2125H230.975V21.9639C230.965 22.1543 230.984 22.3452 231.032 22.5298C231.107 22.6869 231.242 22.8076 231.406 22.8656C231.632 22.9516 231.873 22.9921 232.115 22.9848C232.383 22.9869 232.65 22.9455 232.904 22.8622C233.109 22.8081 233.292 22.6905 233.427 22.5264C233.541 22.3415 233.595 22.1255 233.581 21.9085V20.2125H234.516V23.371H233.678ZM236.785 23.371V20.2125H237.624V20.691C237.79 20.5029 237.993 20.3518 238.221 20.2477C238.412 20.1746 238.615 20.1381 238.82 20.1403C239.148 20.1411 239.473 20.1979 239.782 20.3082L239.46 20.8119C239.24 20.7348 239.008 20.6951 238.775 20.6944C238.585 20.6914 238.397 20.7274 238.222 20.8002C238.077 20.8562 237.954 20.9598 237.875 21.094C237.77 21.2854 237.716 21.5005 237.719 21.7187V23.3727L236.785 23.371ZM244.756 22.9815C244.436 23.14 244.097 23.2601 243.749 23.3391C243.409 23.4103 243.063 23.4452 242.716 23.4432C242.11 23.4432 241.645 23.3593 241.317 23.1897C240.99 23.0201 240.828 22.8035 240.828 22.5398C240.829 22.4603 240.846 22.3817 240.878 22.3087C240.909 22.2357 240.955 22.1698 241.013 22.115C241.149 21.9784 241.314 21.8735 241.495 21.8077C241.712 21.7284 241.938 21.6721 242.167 21.6398C242.35 21.6129 242.627 21.5844 242.996 21.5592C243.556 21.5305 244.113 21.4689 244.665 21.3745C244.665 21.3006 244.665 21.2553 244.665 21.2351C244.672 21.1406 244.651 21.0462 244.604 20.9642C244.556 20.8821 244.485 20.8162 244.4 20.775C244.063 20.6352 243.699 20.5732 243.335 20.5936C243.005 20.5774 242.674 20.6224 242.36 20.7263C242.149 20.8156 241.982 20.9838 241.895 21.1948L240.981 21.1226C241.06 20.9047 241.203 20.7156 241.391 20.5802C241.641 20.4179 241.923 20.3093 242.217 20.2612C242.63 20.1823 243.05 20.1451 243.47 20.1503C243.855 20.143 244.24 20.1751 244.618 20.2461C244.849 20.2852 245.069 20.3666 245.27 20.4862C245.402 20.5751 245.503 20.7023 245.56 20.8506C245.598 21.0122 245.614 21.1784 245.606 21.3442V22.0579C245.591 22.3737 245.611 22.6903 245.666 23.0016C245.713 23.1455 245.794 23.2757 245.903 23.3811H244.926C244.829 23.2708 244.765 23.136 244.739 22.9915L244.756 22.9815ZM244.677 21.7859C244.173 21.8884 243.662 21.9563 243.149 21.9891C242.875 22.0049 242.602 22.0402 242.333 22.0949C242.198 22.1202 242.071 22.1778 241.964 22.2628C241.924 22.2928 241.892 22.3311 241.87 22.3749C241.847 22.4188 241.834 22.467 241.833 22.5163C241.833 22.6591 241.928 22.7783 242.116 22.874C242.378 22.9826 242.661 23.0314 242.944 23.0167C243.27 23.0222 243.595 22.9769 243.906 22.8824C244.143 22.8189 244.358 22.6903 244.526 22.5113C244.638 22.356 244.691 22.1664 244.677 21.9756V21.7859Z" fill="#212121"/>
</g>
<path d="M276.998 12.4874L277.118 12.4878L277.213 12.4553L277.309 12.4229L277.393 12.3373L277.477 12.2518L277.522 12.1378L277.566 12.0239L277.568 11.8561L277.569 11.6885L277.53 11.6229L277.49 11.5574L277.422 11.5149L277.353 11.4723H277.056L276.955 11.5175L276.854 11.5627L276.795 11.6256L276.737 11.6885L276.691 11.797L276.645 11.9055L276.636 12.0746L276.627 12.2437L276.67 12.3278L276.713 12.4118L276.796 12.4493L276.878 12.4868L276.998 12.4874ZM296.096 17.3035H296.526V17.0398L296.576 16.7128C296.603 16.5329 296.648 16.248 296.676 16.0799C296.704 15.9116 296.739 15.6985 296.753 15.6061C296.768 15.5139 296.806 15.3141 296.839 15.1621C296.871 15.0101 296.912 14.8459 296.929 14.797C296.946 14.7481 296.96 14.6969 296.96 14.6831C296.961 14.6693 296.997 14.5806 297.042 14.486L297.123 14.314L297.231 14.1714L297.338 14.0289L297.455 13.9406C297.52 13.892 297.624 13.8277 297.686 13.7974L297.8 13.7425L298.046 13.7442L298.293 13.746L298.39 13.7771L298.487 13.8083L298.504 13.7982L298.52 13.7881L298.521 13.7251C298.521 13.6905 298.542 13.5616 298.568 13.4387L298.614 13.2152L298.562 13.1949C298.512 13.1765 298.462 13.1593 298.411 13.1436L298.313 13.1124L298.135 13.1129L297.958 13.1133L297.813 13.1643L297.668 13.2152L297.559 13.2808L297.451 13.3464L297.309 13.4944L297.168 13.6424L297.092 13.7572C297.05 13.8204 297.014 13.8692 297.01 13.8657C297.007 13.8623 297.03 13.7307 297.061 13.5733C297.092 13.4159 297.117 13.2671 297.118 13.2427L297.119 13.1983H296.389V13.2109C296.389 13.2178 296.37 13.3444 296.348 13.4921C296.326 13.6399 296.281 13.9251 296.249 14.126C296.21 14.3662 296.171 14.6063 296.131 14.8464C296.096 15.0539 296.06 15.2612 296.022 15.468C295.995 15.6145 295.946 15.8722 295.914 16.0404C295.882 16.2087 295.829 16.4796 295.797 16.6424L295.701 17.121L295.665 17.3035H296.096ZM286.092 17.3035H286.514L286.527 17.1252C286.534 17.0272 286.557 16.8295 286.58 16.6861C286.602 16.5426 286.647 16.2565 286.68 16.0503C286.723 15.7953 286.768 15.5409 286.818 15.2873C286.86 15.074 286.908 14.862 286.925 14.8161C286.941 14.7703 286.954 14.7206 286.954 14.7058C286.954 14.6909 286.986 14.6098 287.024 14.5257C287.063 14.4415 287.135 14.3126 287.185 14.2393L287.275 14.1059L287.395 13.9943L287.516 13.8829L287.664 13.812L287.812 13.741L288.039 13.7422L288.266 13.7434L288.378 13.7767C288.439 13.7951 288.495 13.8101 288.501 13.8101C288.508 13.8101 288.513 13.7891 288.513 13.7635C288.513 13.7379 288.535 13.6079 288.562 13.4746C288.59 13.3413 288.612 13.2267 288.612 13.2198C288.612 13.2129 288.547 13.1877 288.469 13.1638C288.39 13.1399 288.281 13.1149 288.227 13.1081L288.128 13.0959L288 13.1186C287.929 13.1311 287.824 13.1587 287.767 13.1799C287.709 13.2011 287.614 13.2491 287.555 13.2867C287.496 13.3243 287.405 13.3975 287.352 13.4493C287.299 13.5012 287.21 13.6059 287.154 13.6819C287.111 13.7409 287.068 13.8001 287.025 13.8595L286.996 13.8989L287.013 13.82C287.023 13.7766 287.049 13.6344 287.072 13.5042C287.094 13.374 287.118 13.2518 287.124 13.2329L287.134 13.1983H286.381V13.2458C286.381 13.272 286.359 13.4296 286.332 13.5961C286.305 13.7627 286.26 14.041 286.233 14.2147C286.205 14.3884 286.156 14.6904 286.124 14.8858C286.09 15.0933 286.053 15.3007 286.015 15.5075C285.941 15.9025 285.865 16.2973 285.787 16.6917C285.754 16.86 285.714 17.0586 285.699 17.1333C285.683 17.2079 285.671 17.2768 285.671 17.2862V17.3036H286.092V17.3035ZM276.163 17.3035H276.588L276.6 17.2724C276.606 17.2551 276.612 17.2101 276.612 17.1723C276.612 17.1344 276.639 16.9374 276.671 16.7347C276.746 16.2727 276.822 15.811 276.9 15.3496C276.934 15.1552 276.969 14.961 277.006 14.7673C277.037 14.6045 277.086 14.3514 277.113 14.2049C277.141 14.0583 277.195 13.7795 277.233 13.5853C277.272 13.391 277.309 13.2244 277.314 13.2149L277.325 13.1975L276.896 13.2028L276.467 13.2081L276.431 13.4647C276.411 13.6059 276.368 13.8857 276.335 14.0864C276.302 14.2872 276.253 14.5937 276.225 14.7673C276.191 14.9749 276.155 15.1822 276.117 15.3891C276.085 15.5573 276.037 15.8148 276.009 15.9614C275.981 16.108 275.932 16.3656 275.899 16.5339C275.866 16.7022 275.822 16.9241 275.801 17.0273C275.78 17.1304 275.757 17.2347 275.751 17.2592L275.739 17.3035H276.163ZM270.855 17.3035H271.334L271.369 17.0914C271.387 16.9747 271.424 16.7504 271.451 16.593L271.559 15.9417C271.593 15.7408 271.643 15.4433 271.671 15.2806C271.699 15.1177 271.743 14.8651 271.769 14.7193C271.795 14.5733 271.822 14.449 271.828 14.4429L271.839 14.4319H274.418L274.432 14.4462L274.446 14.4605L274.424 14.5744C274.412 14.6372 274.375 14.8305 274.343 15.0042C274.311 15.1779 274.257 15.4709 274.223 15.6556C274.187 15.8498 274.151 16.0438 274.114 16.2378C274.088 16.3734 274.035 16.6576 273.997 16.8693C273.959 17.081 273.927 17.2653 273.927 17.2789L273.928 17.3035H274.891L274.912 17.1802C274.924 17.1124 274.943 16.9902 274.954 16.9089C274.965 16.8274 274.993 16.6541 275.015 16.5239C275.037 16.3937 275.081 16.1361 275.112 15.9515C275.144 15.767 275.198 15.4516 275.231 15.2509C275.264 15.05 275.313 14.757 275.34 14.5996C275.375 14.402 275.41 14.2046 275.447 14.0075C275.479 13.8392 275.532 13.555 275.565 13.3758C275.598 13.1968 275.648 12.9259 275.675 12.7739C275.702 12.6219 275.752 12.3466 275.786 12.162C275.82 11.9775 275.862 11.7622 275.881 11.6834L275.914 11.5403H274.939L274.925 11.6341C274.918 11.6856 274.895 11.83 274.873 11.9548C274.852 12.0797 274.813 12.3016 274.786 12.4482C274.76 12.5948 274.712 12.8745 274.679 13.07C274.648 13.2614 274.617 13.453 274.588 13.6448L274.555 13.8643L273.839 13.8788L273.123 13.8932L272.524 13.879C272.194 13.8712 271.923 13.8632 271.92 13.8614C271.918 13.8594 271.929 13.7828 271.945 13.6909C271.966 13.5725 271.989 13.4543 272.012 13.3364C272.043 13.1852 272.072 13.0339 272.101 12.8824C272.128 12.7359 272.159 12.5538 272.17 12.4779C272.181 12.4019 272.203 12.2753 272.219 12.1965C272.236 12.1179 272.267 11.9521 272.289 11.8282C272.311 11.7043 272.334 11.5888 272.341 11.5716L272.353 11.5403H271.386L271.355 11.713C271.338 11.808 271.315 11.9434 271.304 12.014C271.294 12.0846 271.258 12.311 271.224 12.5173C271.191 12.7235 271.142 13.03 271.115 13.1982L271.007 13.8791C270.969 14.1163 270.928 14.3532 270.886 14.5896C270.851 14.7839 270.815 14.978 270.779 15.1719C270.753 15.3076 270.704 15.5651 270.67 15.7444C270.634 15.932 270.597 16.1195 270.559 16.3068C270.533 16.4371 270.503 16.588 270.494 16.6423C270.484 16.6966 270.454 16.8532 270.426 16.9902C270.398 17.1273 270.375 17.2538 270.375 17.2715V17.3034H270.855V17.3035ZM299.566 17.3995L299.753 17.402L299.931 17.373C300.029 17.3573 300.153 17.3317 300.207 17.3164C300.262 17.3009 300.359 17.2611 300.424 17.2277L300.543 17.1671L300.645 17.0774L300.747 16.9877L300.854 16.8447C300.913 16.7659 300.966 16.6883 300.973 16.672L300.984 16.6423L300.974 16.741C300.967 16.807 300.958 16.8729 300.947 16.9385C300.937 16.9927 300.924 17.0971 300.916 17.1703L300.903 17.3035H301.678V17.0371L301.737 16.5338C301.769 16.2569 301.817 15.8884 301.843 15.7146C301.869 15.5409 301.91 15.2923 301.933 15.1621C301.956 15.0318 301.998 14.7964 302.024 14.639C302.052 14.4817 302.1 14.2063 302.133 14.0272C302.166 13.848 302.218 13.5639 302.249 13.3956C302.28 13.2273 302.329 12.9653 302.357 12.8134C302.385 12.6614 302.435 12.3949 302.469 12.2213C302.504 12.0401 302.54 11.8591 302.577 11.6784C302.604 11.5537 302.625 11.4448 302.625 11.4367V11.4219H301.78L301.768 11.5453C301.761 11.6131 301.728 11.8373 301.696 12.0437C301.657 12.2872 301.618 12.5306 301.578 12.7739C301.554 12.9142 301.531 13.0546 301.508 13.195L301.497 13.2608L301.464 13.2466C301.446 13.2388 301.346 13.2112 301.243 13.1853L301.056 13.1382L300.799 13.1182L300.543 13.0983L300.326 13.1185L300.109 13.1387L299.911 13.1886L299.714 13.2385L299.526 13.33L299.339 13.4214L299.201 13.5236L299.062 13.6259L298.943 13.7539C298.877 13.8243 298.783 13.9406 298.732 14.0125L298.641 14.1432L298.534 14.3664C298.475 14.4892 298.403 14.6518 298.374 14.7278C298.345 14.8039 298.295 14.9723 298.261 15.1021L298.201 15.3383L298.171 15.645L298.142 15.9516L298.164 16.1982L298.186 16.445L298.213 16.5339C298.227 16.5826 298.258 16.6697 298.281 16.7271L298.322 16.8319L298.398 16.9347L298.474 17.0375L298.561 17.1086L298.648 17.1797L298.766 17.2385C298.832 17.2707 298.941 17.3127 299.009 17.3313C299.077 17.3501 299.189 17.3726 299.256 17.3814C299.323 17.3901 299.463 17.3983 299.566 17.3995ZM299.902 16.8397L299.753 16.8475L299.653 16.8294C299.597 16.8195 299.509 16.7927 299.456 16.7701L299.36 16.7289L299.279 16.6625L299.198 16.5963L299.078 16.3661L299.05 16.2378L299.023 16.1094L299.025 15.8528L299.028 15.5963L299.06 15.3693L299.091 15.1423L299.141 14.9844C299.168 14.8976 299.191 14.8156 299.191 14.8023C299.191 14.7891 299.218 14.718 299.25 14.6445C299.289 14.5594 299.329 14.4753 299.372 14.3923C299.406 14.3271 299.469 14.2257 299.513 14.1667C299.557 14.1077 299.635 14.0189 299.686 13.9693C299.737 13.9198 299.819 13.8546 299.868 13.8248L299.956 13.7704L300.111 13.7167L300.267 13.663L300.592 13.6628H300.918L301.105 13.7149C301.209 13.7434 301.318 13.7766 301.349 13.7886L301.405 13.8103L301.394 13.8644C301.388 13.8943 301.364 14.0252 301.342 14.1554C301.319 14.2857 301.274 14.5344 301.242 14.7081C301.21 14.8818 301.161 15.1439 301.133 15.2904C301.105 15.4368 301.065 15.6234 301.043 15.7047C301.021 15.7885 300.998 15.872 300.975 15.9554C300.96 16.0117 300.922 16.1096 300.893 16.1725C300.863 16.2355 300.81 16.327 300.776 16.3758C300.742 16.4246 300.685 16.4924 300.649 16.5262C300.612 16.5601 300.534 16.6202 300.474 16.6599L300.365 16.7321L300.052 16.8317L299.902 16.8397ZM292.895 17.3925L293.161 17.3848L293.329 17.3419L293.497 17.2989L293.605 17.2477C293.665 17.2196 293.763 17.1637 293.822 17.1238C293.882 17.084 293.974 17.0082 294.028 16.9554C294.081 16.9026 294.16 16.8126 294.203 16.7553C294.246 16.6979 294.284 16.6537 294.287 16.6569C294.291 16.6601 294.281 16.7513 294.265 16.8596C294.25 16.9681 294.237 17.1123 294.237 17.1801L294.237 17.3034H294.961L294.972 17.0223L294.983 16.741L295.035 16.3758C295.063 16.175 295.109 15.8775 295.137 15.7146C295.165 15.5519 295.213 15.2766 295.244 15.1028C295.275 14.9291 295.324 14.6583 295.353 14.5008L295.406 14.2147L295.408 13.9675L295.41 13.7203L295.354 13.606L295.298 13.4918L295.223 13.419L295.147 13.3462L295.022 13.2832L294.898 13.2201L294.527 13.1376L294.272 13.1182L294.016 13.0988L293.687 13.1192C293.506 13.1303 293.252 13.1524 293.122 13.1683L292.885 13.197L292.562 13.1982L292.538 13.3117C292.525 13.3741 292.489 13.5224 292.459 13.6413C292.428 13.7601 292.405 13.8602 292.409 13.8637C292.412 13.8672 292.498 13.8476 292.6 13.8202C292.702 13.7927 292.919 13.7476 293.082 13.7198L293.378 13.6694L293.645 13.6585L293.911 13.6474L294.254 13.7076L294.369 13.7642L294.483 13.8207L294.548 13.9163L294.612 14.0119L294.611 14.1626L294.61 14.3134L294.576 14.4788L294.542 14.6442L293.832 14.6468L293.121 14.6493L292.889 14.713C292.761 14.7481 292.62 14.7946 292.574 14.8164C292.529 14.8383 292.484 14.8562 292.474 14.8562C292.464 14.8562 292.388 14.8983 292.305 14.9499L292.154 15.0435L292.036 15.162C291.97 15.2272 291.887 15.3249 291.85 15.3791C291.814 15.4334 291.754 15.5467 291.718 15.6312L291.652 15.7844L291.622 15.9567L291.592 16.1291V16.4908L291.621 16.6413L291.65 16.7918L291.703 16.8901C291.732 16.944 291.786 17.0232 291.823 17.0659L291.889 17.1436L292.007 17.2153L292.125 17.287L292.261 17.3251C292.335 17.3461 292.448 17.3717 292.512 17.3818L292.628 17.4001L292.895 17.3925V17.3925ZM293.141 16.8406L292.983 16.8489L292.879 16.8222C292.821 16.8076 292.734 16.7749 292.685 16.7497L292.596 16.7037L292.547 16.6457C292.52 16.6138 292.479 16.5512 292.456 16.5065L292.413 16.4252L292.405 16.2356L292.397 16.0458L292.43 15.9307C292.449 15.8675 292.492 15.7575 292.526 15.6866L292.589 15.5576L292.709 15.4388L292.828 15.3199L292.955 15.2588L293.082 15.1976L293.24 15.1601L293.398 15.1226H294.385L294.416 15.1355L294.447 15.1484L294.421 15.3033C294.407 15.3884 294.372 15.5425 294.344 15.6457C294.317 15.7488 294.268 15.9004 294.236 15.9825C294.204 16.0647 294.178 16.1373 294.178 16.1439C294.178 16.1505 294.145 16.2104 294.105 16.2769L294.033 16.398L293.915 16.5153C293.85 16.5798 293.79 16.6325 293.781 16.6325C293.772 16.6325 293.732 16.6549 293.692 16.6819L293.619 16.7312L293.459 16.7819L293.299 16.8325L293.141 16.8406ZM289.648 17.3999L289.865 17.4022L290.112 17.3729C290.247 17.3569 290.428 17.3303 290.513 17.3137C290.616 17.293 290.718 17.2688 290.819 17.2411C290.902 17.2176 290.977 17.1921 290.986 17.1847C290.995 17.1771 291.018 17.0875 291.038 16.9856C291.058 16.8836 291.084 16.7469 291.094 16.6819C291.105 16.6167 291.111 16.5599 291.107 16.5557C291.103 16.5514 291.088 16.5569 291.074 16.5678C291.06 16.5789 290.964 16.6196 290.859 16.6584L290.669 16.729L290.398 16.7815L290.128 16.8339L289.898 16.8261L289.668 16.8181L289.537 16.7728L289.406 16.7274L289.305 16.6391L289.204 16.5508L289.137 16.4287L289.07 16.3067L289.038 16.1434L289.006 15.9803L289.007 15.7685L289.007 15.5567L289.046 15.3001L289.084 15.0435L289.125 14.9053C289.148 14.8294 289.174 14.7406 289.182 14.708C289.191 14.6754 289.227 14.5822 289.263 14.5007C289.298 14.4193 289.362 14.2935 289.404 14.2211L289.48 14.0896L289.574 13.9923L289.668 13.8951L289.767 13.8335L289.866 13.7718L289.994 13.7325C290.064 13.7109 290.188 13.6828 290.27 13.6702L290.418 13.6471L290.635 13.658L290.852 13.6689L291.108 13.7203L291.365 13.7716L291.469 13.8105C291.527 13.8319 291.576 13.8495 291.579 13.8495C291.582 13.8495 291.596 13.7762 291.61 13.6866C291.624 13.5971 291.648 13.4497 291.664 13.3592C291.681 13.2686 291.69 13.1906 291.685 13.1859C291.68 13.1811 291.603 13.1689 291.514 13.1587C291.424 13.1485 291.181 13.1304 290.973 13.1184L290.595 13.0967L290.329 13.1172L290.062 13.1376L289.865 13.1791L289.668 13.2206L289.54 13.2714C289.47 13.2993 289.368 13.3498 289.313 13.3835C289.26 13.4157 289.208 13.4493 289.157 13.4843C289.126 13.506 289.033 13.5907 288.95 13.6725L288.799 13.8213L288.714 13.9449C288.668 14.0129 288.587 14.1546 288.536 14.26L288.442 14.4514L288.37 14.6586C288.33 14.7726 288.275 14.9591 288.247 15.0731L288.196 15.2803L288.177 15.4679L288.159 15.6554L288.159 15.9021L288.159 16.1487L288.178 16.2923L288.196 16.4358L288.256 16.5834L288.315 16.7311L288.383 16.8378L288.451 16.9445L288.56 17.0514L288.668 17.1583L288.783 17.219L288.898 17.2796L289.049 17.3216C289.132 17.3446 289.252 17.3711 289.315 17.3803C289.379 17.3896 289.529 17.3983 289.648 17.3996H289.648V17.3999ZM283.372 17.3997L283.589 17.4022L283.806 17.3824C283.925 17.3715 284.121 17.3488 284.24 17.3319C284.359 17.3151 284.566 17.2774 284.698 17.2483L284.94 17.1953L284.952 17.1062C284.958 17.0573 284.985 16.9117 285.012 16.7826L285.06 16.5479L285.049 16.5373L285.039 16.5267L284.965 16.5623C284.924 16.5818 284.798 16.6286 284.684 16.6661L284.477 16.7342L284.26 16.7764L284.043 16.8184L283.697 16.8192L283.352 16.8198L283.233 16.782C283.168 16.7612 283.072 16.7232 283.021 16.6974L282.926 16.6508L282.77 16.5098L282.709 16.4035L282.649 16.2972L282.61 16.1639L282.572 16.0305L282.572 15.7837L282.572 15.5369L282.606 15.3168L282.64 15.0966L283.233 15.0688L284.331 15.076L285.429 15.083L285.462 14.9424C285.481 14.865 285.509 14.7052 285.524 14.5871L285.553 14.3724L285.554 14.1919L285.554 14.0113L285.523 13.8765L285.492 13.7417L285.44 13.6525C285.412 13.6034 285.362 13.5323 285.329 13.4944C285.296 13.4565 285.238 13.4032 285.199 13.3758C285.16 13.3484 285.084 13.3024 285.03 13.2735L284.931 13.221L284.759 13.1795L284.586 13.138L284.374 13.1177L284.161 13.0974L283.964 13.1102L283.767 13.123L283.53 13.1685L283.293 13.214L283.145 13.2732C283.063 13.3057 282.939 13.3651 282.869 13.4051C282.798 13.4451 282.7 13.5102 282.652 13.5498C282.603 13.5894 282.518 13.6663 282.463 13.7208C282.409 13.7753 282.328 13.8731 282.284 13.9383C282.24 14.0034 282.173 14.1188 282.134 14.1948C282.096 14.2709 282.046 14.3774 282.023 14.4317C282 14.4859 281.958 14.597 281.931 14.6784C281.903 14.7598 281.859 14.9152 281.833 15.0238C281.803 15.1554 281.777 15.2877 281.755 15.4209L281.724 15.6206L281.724 15.9143L281.724 16.208L281.754 16.3363C281.771 16.4068 281.802 16.5134 281.824 16.5731C281.846 16.6328 281.887 16.7216 281.915 16.7706C281.943 16.8193 282.002 16.8979 282.047 16.9453C282.092 16.9925 282.173 17.0644 282.227 17.1047C282.281 17.1451 282.378 17.202 282.442 17.231L282.558 17.2838L282.72 17.323C282.809 17.3445 282.943 17.37 283.018 17.3797C283.093 17.3893 283.252 17.3984 283.372 17.3997ZM283.743 14.6193C283.197 14.6193 282.75 14.6155 282.75 14.6106C282.75 14.6059 282.773 14.537 282.802 14.4576C282.83 14.3783 282.88 14.2603 282.913 14.1953L282.972 14.0771L283.103 13.9472L283.233 13.8173L283.362 13.756C283.432 13.7223 283.526 13.6855 283.569 13.6743C283.612 13.6632 283.737 13.6484 283.845 13.6415L284.043 13.6288L284.194 13.6483L284.346 13.6678L284.456 13.7182L284.566 13.7687L284.627 13.8338C284.66 13.8696 284.699 13.9224 284.715 13.951L284.742 14.0031L284.76 14.1188L284.779 14.2344L284.758 14.4269L284.737 14.6193H283.743ZM277.87 19.1391L277.882 19.1078C277.889 19.0907 277.894 19.0504 277.894 19.0181C277.894 18.986 277.908 18.8691 277.925 18.7584C277.943 18.6475 277.983 18.3925 278.015 18.1918C278.047 17.991 278.094 17.6889 278.121 17.5207C278.146 17.3613 278.17 17.2018 278.193 17.0421C278.206 16.9471 278.222 16.8694 278.228 16.8694C278.235 16.8694 278.262 16.9114 278.289 16.9626L278.338 17.0559L278.448 17.1662L278.557 17.2765L278.692 17.3304L278.827 17.3843L278.987 17.4051L279.148 17.4259L279.351 17.4134L279.555 17.4008L279.776 17.3438L279.996 17.2867L280.115 17.2326C280.18 17.203 280.295 17.1381 280.371 17.0886L280.509 16.9987L280.638 16.8698C280.709 16.7991 280.809 16.6855 280.86 16.6175C280.912 16.5496 280.954 16.489 280.954 16.483C280.954 16.4769 280.979 16.4348 281.01 16.3894C281.04 16.344 281.103 16.2179 281.15 16.1095C281.196 16.001 281.268 15.8055 281.31 15.6753L281.387 15.4384L281.426 15.2333C281.448 15.1205 281.476 14.934 281.488 14.8188L281.511 14.6095L281.498 14.4319L281.485 14.2542L281.444 14.0766L281.402 13.8989L281.336 13.766L281.269 13.633L281.14 13.4964L281.012 13.3599L280.707 13.2025L280.539 13.1622L280.371 13.1221L280.203 13.1098L280.036 13.0975L279.849 13.119L279.662 13.1404L279.509 13.1794L279.357 13.2183L279.224 13.2797C279.152 13.3133 279.045 13.3707 278.989 13.407C278.932 13.4433 278.873 13.485 278.859 13.4997C278.844 13.5145 278.808 13.5419 278.78 13.5604L278.728 13.5944L278.764 13.421C278.784 13.3256 278.801 13.2366 278.801 13.2229L278.802 13.1983H278.078L278.015 13.598C277.98 13.8178 277.925 14.1575 277.893 14.3529C277.821 14.784 277.749 15.2149 277.675 15.6457C277.643 15.8355 277.59 16.1376 277.557 16.3167C277.524 16.4958 277.476 16.7578 277.45 16.899C277.424 17.04 277.375 17.3065 277.341 17.491C277.301 17.7082 277.261 17.9253 277.22 18.1424C277.181 18.3464 277.142 18.5503 277.102 18.7542C277.07 18.9169 277.038 19.0702 277.032 19.0945L277.022 19.139H277.87V19.1391ZM279.108 16.8671L279 16.848L278.893 16.829L278.783 16.779L278.674 16.7291L278.598 16.6561L278.521 16.5832L278.477 16.4845C278.453 16.4303 278.422 16.338 278.408 16.2795L278.383 16.1734L278.393 16.0033L278.403 15.8333L278.454 15.5668C278.492 15.363 278.529 15.1591 278.565 14.955C278.599 14.765 278.649 14.4866 278.678 14.3364L278.729 14.0632L278.842 13.969C278.905 13.9173 279.003 13.8479 279.062 13.8149L279.167 13.7548L279.305 13.712L279.444 13.6692L279.799 13.6484L279.944 13.6792L280.088 13.71L280.19 13.757L280.292 13.8041L280.378 13.8901L280.464 13.9762L280.51 14.0673C280.535 14.1174 280.571 14.2155 280.589 14.2853L280.622 14.4121L280.612 14.7872L280.602 15.1622L280.551 15.3839C280.523 15.5058 280.47 15.6923 280.433 15.7982L280.366 15.9911L280.284 16.1472C280.238 16.2331 280.168 16.3491 280.128 16.4049C280.088 16.4608 280.024 16.5335 279.986 16.566C279.94 16.6052 279.893 16.643 279.845 16.6794L279.773 16.7334L279.438 16.8473L279.108 16.8671Z" fill="#212121"/>
<path d="M327.895 12.0093C328.259 11.89 328.648 11.8253 329.053 11.8253C330.821 11.8253 332.295 13.0569 332.633 14.6931L335.138 14.1921C334.563 11.4113 332.058 9.31812 329.053 9.31812C328.365 9.31812 327.703 9.42804 327.085 9.63055L327.895 12.0093Z" fill="#212121"/>
<path d="M324.914 20.068L326.414 18.1316C325.745 17.4545 325.322 16.466 325.322 15.3642C325.322 14.2631 325.744 13.2746 326.414 12.598L324.913 10.6619C323.776 11.8122 323.059 13.4926 323.059 15.3642C323.059 17.2367 323.777 18.9176 324.914 20.068Z" fill="#212121"/>
<path d="M332.634 16.0369C332.295 17.6727 330.821 18.9028 329.055 18.9028C328.65 18.9028 328.26 18.8379 327.896 18.7182L327.085 21.0982C327.704 21.3017 328.367 21.4118 329.055 21.4118C332.057 21.4118 334.561 19.32 335.138 16.5404L332.634 16.0369Z" fill="#212121"/>
<path fill-rule="evenodd" clip-rule="evenodd" d="M347.189 10.6619V17.5435L348.424 18.0385L347.839 19.3958L346.618 18.9049C346.344 18.7897 346.158 18.6143 346.017 18.4161C345.881 18.2134 345.781 17.9363 345.781 17.5624V10.6619H347.189ZM337.823 15.7765C337.853 13.8085 339.529 12.2377 341.563 12.2678C343.289 12.294 344.719 13.463 345.095 15.0179L338.419 17.7769C338.031 17.2037 337.811 16.514 337.823 15.7765ZM339.35 16.0524C339.341 15.9698 339.335 15.8851 339.337 15.7997C339.356 14.6403 340.343 13.7151 341.541 13.7343C342.193 13.7427 342.772 14.0315 343.164 14.4785L339.35 16.0524ZM343.023 17.33C342.621 17.7084 342.075 17.939 341.473 17.9307C341.06 17.924 340.677 17.8045 340.352 17.6053L339.546 18.8479C340.098 19.1855 340.749 19.3852 341.451 19.3957C342.473 19.4104 343.405 19.0222 344.082 18.3812L343.023 17.33ZM352.328 13.7343C352.088 13.7343 351.857 13.7718 351.641 13.842L351.16 12.4496C351.527 12.3311 351.92 12.2668 352.328 12.2668C354.112 12.2668 355.6 13.492 355.941 15.1195L354.454 15.4127C354.253 14.4549 353.378 13.7343 352.328 13.7343ZM349.886 18.5014L350.891 17.4023C350.442 17.018 350.16 16.4567 350.16 15.8311C350.16 15.2062 350.442 14.6452 350.891 14.2612L349.885 13.1621C349.122 13.8151 348.642 14.7693 348.642 15.8311C348.642 16.8943 349.123 17.8482 349.886 18.5014ZM352.328 17.9288C353.377 17.9288 354.252 17.2088 354.454 16.2524L355.941 16.5469C355.598 18.1726 354.11 19.3961 352.328 19.3961C351.919 19.3961 351.526 19.3316 351.158 19.2126L351.64 17.8207C351.856 17.8906 352.088 17.9288 352.328 17.9288Z" fill="#212121"/>
<defs>
<clipPath id="clip0_607_3426">
<path d="M212 4C212 1.79086 213.791 0 216 0H251C253.209 0 255 1.79086 255 4V24.8906C255 27.0998 253.209 28.8906 251 28.8906H216C213.791 28.8906 212 27.0998 212 24.8906V4Z" fill="white"/>
</clipPath>
</defs>
</svg>
