<svg width="103" height="320" viewBox="0 0 103 320" fill="none" xmlns="http://www.w3.org/2000/svg">
<g filter="url(#filter0_dd_326_7080)">
<path d="M99 311.884L4.95229 311.884L4.95229 256.385C4.95229 250.462 6.31926 245.267 9.0532 240.802C11.696 236.245 15.3868 232.691 20.1257 230.139C24.8645 227.588 30.378 226.312 36.666 226.312C43.1364 226.312 48.7865 227.633 53.6165 230.276C58.3553 232.828 62.0462 236.382 64.689 240.939C67.3318 245.404 68.6532 250.553 68.6532 256.385L68.6532 281.674L99 281.674L99 311.884ZM46.6449 281.674L46.6449 266.501C46.6449 263.311 45.8248 260.942 44.1844 259.393C42.544 257.752 40.129 256.932 36.9394 256.932C34.7523 256.932 32.9752 257.297 31.6082 258.026C30.1501 258.664 29.0566 259.712 28.3275 261.17C27.5985 262.537 27.2339 264.314 27.2339 266.501L27.2339 281.674L46.6449 281.674ZM99 231.003L4.95228 231.003L4.95228 200.793L99 200.793L99 231.003ZM99 198.314L4.95228 198.314L4.95228 172.614L38.7165 143.361C39.6278 142.541 40.9492 141.447 42.6807 140.081C44.4122 138.714 46.1893 137.347 48.0119 135.98C49.7434 134.522 51.156 133.428 52.2495 132.699L51.9761 132.015C49.4245 132.107 46.9183 132.152 44.4578 132.152C41.9061 132.152 39.9923 132.152 38.7165 132.152L4.95228 132.152L4.95228 104.676L99 104.676L99 130.238L61.4082 163.182C59.5856 164.732 57.9452 166.053 56.4871 167.147C54.9379 168.24 53.4798 169.288 52.1128 170.291L52.3862 170.974C54.1177 170.883 55.8492 170.837 57.5807 170.837C59.3122 170.837 60.5881 170.837 61.4082 170.837L99 170.837L99 198.314ZM99 102.214L4.95228 102.214L4.95228 72.0042L45.1413 72.0042L4.95228 38.5134L4.95227 1.05835L43.6376 34.8226L99 0.374848L99 36.0528L63.8688 56.0106L79.3156 72.0042L99 72.0042L99 102.214Z" fill="#E69DA6"/>
</g>
<defs>
<filter id="filter0_dd_326_7080" x="0.952271" y="0.374878" width="102.048" height="319.51" filterUnits="userSpaceOnUse" color-interpolation-filters="sRGB">
<feFlood flood-opacity="0" result="BackgroundImageFix"/>
<feColorMatrix in="SourceAlpha" type="matrix" values="0 0 0 0 0 0 0 0 0 0 0 0 0 0 0 0 0 0 127 0" result="hardAlpha"/>
<feOffset dy="4"/>
<feGaussianBlur stdDeviation="2"/>
<feComposite in2="hardAlpha" operator="out"/>
<feColorMatrix type="matrix" values="0 0 0 0 0 0 0 0 0 0 0 0 0 0 0 0 0 0 0.25 0"/>
<feBlend mode="normal" in2="BackgroundImageFix" result="effect1_dropShadow_326_7080"/>
<feColorMatrix in="SourceAlpha" type="matrix" values="0 0 0 0 0 0 0 0 0 0 0 0 0 0 0 0 0 0 127 0" result="hardAlpha"/>
<feOffset dy="4"/>
<feGaussianBlur stdDeviation="2"/>
<feComposite in2="hardAlpha" operator="out"/>
<feColorMatrix type="matrix" values="0 0 0 0 0 0 0 0 0 0 0 0 0 0 0 0 0 0 0.25 0"/>
<feBlend mode="normal" in2="effect1_dropShadow_326_7080" result="effect2_dropShadow_326_7080"/>
<feBlend mode="normal" in="SourceGraphic" in2="effect2_dropShadow_326_7080" result="shape"/>
</filter>
</defs>
</svg>
