<svg width="47" height="33" viewBox="0 0 47 33" fill="none" xmlns="http://www.w3.org/2000/svg">
<path fill-rule="evenodd" clip-rule="evenodd" d="M19.6666 23.4346C19.8055 23.4346 19.9181 23.322 19.9181 23.1831V15.0154C19.9181 13.6516 21.0235 12.5461 22.3873 12.5459C22.3874 12.5459 22.3876 12.5459 22.3877 12.5459L24.7987 12.5495C26.1584 12.5522 27.2593 13.6552 27.2593 15.015V16.7536C27.2593 18.1175 26.1536 19.2232 24.7897 19.2232H21.3821C21.2432 19.2232 21.1306 19.3358 21.1306 19.4747C21.1306 19.6136 21.2432 19.7262 21.3821 19.7262H24.7897C26.4314 19.7262 27.7623 18.3953 27.7623 16.7536V15.015C27.7623 13.3778 26.4369 12.0497 24.7997 12.0464H24.7995L22.3881 12.0429H22.3877C20.7459 12.0429 19.415 13.3737 19.415 15.0154V23.1831C19.415 23.322 19.5276 23.4346 19.6666 23.4346Z" fill="#939598"/>
<path fill-rule="evenodd" clip-rule="evenodd" d="M30.3475 19.7627C30.4864 19.7627 30.5991 19.6501 30.5991 19.5112V13.4099C30.5991 12.6542 29.9866 12.0416 29.2309 12.0416H28.1848C28.0459 12.0416 27.9333 12.1542 27.9333 12.2932C27.9333 12.4321 28.0459 12.5447 28.1848 12.5447H29.2309C29.7087 12.5447 30.096 12.932 30.096 13.4099V19.5112C30.096 19.6501 30.2086 19.7627 30.3475 19.7627Z" fill="#939598"/>
<path d="M30.1232 11.3482L29.6488 10.8738C29.5311 10.7561 29.5311 10.5653 29.6488 10.4475L30.123 9.97346C30.2408 9.85555 30.4319 9.85555 30.5498 9.97346L31.0239 10.4475C31.1416 10.5653 31.1416 10.7561 31.0239 10.8738L30.5495 11.3482C30.4318 11.466 30.2409 11.466 30.1232 11.3482Z" fill="#32BCAD"/>
<path fill-rule="evenodd" clip-rule="evenodd" d="M38.2016 15.1259C37.9855 15.342 37.6352 15.342 37.4191 15.1259L34.9926 12.6994C34.9926 12.6994 34.9926 12.6994 34.9926 12.6994C34.5681 12.2749 33.9922 12.0364 33.3919 12.0364H32.3545C32.2156 12.0364 32.103 12.149 32.103 12.2879C32.103 12.4268 32.2156 12.5394 32.3545 12.5394H33.3919C33.8589 12.5394 34.3067 12.7249 34.6368 13.0551L37.0634 15.4815C37.0634 15.4815 37.0634 15.4815 37.0634 15.4815C37.4759 15.8942 38.1448 15.8942 38.5573 15.4816C38.5574 15.4816 38.5573 15.4816 38.5573 15.4816L40.975 13.064C41.3051 12.7338 41.753 12.5483 42.22 12.5483H43.0634C43.2023 12.5483 43.3149 12.4357 43.3149 12.2968C43.3149 12.1579 43.2023 12.0453 43.0634 12.0453H42.22C41.6196 12.0453 41.0438 12.2838 40.6193 12.7083L38.2016 15.1259Z" fill="#939598"/>
<path fill-rule="evenodd" clip-rule="evenodd" d="M32.103 19.458C32.103 19.5969 32.2156 19.7095 32.3545 19.7095H33.3919C33.9922 19.7095 34.5681 19.471 34.9926 19.0464C34.9926 19.0464 34.9926 19.0465 34.9926 19.0464L37.4191 16.6199C37.6352 16.4038 37.9855 16.4038 38.2017 16.6199L40.6193 19.0375C41.0438 19.4621 41.6196 19.7005 42.22 19.7005H43.0634C43.2023 19.7005 43.3149 19.5879 43.3149 19.449C43.3149 19.3101 43.2023 19.1975 43.0634 19.1975H42.22C41.753 19.1975 41.3052 19.012 40.975 18.6818L38.5573 16.2642C38.1448 15.8517 37.4759 15.8517 37.0634 16.2642L34.6369 18.6908C34.3067 19.0209 33.8589 19.2064 33.3919 19.2064H32.3545C32.2156 19.2064 32.103 19.319 32.103 19.458Z" fill="#939598"/>
<path d="M13.4816 21.0077C12.9609 21.0077 12.4713 20.805 12.1031 20.437L10.1126 18.4465C9.97288 18.3064 9.72926 18.3068 9.58957 18.4465L7.5918 20.4443C7.22359 20.8122 6.73392 21.015 6.21322 21.015H5.82098L8.34195 23.536C9.1293 24.3233 10.4058 24.3233 11.1932 23.536L13.7214 21.0077H13.4816Z" fill="#32BCAD"/>
<path d="M6.21322 13.967C6.73392 13.967 7.22359 14.1698 7.59174 14.5378L9.58951 16.5359C9.73338 16.6798 9.96833 16.6804 10.1126 16.5357L12.103 14.5451C12.4713 14.1771 12.9609 13.9743 13.4816 13.9743H13.7214L11.1932 11.4461C10.4058 10.6588 9.1293 10.6588 8.34195 11.4461L5.82104 13.967H6.21322Z" fill="#32BCAD"/>
<path d="M15.8125 16.0657L14.2847 14.5378C14.251 14.5513 14.2147 14.5597 14.1762 14.5597H13.4816C13.1225 14.5597 12.7709 14.7054 12.5172 14.9593L10.5267 16.9498C10.3405 17.1361 10.0957 17.2293 9.85116 17.2293C9.60642 17.2293 9.36186 17.1361 9.1756 16.95L7.17765 14.952C6.92385 14.6981 6.57237 14.5525 6.21322 14.5525H5.35908C5.32269 14.5525 5.28861 14.5439 5.25646 14.5318L3.72259 16.0657C2.93524 16.8529 2.93524 18.1295 3.72259 18.9169L5.2564 20.4507C5.28855 20.4386 5.32269 20.43 5.35908 20.43H6.21322C6.57237 20.43 6.92385 20.2843 7.17765 20.0304L9.17542 18.0327C9.53651 17.6719 10.1659 17.6717 10.5267 18.0328L12.5172 20.0231C12.7709 20.2771 13.1225 20.4227 13.4816 20.4227H14.1762C14.2147 20.4227 14.251 20.4311 14.2848 20.4446L15.8125 18.9169C16.5999 18.1295 16.5999 16.8529 15.8125 16.0657Z" fill="#32BCAD"/>
<path d="M21.7404 22.4888C21.6276 22.4888 21.4964 22.5159 21.3666 22.5458V23.0436C21.4566 23.0764 21.5592 23.0921 21.6577 23.0921C21.9072 23.0921 22.0256 23.008 22.0256 22.7882C22.0256 22.5814 21.9286 22.4888 21.7404 22.4888ZM21.2824 23.4131V22.4288H21.3509L21.3581 22.4717C21.4736 22.4445 21.6333 22.4089 21.7474 22.4089C21.8402 22.4089 21.9286 22.423 22.0028 22.483C22.0884 22.553 22.1155 22.6656 22.1155 22.7882C22.1155 22.9167 22.0727 23.038 21.9558 23.1049C21.8744 23.1506 21.7646 23.1691 21.6662 23.1691C21.5649 23.1691 21.4679 23.1533 21.3666 23.1235V23.4131H21.2824Z" fill="#939598"/>
<path d="M22.7421 22.4856C22.4924 22.4856 22.3812 22.5642 22.3812 22.7838C22.3812 22.9964 22.4911 23.092 22.7421 23.092C22.9903 23.092 23.1016 23.0149 23.1016 22.7952C23.1016 22.5827 22.9918 22.4856 22.7421 22.4856ZM23.063 23.092C22.9803 23.1518 22.8691 23.1689 22.7421 23.1689C22.6123 23.1689 22.501 23.1503 22.4197 23.092C22.3284 23.0278 22.2913 22.9221 22.2913 22.7896C22.2913 22.6583 22.3284 22.5514 22.4197 22.4856C22.501 22.4272 22.6123 22.4087 22.7421 22.4087C22.8705 22.4087 22.9803 22.4272 23.063 22.4856C23.1558 22.5514 23.1914 22.6583 23.1914 22.7881C23.1914 22.9208 23.1543 23.0278 23.063 23.092Z" fill="#939598"/>
<path d="M24.2447 23.1494L23.9665 22.5518H23.9608L23.6869 23.1494H23.6114L23.3147 22.429H23.4073L23.6541 23.0338H23.6599L23.928 22.429H24.005L24.2803 23.0338H24.2861L24.5272 22.429H24.617L24.3203 23.1494H24.2447Z" fill="#939598"/>
<path d="M25.155 22.4847C24.9239 22.4847 24.8455 22.5874 24.8312 22.7358H25.4788C25.4717 22.5718 25.3875 22.4847 25.155 22.4847ZM25.1522 23.1694C25.0138 23.1694 24.9239 23.1495 24.8526 23.0894C24.7684 23.0167 24.7399 22.9113 24.7399 22.7901C24.7399 22.6745 24.7784 22.5519 24.8741 22.4819C24.9539 22.4263 25.0523 22.4092 25.155 22.4092C25.2478 22.4092 25.3548 22.4191 25.4431 22.4791C25.5472 22.5489 25.5673 22.6716 25.5673 22.8113H24.8284C24.8312 22.9597 24.8797 23.091 25.1593 23.091C25.292 23.091 25.416 23.0695 25.5316 23.0496V23.1252C25.4117 23.1467 25.2791 23.1694 25.1522 23.1694Z" fill="#939598"/>
<path d="M25.8088 23.1494V22.429H25.8773L25.8845 22.4719C26.037 22.4333 26.1084 22.4091 26.2425 22.4091H26.2525V22.489H26.2325C26.1198 22.489 26.0514 22.5046 25.893 22.546V23.1494H25.8088Z" fill="#939598"/>
<path d="M26.7413 22.4847C26.5102 22.4847 26.4317 22.5874 26.4174 22.7358H27.065C27.058 22.5718 26.9738 22.4847 26.7413 22.4847ZM26.7384 23.1694C26.6 23.1694 26.5102 23.1495 26.4388 23.0894C26.3546 23.0167 26.3262 22.9113 26.3262 22.7901C26.3262 22.6745 26.3647 22.5519 26.4603 22.4819C26.5401 22.4263 26.6386 22.4092 26.7413 22.4092C26.834 22.4092 26.941 22.4191 27.0294 22.4791C27.1335 22.5489 27.1535 22.6716 27.1535 22.8113H26.4146C26.4174 22.9597 26.466 23.091 26.7455 23.091C26.8782 23.091 27.0023 23.0695 27.1179 23.0496V23.1252C26.998 23.1467 26.8653 23.1694 26.7384 23.1694Z" fill="#939598"/>
<path d="M28.0755 22.5348C27.9857 22.5019 27.8829 22.4861 27.7846 22.4861C27.5349 22.4861 27.4165 22.5704 27.4165 22.7901C27.4165 22.9982 27.5135 23.0895 27.7017 23.0895C27.8145 23.0895 27.9457 23.0624 28.0755 23.0339V22.5348ZM28.0912 23.1495L28.084 23.1066C27.9686 23.1337 27.8088 23.1694 27.6947 23.1694C27.602 23.1694 27.5135 23.1566 27.4393 23.0952C27.3538 23.0252 27.3266 22.9127 27.3266 22.7901C27.3266 22.6617 27.3694 22.5403 27.4864 22.4747C27.5677 22.4277 27.6775 22.4092 27.7774 22.4092C27.8772 22.4092 27.9742 22.4263 28.0755 22.4548V22.1253H28.1597V23.1495H28.0912Z" fill="#939598"/>
<path d="M29.3937 22.4886C29.281 22.4886 29.1497 22.5157 29.0199 22.5456V23.042C29.1113 23.0763 29.2125 23.092 29.311 23.092C29.5605 23.092 29.6789 23.0078 29.6789 22.7881C29.6789 22.5813 29.582 22.4886 29.3937 22.4886ZM29.609 23.1048C29.5277 23.1504 29.4179 23.1689 29.3195 23.1689C29.2125 23.1689 29.1056 23.1504 28.9971 23.1147L28.9928 23.149H28.9357V22.1249H29.0199V22.4685C29.1355 22.443 29.291 22.4087 29.4007 22.4087C29.4936 22.4087 29.582 22.4229 29.6561 22.4828C29.7417 22.5528 29.7688 22.6654 29.7688 22.7881C29.7688 22.9165 29.726 23.0378 29.609 23.1048Z" fill="#939598"/>
<path d="M29.8805 23.4259V23.3476C29.9219 23.3518 29.9605 23.3548 29.9876 23.3548C30.0917 23.3548 30.1544 23.3247 30.2129 23.2063L30.24 23.1493L29.8635 22.4289H29.9605L30.2829 23.0508H30.2885L30.5952 22.4289H30.6908L30.2857 23.2377C30.2115 23.3847 30.1316 23.4331 29.9846 23.4331C29.9518 23.4331 29.9162 23.4303 29.8805 23.4259Z" fill="#939598"/>
<path d="M31.8508 22.7386H31.5712V22.9911H31.8521C32.0447 22.9911 32.1174 22.9696 32.1174 22.8642C32.1174 22.7513 32.0177 22.7386 31.8508 22.7386ZM31.7994 22.3291H31.5712V22.5859H31.8008C31.9906 22.5859 32.0661 22.5631 32.0661 22.4561C32.0661 22.3421 31.9705 22.3291 31.7994 22.3291ZM32.2331 23.081C32.1303 23.1466 32.0062 23.1494 31.7794 23.1494H31.3529V22.1723H31.7694C31.9649 22.1723 32.0846 22.1751 32.1845 22.2351C32.2559 22.2779 32.2844 22.3435 32.2844 22.429C32.2844 22.5317 32.2416 22.6002 32.1303 22.6459V22.6514C32.2559 22.6802 32.3372 22.7444 32.3372 22.8827C32.3372 22.9768 32.3029 23.0382 32.2331 23.081Z" fill="#939598"/>
<path d="M33.1905 22.8471C33.1063 22.8399 33.0208 22.8357 32.9309 22.8357C32.7839 22.8357 32.7326 22.8656 32.7326 22.9326C32.7326 22.9954 32.7754 23.0297 32.888 23.0297C32.9822 23.0297 33.0949 23.0083 33.1905 22.9868V22.8471ZM33.2332 23.1495L33.2276 23.1066C33.1049 23.1367 32.9623 23.1694 32.8367 23.1694C32.7597 23.1694 32.6769 23.1594 32.6184 23.1166C32.5643 23.0781 32.5386 23.0153 32.5386 22.9425C32.5386 22.8613 32.5743 22.7857 32.6598 22.7472C32.7354 22.7115 32.8367 22.7087 32.9294 22.7087C33.005 22.7087 33.1063 22.713 33.1905 22.7187V22.7058C33.1905 22.5932 33.1163 22.5561 32.9137 22.5561C32.8353 22.5561 32.7397 22.5602 32.6484 22.5688V22.4233C32.7497 22.4149 32.8638 22.4092 32.958 22.4092C33.0835 22.4092 33.2133 22.4192 33.2932 22.4762C33.3759 22.5348 33.3916 22.6161 33.3916 22.723V23.1495H33.2332Z" fill="#939598"/>
<path d="M34.3321 23.1494V22.7513C34.3321 22.6202 34.2651 22.5732 34.1452 22.5732C34.0568 22.5732 33.9456 22.5959 33.8514 22.6188V23.1494H33.6503V22.429H33.8143L33.8214 22.4746C33.9484 22.442 34.0896 22.4091 34.2066 22.4091C34.295 22.4091 34.3849 22.4219 34.4533 22.4832C34.5103 22.5347 34.5318 22.6058 34.5318 22.7086V23.1494H34.3321Z" fill="#939598"/>
<path d="M35.1 23.1694C35.0073 23.1694 34.906 23.1566 34.8318 23.0938C34.7434 23.0225 34.7177 22.9099 34.7177 22.7885C34.7177 22.6745 34.7548 22.5503 34.8646 22.4805C34.9545 22.4219 35.0658 22.4092 35.1814 22.4092C35.2641 22.4092 35.3454 22.4149 35.4352 22.4233V22.5775C35.3624 22.5704 35.2754 22.5647 35.2056 22.5647C35.0144 22.5647 34.9245 22.6246 34.9245 22.7901C34.9245 22.9455 34.9916 23.0125 35.1485 23.0125C35.2397 23.0125 35.3468 22.9954 35.4509 22.9755V23.1238C35.3382 23.1467 35.2156 23.1694 35.1 23.1694Z" fill="#939598"/>
<path d="M36.045 22.5602C35.8538 22.5602 35.7696 22.6203 35.7696 22.7843C35.7696 22.9483 35.8524 23.0183 36.045 23.0183C36.2347 23.0183 36.3174 22.9597 36.3174 22.7956C36.3174 22.6316 36.2362 22.5602 36.045 22.5602ZM36.3902 23.0938C36.3017 23.1536 36.1862 23.1694 36.045 23.1694C35.9009 23.1694 35.7854 23.1522 35.6984 23.0938C35.5985 23.0282 35.5628 22.9198 35.5628 22.7901C35.5628 22.6602 35.5985 22.5503 35.6984 22.4847C35.7854 22.4263 35.9009 22.4092 36.045 22.4092C36.1876 22.4092 36.3017 22.4263 36.3902 22.4847C36.49 22.5503 36.5243 22.6602 36.5243 22.7885C36.5243 22.9184 36.4886 23.0282 36.3902 23.0938Z" fill="#939598"/>
<path d="M37.6855 23.1694C37.5643 23.1694 37.4331 23.1495 37.3346 23.0681C37.2176 22.9711 37.182 22.8214 37.182 22.6602C37.182 22.5162 37.2276 22.345 37.3802 22.2451C37.4986 22.1682 37.6455 22.1524 37.7939 22.1524C37.9024 22.1524 38.0135 22.1596 38.1349 22.1696V22.345C38.0307 22.3364 37.9024 22.3292 37.8025 22.3292C37.5243 22.3292 37.4059 22.4348 37.4059 22.6602C37.4059 22.8899 37.5158 22.9926 37.7212 22.9926C37.8552 22.9926 38.005 22.9654 38.1562 22.9341V23.1081C38.005 23.1381 37.8466 23.1694 37.6855 23.1694Z" fill="#939598"/>
<path d="M38.7472 22.5375C38.5803 22.5375 38.5161 22.5976 38.5032 22.7073H38.9883C38.9826 22.5904 38.9141 22.5375 38.7472 22.5375ZM38.7173 23.1694C38.5989 23.1694 38.4919 23.1552 38.412 23.0895C38.3265 23.0183 38.2964 22.9113 38.2964 22.7885C38.2964 22.6787 38.3322 22.5561 38.432 22.4847C38.5204 22.4219 38.6331 22.4092 38.7472 22.4092C38.8499 22.4092 38.9712 22.4205 39.0596 22.4819C39.1752 22.5632 39.1852 22.6888 39.1866 22.8371H38.5019C38.5062 22.947 38.5647 23.0183 38.7671 23.0183C38.8927 23.0183 39.0325 22.9998 39.1509 22.9812V23.1224C39.0125 23.1453 38.8613 23.1694 38.7173 23.1694Z" fill="#939598"/>
<path d="M40.0814 23.1494V22.7513C40.0814 22.6202 40.0144 22.5732 39.8945 22.5732C39.8061 22.5732 39.6949 22.5959 39.6007 22.6188V23.1494H39.3996V22.429H39.5636L39.5707 22.4746C39.6977 22.442 39.8389 22.4091 39.9559 22.4091C40.0443 22.4091 40.1342 22.4219 40.2027 22.4832C40.2597 22.5347 40.2811 22.6058 40.2811 22.7086V23.1494H40.0814Z" fill="#939598"/>
<path d="M40.8536 23.1694C40.7566 23.1694 40.6681 23.1423 40.6197 23.0667C40.584 23.0153 40.5669 22.9455 40.5669 22.8485V22.5788H40.4214V22.4291H40.5669L40.5884 22.2109H40.7666V22.4291H41.0504V22.5788H40.7666V22.81C40.7666 22.8656 40.7709 22.9127 40.7865 22.947C40.808 22.9954 40.855 23.0139 40.9178 23.0139C40.9649 23.0139 41.022 23.0068 41.0618 22.9998V23.1437C40.9963 23.1566 40.9206 23.1694 40.8536 23.1694Z" fill="#939598"/>
<path d="M41.2466 23.1494V22.429H41.4107L41.4179 22.4746C41.5506 22.4376 41.6489 22.4091 41.7745 22.4091C41.7801 22.4091 41.7887 22.4091 41.8001 22.4104V22.5817C41.7773 22.5803 41.7502 22.5803 41.7303 22.5803C41.6318 22.5803 41.5576 22.5916 41.4478 22.6174V23.1494H41.2466Z" fill="#939598"/>
<path d="M42.5313 22.8471C42.4471 22.8399 42.3616 22.8357 42.2717 22.8357C42.1248 22.8357 42.0734 22.8656 42.0734 22.9326C42.0734 22.9954 42.1163 23.0297 42.2289 23.0297C42.3231 23.0297 42.4358 23.0083 42.5313 22.9868V22.8471ZM42.5741 23.1495L42.5684 23.1066C42.4457 23.1367 42.3031 23.1694 42.1776 23.1694C42.1005 23.1694 42.0178 23.1594 41.9593 23.1166C41.9052 23.0781 41.8795 23.0153 41.8795 22.9425C41.8795 22.8613 41.9151 22.7857 42.0007 22.7472C42.0763 22.7115 42.1776 22.7087 42.2703 22.7087C42.3458 22.7087 42.4471 22.713 42.5313 22.7187V22.7058C42.5313 22.5932 42.4571 22.5561 42.2546 22.5561C42.1761 22.5561 42.0806 22.5602 41.9892 22.5688V22.4233C42.0906 22.4149 42.2047 22.4092 42.2988 22.4092C42.4243 22.4092 42.5542 22.4192 42.634 22.4762C42.7167 22.5348 42.7325 22.6161 42.7325 22.723V23.1495H42.5741Z" fill="#939598"/>
<path d="M42.9911 22.1252H43.1923V23.1494H42.9911V22.1252Z" fill="#939598"/>
</svg>
