<svg width="105" height="511" viewBox="0 0 105 511" fill="none" xmlns="http://www.w3.org/2000/svg">
<g filter="url(#filter0_dd_326_7080)">
<path d="M6.5 0.115602L100.548 0.115598L100.548 55.6147C100.548 61.5382 99.1807 66.7327 96.4468 71.1982C93.804 75.7547 90.1132 79.3089 85.3743 81.8606C80.6355 84.4122 75.122 85.6881 68.834 85.6881C62.3636 85.6881 56.7135 84.3667 51.8835 81.7239C47.1447 79.1722 43.4538 75.6181 40.811 71.0615C38.1682 66.596 36.8468 61.4471 36.8468 55.6147L36.8468 30.3257L6.5 30.3257L6.5 0.115602ZM58.8551 30.3257L58.8551 45.4991C58.8551 48.6887 59.6752 51.0581 61.3156 52.6073C62.956 54.2477 65.371 55.0679 68.5606 55.0679C70.7477 55.0679 72.5248 54.7034 73.8918 53.9743C75.3499 53.3364 76.4434 52.2884 77.1725 50.8303C77.9015 49.4633 78.2661 47.6862 78.2661 45.4991L78.2661 30.3257L58.8551 30.3257ZM4.85964 127.884C4.85964 118.042 6.31774 109.612 9.23395 102.595C12.2413 95.6688 16.6612 90.3376 22.4936 86.6012C28.4171 82.8648 35.7077 80.9966 44.3651 80.9966L100.548 80.9966L100.548 111.207L44.7752 111.207C39.763 111.207 35.6165 112.574 32.3358 115.308C29.0551 118.042 27.4147 122.188 27.4147 127.747C27.4147 133.306 29.0551 137.453 32.3358 140.186C35.6165 143.012 39.763 144.424 44.7752 144.424L100.548 144.424L100.548 174.634L44.3651 174.634C35.7077 174.634 28.4171 172.766 22.4936 169.03C16.6612 165.384 12.2413 160.053 9.23395 153.036C6.31774 146.11 4.85964 137.726 4.85964 127.884ZM6.50001 177.096L100.548 177.096L100.548 236.012C100.548 243.029 99.1352 248.862 96.3101 253.51C93.485 258.248 89.7942 261.803 85.2376 264.172C80.6811 266.541 75.76 267.726 70.4743 267.726C64.4596 267.726 59.0829 266.314 54.3441 263.488C49.6963 260.663 45.96 256.836 43.1349 252.006L6.50001 270.46L6.50001 236.559L38.0771 222.206L38.0771 207.306L6.50001 207.306L6.50001 177.096ZM58.9918 207.306L58.9918 228.494C58.9918 230.863 59.9031 232.868 61.7257 234.509C63.6395 236.149 66.1456 236.969 69.2441 236.969C71.1578 236.969 72.8437 236.605 74.3018 235.876C75.76 235.147 76.8991 234.144 77.7193 232.868C78.6306 231.592 79.0863 230.134 79.0863 228.494L79.0863 207.306L58.9918 207.306ZM6.50001 265.719L100.548 265.719L100.548 321.219C100.548 327.142 99.1808 332.337 96.4468 336.802C93.804 341.359 90.1132 344.913 85.3743 347.464C80.6355 350.016 75.122 351.292 68.834 351.292C62.3636 351.292 56.7135 349.97 51.8835 347.328C47.1447 344.776 43.4538 341.222 40.811 336.665C38.1682 332.2 36.8468 327.051 36.8468 321.219L36.8468 295.93L6.50001 295.93L6.50001 265.719ZM58.8551 295.93L58.8551 311.103C58.8551 314.293 59.6752 316.662 61.3156 318.211C62.956 319.852 65.371 320.672 68.5606 320.672C70.7477 320.672 72.5248 320.307 73.8918 319.578C75.3499 318.94 76.4434 317.892 77.1725 316.434C77.9015 315.067 78.2661 313.29 78.2661 311.103L78.2661 295.93L58.8551 295.93ZM6.50002 346.6L100.548 346.6L100.548 376.81L30.5587 376.81L30.5587 425.065L6.50002 425.065L6.50002 346.6ZM6.50002 420.416L100.548 420.416L100.548 501.751L77.9927 501.751L77.9927 450.626L65.0064 450.626L65.0064 494.369L43.4083 494.369L43.4083 450.626L29.0551 450.626L29.0551 502.708L6.50002 502.708L6.50002 420.416Z" fill="#691877"/>
</g>
<defs>
<filter id="filter0_dd_326_7080" x="0.859634" y="0.115601" width="103.688" height="510.592" filterUnits="userSpaceOnUse" color-interpolation-filters="sRGB">
<feFlood flood-opacity="0" result="BackgroundImageFix"/>
<feColorMatrix in="SourceAlpha" type="matrix" values="0 0 0 0 0 0 0 0 0 0 0 0 0 0 0 0 0 0 127 0" result="hardAlpha"/>
<feOffset dy="4"/>
<feGaussianBlur stdDeviation="2"/>
<feComposite in2="hardAlpha" operator="out"/>
<feColorMatrix type="matrix" values="0 0 0 0 0 0 0 0 0 0 0 0 0 0 0 0 0 0 0.25 0"/>
<feBlend mode="normal" in2="BackgroundImageFix" result="effect1_dropShadow_326_7080"/>
<feColorMatrix in="SourceAlpha" type="matrix" values="0 0 0 0 0 0 0 0 0 0 0 0 0 0 0 0 0 0 127 0" result="hardAlpha"/>
<feOffset dy="4"/>
<feGaussianBlur stdDeviation="2"/>
<feComposite in2="hardAlpha" operator="out"/>
<feColorMatrix type="matrix" values="0 0 0 0 0 0 0 0 0 0 0 0 0 0 0 0 0 0 0.25 0"/>
<feBlend mode="normal" in2="effect1_dropShadow_326_7080" result="effect2_dropShadow_326_7080"/>
<feBlend mode="normal" in="SourceGraphic" in2="effect2_dropShadow_326_7080" result="shape"/>
</filter>
</defs>
</svg>
