<svg width="80" height="18" viewBox="0 0 80 18" fill="none" xmlns="http://www.w3.org/2000/svg">
<path fill-rule="evenodd" clip-rule="evenodd" d="M33.268 14.273H35.9043V4.00963H33.268V14.273ZM34.5721 0.0650735C33.7515 0.0650735 33.0863 0.720935 33.0863 1.52987C33.0863 2.3388 33.7515 2.99452 34.5721 2.99452C35.3927 2.99452 36.0579 2.3388 36.0579 1.52987C36.0579 0.720935 35.3927 0.0650735 34.5721 0.0650735ZM43.6331 11.0668C43.6331 11.0668 42.8931 12.0595 41.8695 12.0595C40.8458 12.0595 39.9213 11.0726 39.9213 9.2793C39.9213 7.48644 40.3506 6.21701 41.7044 6.21701C43.0582 6.21701 43.6331 7.19339 43.6331 7.19339V11.0668ZM43.6331 1.31827V4.60583C43.6331 4.60583 42.7281 3.75945 41.2751 3.75945C39.8223 3.75945 37.2797 4.67091 37.2797 9.01616C37.2797 13.3617 39.3766 14.4566 41.2585 14.4566C42.6125 14.4566 43.4709 13.671 43.4709 13.671L43.6331 13.7361V14.273H46.2292V0L43.6331 1.31827ZM27.4894 12.0434C26.185 12.0434 25.5984 11.0668 25.5984 11.0668V7.17716C25.5984 7.17716 26.0936 6.23324 27.2746 6.23324C28.951 6.23324 29.2064 7.94209 29.2064 9.2793C29.2064 10.6169 28.7935 12.0434 27.4894 12.0434ZM27.8361 3.75945C26.6473 3.75945 25.5984 4.58946 25.5984 4.58946V4.00978H22.9464V18L25.5984 16.6327V13.671C25.5984 13.671 26.2346 14.4566 27.9021 14.4566C29.5696 14.4566 31.8315 13.5079 31.8315 8.96718C31.8315 4.42685 29.0246 3.75945 27.8361 3.75945ZM18.6256 11.2486C18.3813 11.6758 17.4664 12.252 16.6271 12.252C15.7879 12.252 14.9347 11.8251 14.9347 10.8147C14.9347 9.80402 15.5884 9.47865 16.9023 9.47865C18.2161 9.47865 18.6256 9.98044 18.6256 9.98044V11.2486ZM17.0953 3.7811C15.1594 3.7811 14.32 4.23447 14.32 4.23447V6.52087C14.32 6.52087 14.91 5.89719 17.0953 5.89719C18.6256 5.89719 18.6256 7.03106 18.6256 7.27655V7.80554C18.6256 7.80554 17.862 7.46565 16.6544 7.46565C15.4468 7.46565 12.3908 7.72993 12.3908 10.9043C12.3908 14.0786 15.3703 14.4566 16.2903 14.4566C17.2103 14.4566 18.6256 13.6065 18.6256 13.6253V14.273H21.2077V6.7853C21.2077 6.7853 21.159 3.7811 17.0953 3.7811ZM7.35772 6.7853H3.21964V3.13862C3.21964 3.13862 6.28445 3.15756 7.39615 3.15756C8.50784 3.15756 9.0062 4.00978 9.0062 5.08484C9.0062 6.16005 8.12447 6.7853 7.35772 6.7853ZM9.25552 8.8638C9.35129 8.80699 11.8048 8.12678 11.8048 4.97136C11.8048 3.7781 11.4207 2.52234 10.6571 1.84498C9.40127 0.731471 7.51113 0.602178 7.51113 0.602178H0.578064V14.273H3.21964V9.43052C3.21964 9.40475 3.20303 9.35847 3.33722 9.35847H6.06633C6.14303 9.35847 6.24603 9.4684 6.24603 9.4684L8.68046 14.273H11.7857C11.7857 14.273 9.21709 9.20398 9.17867 9.09049C9.14039 8.97715 9.1596 8.92033 9.25552 8.8638Z" fill="#5C5C5C"/>
<path fill-rule="evenodd" clip-rule="evenodd" d="M77.9803 11.6493H74.765V0.601625H72.0489V14.2725H79.5781L77.9803 11.6493ZM65.3438 5.98862C62.2069 5.19236 62.3718 4.5563 62.3718 4.23093C62.3718 3.90542 62.57 2.88005 64.4688 2.88005C66.45 2.88005 67.6882 4.26339 67.6882 4.26339L69.6198 2.44063C69.6198 2.44063 67.7211 0.357422 64.4851 0.357422C61.3153 0.357422 59.6807 2.31048 59.6807 4.47499C59.6807 5.53866 59.7482 7.4547 63.9994 8.36601C67.4084 8.90326 67.2095 10.2215 67.2095 10.3827C67.2095 10.7407 67.0113 11.8962 64.7329 11.8962C62.4546 11.8962 61.0016 10.3503 61.0016 10.3503L59.1029 12.0429C59.1029 12.0429 60.9192 14.456 64.5678 14.456C67.3414 14.456 69.9335 13.2796 69.9335 10.3827C69.9335 7.48588 68.4805 6.78474 65.3438 5.98862ZM53.8693 5.98862C50.7324 5.19236 50.8974 4.5563 50.8974 4.23093C50.8974 3.90542 51.0956 2.88005 52.9942 2.88005C54.9755 2.88005 56.2136 4.26339 56.2136 4.26339L58.1453 2.44063C58.1453 2.44063 56.2468 0.357422 53.011 0.357422C49.8407 0.357422 48.2064 2.31048 48.2064 4.47499C48.2064 5.53866 48.2737 7.4547 52.5248 8.36601C55.9339 8.90326 55.735 10.2215 55.735 10.3827C55.735 10.7407 55.5369 11.8962 53.2584 11.8962C50.98 11.8962 49.5273 10.3503 49.5273 10.3503L47.6286 12.0429C47.6286 12.0429 49.4446 14.456 53.0933 14.456C55.8671 14.456 58.4589 13.2796 58.4589 10.3827C58.4589 7.48588 57.0062 6.78474 53.8693 5.98862Z" fill="#C4C4C4"/>
</svg>
