<svg width="95" height="27" viewBox="0 0 95 27" fill="none" xmlns="http://www.w3.org/2000/svg">
<path d="M37.5101 12.1117L37.4115 12.4323L37.5101 12.1107C36.0415 11.6669 35.9241 11.3819 35.9241 11.0544C35.9241 10.7743 36.1589 10.4459 36.8187 10.4459C37.1027 10.4272 37.3859 10.4926 37.6331 10.6337C37.8802 10.7749 38.0803 10.9857 38.2084 11.2399C38.2307 11.2779 38.2603 11.3112 38.2955 11.3378C38.3307 11.3644 38.3708 11.3838 38.4135 11.3949C38.4562 11.406 38.5007 11.4085 38.5444 11.4024C38.588 11.3963 38.63 11.3816 38.668 11.3592L39.9966 10.582C40.0726 10.5375 40.1281 10.4648 40.1509 10.3797C40.1738 10.2946 40.1623 10.204 40.1189 10.1273C39.7996 9.5363 39.3213 9.04639 38.7381 8.71296C38.1549 8.37954 37.49 8.21589 36.8187 8.24052C36.4218 8.21493 36.0239 8.26942 35.6484 8.40073C35.273 8.53203 34.9278 8.73748 34.6334 9.00487C34.3389 9.27225 34.1012 9.59611 33.9344 9.95718C33.7677 10.3183 33.6753 10.7092 33.6626 11.1067C33.6626 12.5753 34.4852 13.4314 36.4144 13.967C37.7883 14.3457 38.244 14.5588 38.244 15.0519C38.244 15.6269 37.52 15.7127 37.088 15.7127C36.7344 15.7354 36.3819 15.6542 36.0739 15.4789C35.766 15.3036 35.516 15.042 35.355 14.7264C35.3336 14.6871 35.3045 14.6526 35.2694 14.6247C35.2344 14.5969 35.1942 14.5763 35.1511 14.5643C35.108 14.5522 35.0628 14.5489 35.0184 14.5546C34.974 14.5603 34.9312 14.5748 34.8925 14.5972L33.5117 15.3971C33.4397 15.4388 33.3857 15.5059 33.3604 15.5852C33.3351 15.6645 33.3401 15.7504 33.3746 15.8261C33.7031 16.5008 34.2265 17.0613 34.8772 17.4352C35.5278 17.809 36.2756 17.979 37.0239 17.923C39.1375 17.923 40.5036 16.7888 40.5036 15.0322C40.5065 13.1641 39.2076 12.6246 37.5101 12.1117Z" fill="#797979"/>
<path d="M48.7233 8.42578H47.1364C47.0474 8.42578 46.9621 8.46111 46.8992 8.524C46.8363 8.58688 46.8009 8.67218 46.8009 8.76112V11.9252H44.0966V8.76112C44.0966 8.67218 44.0612 8.58688 43.9983 8.524C43.9354 8.46111 43.8502 8.42578 43.7613 8.42578H42.1743C42.0854 8.42578 42 8.46111 41.9371 8.524C41.8742 8.58688 41.8389 8.67218 41.8389 8.76112V17.3991C41.8389 17.4881 41.8742 17.5734 41.9371 17.6362C42 17.6991 42.0854 17.7345 42.1743 17.7345H43.7613C43.8502 17.7345 43.9354 17.6991 43.9983 17.6362C44.0612 17.5734 44.0966 17.4881 44.0966 17.3991V14.1039H46.8009V17.3991C46.8009 17.4881 46.8363 17.5734 46.8992 17.6362C46.9621 17.6991 47.0474 17.7345 47.1364 17.7345H48.7233C48.8123 17.7345 48.8975 17.6991 48.9604 17.6362C49.0233 17.5734 49.0586 17.4881 49.0586 17.3991V8.76112C49.0586 8.67218 49.0233 8.58688 48.9604 8.524C48.8975 8.46111 48.8123 8.42578 48.7233 8.42578Z" fill="#797979"/>
<path d="M55.4272 8.24341C54.4713 8.24341 53.5369 8.52686 52.7422 9.0579C51.9474 9.58894 51.3279 10.3437 50.9621 11.2268C50.5963 12.1099 50.5006 13.0816 50.6871 14.0191C50.8736 14.9566 51.3339 15.8177 52.0098 16.4936C52.6857 17.1695 53.5468 17.6298 54.4843 17.8163C55.4218 18.0028 56.3935 17.907 57.2766 17.5413C58.1597 17.1755 58.9145 16.556 59.4456 15.7613C59.9766 14.9665 60.26 14.0321 60.26 13.0763C60.2665 12.4398 60.1458 11.8085 59.9052 11.2192C59.6647 10.6299 59.3089 10.0946 58.8589 9.64452C58.4088 9.19446 57.8734 8.83872 57.2842 8.59813C56.6949 8.35755 56.0636 8.23695 55.4272 8.24341ZM55.4272 15.7136C54.9042 15.7244 54.3898 15.5792 53.9496 15.2964C53.5095 15.0137 53.1635 14.6063 52.9559 14.1261C52.7482 13.646 52.6882 13.1149 52.7836 12.6005C52.879 12.0862 53.1255 11.6119 53.4915 11.2382C53.8576 10.8644 54.3266 10.6082 54.8389 10.5021C55.3512 10.396 55.8834 10.4449 56.3677 10.6425C56.8521 10.8401 57.2666 11.1775 57.5584 11.6117C57.8503 12.0458 58.0062 12.5571 58.0063 13.0802C58.022 13.4256 57.9664 13.7705 57.8431 14.0935C57.7197 14.4165 57.5312 14.7106 57.2892 14.9577C57.0473 15.2047 56.7572 15.3993 56.4368 15.5293C56.1165 15.6594 55.7728 15.7221 55.4272 15.7136Z" fill="#797979"/>
<path d="M65.3385 8.42579H62.129C62.0401 8.42579 61.9548 8.46111 61.8919 8.524C61.8291 8.58689 61.7937 8.67219 61.7937 8.76112V17.3991C61.7937 17.4881 61.8291 17.5734 61.8919 17.6363C61.9548 17.6991 62.0401 17.7345 62.129 17.7345H63.716C63.8049 17.7345 63.8903 17.6991 63.9532 17.6363C64.016 17.5734 64.0513 17.4881 64.0513 17.3991V14.8614H65.3385C65.7658 14.8689 66.1903 14.7912 66.5872 14.6328C66.9842 14.4745 67.3456 14.2386 67.6504 13.9391C67.9553 13.6396 68.1974 13.2823 68.3627 12.8882C68.528 12.4941 68.613 12.071 68.613 11.6436C68.613 11.2162 68.528 10.7931 68.3627 10.399C68.1974 10.0049 67.9553 9.64762 67.6504 9.34808C67.3456 9.04854 66.9842 8.81271 66.5872 8.65436C66.1903 8.49601 65.7658 8.4183 65.3385 8.42579ZM65.3385 12.7349H64.0513V10.5562H65.3385C65.6147 10.5748 65.8736 10.6976 66.0626 10.8999C66.2517 11.1021 66.3569 11.3687 66.3569 11.6456C66.3569 11.9224 66.2517 12.189 66.0626 12.3912C65.8736 12.5935 65.6147 12.7163 65.3385 12.7349Z" fill="#797979"/>
<path d="M73.564 8.42579H70.3547C70.2658 8.42579 70.1804 8.46111 70.1175 8.524C70.0546 8.58689 70.0193 8.67219 70.0193 8.76112V17.3991C70.0193 17.4881 70.0546 17.5734 70.1175 17.6363C70.1804 17.6991 70.2658 17.7345 70.3547 17.7345H71.9416C72.0305 17.7345 72.1159 17.6991 72.1787 17.6363C72.2416 17.5734 72.277 17.4881 72.277 17.3991V14.8614H73.5591C73.9864 14.8689 74.4109 14.7912 74.8079 14.6328C75.2048 14.4745 75.5663 14.2386 75.8711 13.9391C76.1759 13.6396 76.4181 13.2823 76.5834 12.8882C76.7486 12.4941 76.8338 12.071 76.8338 11.6436C76.8338 11.2162 76.7486 10.7931 76.5834 10.399C76.4181 10.0049 76.1759 9.64762 75.8711 9.34808C75.5663 9.04854 75.2048 8.81271 74.8079 8.65436C74.4109 8.49601 73.9864 8.4183 73.5591 8.42579H73.564ZM73.564 12.7349H72.2819V10.5562H73.564C73.8403 10.5748 74.0991 10.6976 74.2882 10.8999C74.4773 11.1021 74.5826 11.3687 74.5826 11.6456C74.5826 11.9224 74.4773 12.189 74.2882 12.3912C74.0991 12.5935 73.8403 12.7163 73.564 12.7349Z" fill="#80A43E"/>
<path d="M85.0654 8.42578H83.4774C83.3887 8.42604 83.3035 8.4615 83.2408 8.52436C83.1782 8.58722 83.1431 8.67235 83.1431 8.76112V14.5162C83.1431 15.321 82.7001 15.7126 81.7908 15.7126C80.8814 15.7126 80.4376 15.318 80.4376 14.5162V8.76112C80.4376 8.67218 80.4023 8.58688 80.3394 8.524C80.2765 8.46111 80.1913 8.42578 80.1023 8.42578H78.5154C78.4264 8.42578 78.3411 8.46111 78.2782 8.524C78.2153 8.58688 78.1799 8.67218 78.1799 8.76112V14.6986C78.1799 16.6229 79.6298 17.9169 81.7898 17.9169C83.9498 17.9169 85.3997 16.6229 85.3997 14.6986V8.76112C85.3997 8.67235 85.3645 8.58722 85.3018 8.52436C85.2391 8.4615 85.1541 8.42604 85.0654 8.42578Z" fill="#80A43E"/>
<path d="M93.2942 13.0109L93.1551 12.8985L93.2754 12.7663C93.6835 12.3166 93.9031 11.7273 93.8888 11.1202C93.887 10.7431 93.8069 10.3705 93.6533 10.026C93.4998 9.68161 93.2762 9.37287 92.9969 9.11947C92.7176 8.86606 92.3887 8.67353 92.031 8.55408C91.6733 8.43463 91.2946 8.39088 90.9191 8.42563H87.5924C87.5484 8.42563 87.5048 8.43432 87.4642 8.45118C87.4235 8.46805 87.3866 8.49275 87.3556 8.5239C87.3245 8.55506 87.3 8.59203 87.2832 8.63271C87.2665 8.67339 87.2579 8.71698 87.2581 8.76097V17.399C87.2579 17.443 87.2665 17.4865 87.2832 17.5272C87.3 17.5679 87.3245 17.6049 87.3556 17.636C87.3866 17.6672 87.4235 17.6919 87.4642 17.7088C87.5048 17.7256 87.5484 17.7343 87.5924 17.7343H91.1805C91.5649 17.7696 91.9525 17.7245 92.3185 17.6019C92.6845 17.4793 93.021 17.2818 93.3066 17.0221C93.5921 16.7623 93.8205 16.4459 93.9771 16.0931C94.1337 15.7403 94.2152 15.3587 94.2163 14.9727C94.2256 14.5964 94.1472 14.2231 93.9871 13.8824C93.827 13.5417 93.5898 13.243 93.2942 13.0099V13.0109ZM90.9191 12.0049H89.5147V10.5521H90.9191C91.0155 10.5458 91.1121 10.5603 91.2023 10.5948C91.2925 10.6292 91.3741 10.6827 91.4418 10.7517C91.5094 10.8206 91.5612 10.9033 91.5939 10.9941C91.6266 11.085 91.6394 11.1818 91.6313 11.278C91.6362 11.3735 91.6213 11.4689 91.5874 11.5583C91.5536 11.6477 91.5016 11.7291 91.4347 11.7974C91.3677 11.8656 91.2873 11.9192 91.1986 11.9548C91.1098 11.9903 91.0147 12.0071 90.9191 12.0039V12.0049ZM89.5147 14.0258H91.1805C91.3898 14.0258 91.5904 14.109 91.7384 14.2569C91.8864 14.4049 91.9696 14.6056 91.9696 14.8149C91.9696 15.0241 91.8864 15.2248 91.7384 15.3728C91.5904 15.5208 91.3898 15.6039 91.1805 15.6039H89.5147V14.0258Z" fill="#80A43E"/>
<path d="M28.8552 13.7995C28.8537 13.7795 28.8537 13.7594 28.8552 13.7394L28.8454 13.2265C28.8474 13.153 28.8441 13.0795 28.8355 13.0066L28.8118 12.6594V12.5519C28.8137 12.4956 28.8091 12.4394 28.798 12.3842L28.7664 12.1179C28.7309 11.7707 28.6678 11.4344 28.6087 11.1119L28.4765 10.5073C28.4617 10.4372 28.4449 10.3761 28.4262 10.31L28.3275 9.97468C28.1292 9.28582 27.8776 8.61344 27.575 7.96362C27.273 7.32805 26.9252 6.71525 26.5345 6.13008C25.7714 5.00054 24.8443 3.991 23.7837 3.13471C23.2713 2.71803 22.7283 2.34052 22.1593 2.00539C21.6025 1.67373 21.0223 1.38299 20.4234 1.13547L19.9756 0.955977L19.6797 0.857341L19.3099 0.732082L18.943 0.624567C18.8443 0.593992 18.7457 0.566379 18.6293 0.535804L18.1815 0.430275L18.1026 0.411538C18.0552 0.399703 18.0109 0.389834 17.9665 0.380957L17.7318 0.337554L17.5838 0.310931C17.4852 0.292191 17.3866 0.274437 17.2771 0.25767L16.7504 0.187644C16.7021 0.187644 16.6518 0.173837 16.6044 0.170879L16.2928 0.146212L15.8982 0.115646L15.3222 0.0949377H14.8379C14.6253 0.0904508 14.4125 0.0986787 14.2008 0.119589L13.7748 0.15017C13.7219 0.151516 13.6691 0.156458 13.6169 0.164964L13.3457 0.198495C10.2967 0.562092 7.43153 1.84841 5.13376 3.88527C4.49176 4.4543 3.89797 5.0755 3.35844 5.74248L3.07737 6.09655L3.02211 6.17151L2.64635 6.69425L2.54768 6.84713C2.37015 7.11737 2.20248 7.37381 2.05453 7.63617C1.90659 7.89852 1.77842 8.12932 1.65415 8.36998L1.55055 8.56723C1.50419 8.66586 1.45192 8.7645 1.41149 8.86313L1.24383 9.23397C1.22213 9.28131 1.20341 9.3326 1.18171 9.38192L1.15113 9.45884C0.741201 10.4514 0.43737 11.4846 0.244712 12.541L0.1865 12.8626C0.176637 12.9198 0.167782 12.9829 0.159892 13.049L0.121425 13.334C0.104658 13.4593 0.0898433 13.5757 0.0760351 13.6989L0.0188462 14.4111V14.4751L0.000124368 15.0798C-0.000544537 15.0931 0.00148801 15.1065 0.00614425 15.119C0.0108005 15.1316 0.0179275 15.143 0.0271537 15.1527C0.0363798 15.1624 0.0474819 15.1701 0.0597814 15.1754C0.0720809 15.1806 0.0853522 15.1833 0.0987301 15.1833L2.66308 15.2484C2.67639 15.2488 2.68966 15.2464 2.70203 15.2415C2.7144 15.2366 2.72563 15.2292 2.73508 15.2198C2.74476 15.2108 2.75253 15.2 2.75795 15.188C2.76338 15.176 2.76637 15.163 2.76668 15.1498L2.77848 14.5412V14.4939L2.81496 13.9662C2.82384 13.8745 2.83568 13.7867 2.84554 13.695C2.84925 13.6388 2.85585 13.5828 2.86529 13.5273L2.87715 13.4356C2.87978 13.3866 2.88602 13.3377 2.89587 13.2896L2.94319 13.0213C3.09028 12.1542 3.32833 11.3049 3.65335 10.4875L3.67701 10.4254V10.4116C3.69082 10.3761 3.70366 10.3396 3.7224 10.3011L3.80325 10.1216L3.85851 9.99736L3.87723 9.95495C3.90879 9.88492 3.93936 9.81392 3.96994 9.75178L4.07547 9.54071C4.16818 9.3543 4.26486 9.16198 4.38025 8.96965C4.49565 8.77732 4.61006 8.57513 4.74223 8.36998L4.85661 8.19046L5.16537 7.74958L5.20871 7.68943L5.43656 7.39354C5.87566 6.8362 6.35995 6.31598 6.88446 5.83815C8.77154 4.12209 11.1383 3.02423 13.6672 2.69186L13.895 2.66127C13.9404 2.66127 13.9769 2.64945 14.0272 2.64747L14.3843 2.61689C14.5431 2.60013 14.7098 2.5952 14.8873 2.59027H15.2572L15.8489 2.6021L16.3815 2.63859L16.4871 2.65042L16.925 2.70271C17.0068 2.71454 17.0828 2.72737 17.1597 2.74117L17.3007 2.76485L17.498 2.79838C17.5352 2.80258 17.5719 2.81051 17.6075 2.82205L17.6696 2.83585L18.0365 2.91772L18.2762 2.98281L18.4271 3.02424L18.9301 3.18007L19.156 3.25503L19.513 3.39411C21.5655 4.21535 23.3314 5.62151 24.5915 7.43792C24.9232 7.91863 25.2198 8.42263 25.4791 8.94597C25.7367 9.48109 25.9524 10.0354 26.1242 10.6039L26.2129 10.9087C26.2267 10.9521 26.2396 10.9975 26.2514 11.0547L26.3549 11.4916L26.3787 11.6139C26.427 11.8654 26.4773 12.1268 26.5098 12.397L26.5404 12.615C26.5404 12.6604 26.5503 12.7057 26.5532 12.7511C26.5549 12.7807 26.5549 12.8103 26.5532 12.8399L26.5789 13.1358C26.5789 13.1959 26.5887 13.2531 26.5887 13.3182L26.6035 13.7709V13.8163L26.5936 14.3391C26.5947 14.3558 26.5947 14.3726 26.5936 14.3893L26.57 14.7247C26.5652 14.8281 26.555 14.9311 26.5394 15.0334C26.5368 15.0754 26.5319 15.1172 26.5246 15.1587C26.5251 15.1895 26.5218 15.2203 26.5148 15.2504V15.2691C26.5125 15.3137 26.5062 15.3579 26.496 15.4013L26.4191 15.855L26.3658 16.0927C26.2288 16.7113 26.0336 17.3156 25.7829 17.8976C24.9811 19.7549 23.644 21.3311 21.9425 22.4254C20.241 23.5196 18.2522 24.0821 16.2296 24.0413H15.9396L15.5747 24.0166H15.5106L15.1871 23.9781C15.1206 23.9732 15.0547 23.9629 14.9899 23.9476L14.688 23.8953C14.6328 23.8854 14.5825 23.8736 14.5303 23.8618L14.4316 23.8401L14.333 23.8184H14.3182C14.2695 23.8085 14.2192 23.7967 14.1673 23.7829C13.4868 23.6065 12.8284 23.3541 12.2045 23.0303C12.1513 23.0056 12.099 22.9751 12.0457 22.9445L11.7499 22.7768L11.4648 22.5973C11.4064 22.5627 11.3503 22.5242 11.2972 22.4819L11.1985 22.4119C11.0841 22.331 10.9756 22.2561 10.8632 22.1693L10.6659 22.0154L10.3523 21.7471L10.2951 21.6949L10.0524 21.467L9.88478 21.2895L9.81079 21.2126C9.76542 21.1652 9.72896 21.1287 9.69641 21.0932L9.50901 20.8782L9.17365 20.4758C9.13518 20.4255 9.10364 20.3772 9.0701 20.3367L9.00798 20.2509C8.79846 19.9592 8.6055 19.6559 8.43001 19.3425L8.2623 19.0309C8.23073 18.9727 8.2002 18.9135 8.17061 18.8435L8.1183 18.731C8.06504 18.6156 8.00391 18.4845 7.95065 18.3424C7.67543 17.6691 7.48367 16.9645 7.3796 16.2446L7.34306 15.9684L7.29478 15.4289L7.27997 14.9861C7.28023 14.9815 7.28023 14.9769 7.27997 14.9723C7.27434 14.9396 7.27434 14.9063 7.27997 14.8736C7.27997 14.8687 7.27997 14.8638 7.27997 14.8588V14.5038L7.30363 14.1783L7.34902 13.7739L7.41409 13.3685L7.5009 12.9612C7.94697 11.1373 9.00234 9.52037 10.4924 8.37786C10.516 8.35814 10.5456 8.33545 10.5762 8.31375L10.8346 8.12735L10.8967 8.08591L11.1768 7.90345L11.4727 7.73578L11.5447 7.69337L11.669 7.62828L11.7676 7.57797C11.8248 7.54739 11.8752 7.52076 11.9255 7.49709L12.1937 7.37283L12.4482 7.26728C12.5744 7.21402 12.7027 7.16866 12.8427 7.12132L12.9699 7.07594L13.1376 7.02367H13.1524L13.2431 6.99705L13.3753 6.95858L13.4739 6.93491L13.7905 6.85995L14.1258 6.79584L14.1978 6.78204L14.4622 6.74652L14.6298 6.7268L14.982 6.69622H15.0747L15.4505 6.68439H15.8075L16.202 6.70904L16.2908 6.7189L16.4584 6.73863L16.6261 6.76033L16.9023 6.80768C17.2755 6.8798 17.643 6.97868 18.002 7.10356C18.36 7.23356 18.7084 7.38881 19.0445 7.56811C19.376 7.74808 19.6932 7.95317 19.9934 8.18158L20.085 8.25161C20.1353 8.29008 20.1837 8.32558 20.2261 8.36208L20.449 8.55342L20.5043 8.60373C20.6285 8.71913 20.7459 8.82663 20.8632 8.95386C21.3921 9.50237 21.8332 10.1291 22.1711 10.812C22.3389 11.1584 22.4817 11.5164 22.5982 11.8832C22.711 12.2477 22.7961 12.6203 22.8526 12.9977L22.8911 13.2857L22.9167 13.5924C22.9155 13.6527 22.9188 13.7131 22.9266 13.7729V14.4732L22.9098 14.7227L22.898 14.8214C22.8514 13.6387 22.5116 12.4861 21.9092 11.4673C21.3068 10.4485 20.4607 9.59535 19.4469 8.98455C18.4331 8.37374 17.2834 8.02445 16.1011 7.96804C14.9189 7.91164 13.7412 8.14989 12.6738 8.6614C11.6065 9.17291 10.683 9.94164 9.98639 10.8985C9.28974 11.8553 8.84173 12.9703 8.68272 14.1431C8.52372 15.316 8.65865 16.51 9.0754 17.6177C9.49215 18.7255 10.1777 19.7124 11.0703 20.4896C11.4372 19.2143 12.5231 15.1636 12.2538 12.9089L10.9549 13.5244L10.593 12.2422L13.5726 10.7992C13.5726 10.7992 14.2886 11.9571 14.0874 14.8085C14.7827 14.3807 15.581 14.1489 16.3973 14.1378L16.4723 13.6871L16.0984 13.623C15.9858 13.5998 15.8859 13.5354 15.8184 13.4423C15.7509 13.3492 15.7206 13.2342 15.7335 13.12L15.7572 12.9809C15.7826 12.8676 15.8498 12.7681 15.9455 12.7022C16.0411 12.6364 16.1581 12.6091 16.273 12.6258L17.3738 12.8152C17.4832 12.8396 17.5786 12.906 17.6395 13.0001C17.7004 13.0942 17.7218 13.2085 17.6992 13.3182L17.6755 13.4593C17.6589 13.5697 17.5998 13.6694 17.5109 13.737C17.4219 13.8046 17.3101 13.8348 17.1992 13.8212L16.7869 13.7492L16.7198 14.1497C17.3883 14.1865 18.0419 14.3618 18.6391 14.6645L18.8068 14.3164L18.4715 14.1487C18.3691 14.0939 18.2913 14.0025 18.2534 13.8928C18.2156 13.7831 18.2206 13.6631 18.2673 13.5569L18.3315 13.4297C18.3883 13.3296 18.4806 13.2545 18.5901 13.2191C18.6997 13.1836 18.8185 13.1905 18.9232 13.2383L19.9293 13.7414C20.0265 13.796 20.0985 13.8866 20.1298 13.9937C20.1612 14.1008 20.1494 14.2159 20.0969 14.3144L20.0328 14.4416C19.9854 14.5429 19.9001 14.6215 19.7954 14.6606C19.6906 14.6997 19.5747 14.6961 19.4726 14.6507L19.0968 14.4633L18.9212 14.8204C19.4781 15.1463 19.9651 15.579 20.3543 16.0937L20.6611 15.8155L20.4066 15.5344C20.3315 15.446 20.2924 15.3325 20.2974 15.2166C20.3023 15.1006 20.3508 14.9908 20.4332 14.9091L20.5388 14.8105C20.6289 14.7371 20.7434 14.7005 20.8594 14.708C20.9754 14.7155 21.0841 14.7666 21.1641 14.8509L21.9117 15.6893C21.9814 15.7755 22.0148 15.8855 22.0048 15.996C21.9949 16.1064 21.9424 16.2086 21.8584 16.2811L21.7529 16.3797C21.6721 16.4548 21.5653 16.4957 21.455 16.4939C21.3447 16.4921 21.2394 16.4476 21.1611 16.3698L20.881 16.0582L20.5457 16.3619C20.9858 17.0252 21.2304 17.7989 21.2515 18.5946C21.2726 19.3902 21.0694 20.1758 20.665 20.8614C21.5938 20.2706 22.3933 19.4978 23.0153 18.5895C23.6372 17.6813 24.0687 16.6564 24.2837 15.5768L24.3242 15.3628C24.3283 15.3234 24.3345 15.2842 24.3429 15.2455L24.3893 14.8854L24.4179 14.5314V13.7423C24.4197 13.6647 24.417 13.587 24.41 13.5096L24.3843 13.1506L24.3429 12.8034C24.2813 12.3499 24.185 11.9018 24.0549 11.463C23.9191 11.0193 23.751 10.5861 23.5519 10.167C23.1545 9.33553 22.6312 8.57036 22.0005 7.89851C21.8515 7.73084 21.6937 7.58488 21.5379 7.43891L21.242 7.17557C21.1868 7.12724 21.1276 7.07693 21.0743 7.03353L20.9757 6.95463C19.8803 6.09805 18.5999 5.50935 17.2366 5.23551L16.9013 5.17337L16.6804 5.14181L16.5127 5.11814L16.3934 5.10434L15.9426 5.06884L15.5668 5.05699H15.4564L15.0293 5.06587H14.9149L14.5046 5.09448L14.2866 5.11913L13.9967 5.15464L13.9099 5.16943L13.4976 5.24143L13.111 5.32823L12.9985 5.35486L12.7204 5.43179C12.6504 5.45152 12.5793 5.47026 12.5054 5.49393L12.3762 5.53634C12.2085 5.59157 12.0408 5.64877 11.8731 5.71387L11.6236 5.8125L11.238 5.98017C11.1709 6.01075 11.1038 6.04429 11.0407 6.07881L10.9352 6.13205L10.7843 6.20899L10.6857 6.26127L10.3336 6.45853L9.99819 6.66763L9.90645 6.72778L9.61057 6.93688C9.57013 6.96549 9.53169 6.99211 9.49125 7.02367C7.6675 8.39318 6.36637 10.3447 5.80347 12.5548L5.70487 12.9572L5.61216 13.4603L5.54504 13.9633L5.50362 14.484V14.5255L5.49182 14.92V15.0324L5.5017 15.5354L5.54209 16.1134L5.59043 16.5207C5.70521 17.3896 5.92582 18.2412 6.24732 19.0565C6.31143 19.2242 6.38441 19.3919 6.45543 19.5595L6.50377 19.67C6.53927 19.7519 6.57577 19.8258 6.61423 19.9028L6.80163 20.2716C7.00807 20.6516 7.23558 21.0197 7.48314 21.3743L7.54725 21.465C7.58868 21.5252 7.63107 21.5844 7.67644 21.6446L7.97232 22.0322L8.28896 22.403C8.33236 22.4533 8.38166 22.5016 8.43097 22.5559L8.67357 22.8143L9.00894 23.1349L9.08293 23.2039L9.45971 23.5392L9.60563 23.6566L9.69641 23.7286C9.83548 23.843 9.97651 23.9446 10.1156 24.0432L10.2142 24.1133C10.2891 24.1685 10.3601 24.2119 10.4302 24.2612L10.7655 24.4772L11.1176 24.6833C11.1847 24.7218 11.2489 24.7603 11.309 24.7889C12.0648 25.1943 12.8642 25.5127 13.6919 25.7377C13.7609 25.7564 13.826 25.7732 13.8891 25.788H13.9059L14.0095 25.8127L14.1199 25.8373L14.3172 25.8827L14.6653 25.9478C14.7541 25.9645 14.8468 25.9813 14.9297 25.9912L15.3065 26.0415L15.4051 26.0533L15.8982 26.0938H16.5886C19.3565 26.089 22.0419 25.1514 24.2111 23.4323C26.3804 21.7131 27.9067 19.3129 28.5436 16.6194L28.6106 16.3363L28.7142 15.7761C28.7241 15.7179 28.7329 15.6587 28.7408 15.5897C28.7398 15.5562 28.7445 15.5229 28.7546 15.491L28.7734 15.3549C28.7921 15.2238 28.8118 15.0748 28.8197 14.9289L28.8552 14.486V14.4337L28.872 13.8942C28.872 13.8515 28.8647 13.8092 28.8503 13.769L28.8552 13.7995Z" fill="#80A43E"/>
</svg>
