<svg width="85" height="33" viewBox="0 0 85 33" fill="none" xmlns="http://www.w3.org/2000/svg">
<path d="M28.7369 12.3238C28.6842 12.169 28.6053 11.8593 28.1316 11.8593C27.8684 11.8593 27.4474 12.0399 27.4474 12.8141C27.4474 13.3045 27.6316 13.7432 28.1316 13.7432C28.4474 13.7432 28.6842 13.5625 28.7369 13.227H29.3158C29.2105 13.8206 28.8158 14.2335 28.1316 14.2335C27.3947 14.2335 26.8684 13.7432 26.8684 12.8141C26.8684 11.8593 27.4211 11.3948 28.1316 11.3948C28.9474 11.3948 29.2895 11.9625 29.3158 12.3496H28.7369V12.3238Z" fill="#A9AAA9"/>
<path d="M30.9474 11.3689C31.3158 11.3689 32.2632 11.5237 32.2632 12.7883C32.2632 14.0528 31.3158 14.2076 30.9474 14.2076C30.579 14.2076 29.6316 14.0528 29.6316 12.7883C29.6316 11.5237 30.579 11.3689 30.9474 11.3689ZM30.9474 13.7431C31.2632 13.7431 31.6842 13.5624 31.6842 12.7883C31.6842 12.0399 31.2369 11.8334 30.9474 11.8334C30.6579 11.8334 30.2105 12.0141 30.2105 12.7883C30.2105 13.5624 30.6316 13.7431 30.9474 13.7431Z" fill="#A9AAA9"/>
<path d="M35.3684 14.156H34.8421V11.9108L34.3158 14.156H33.7632L33.2632 11.9108V14.156H32.7369V11.4463H33.579L34.079 13.5624L34.579 11.4463H35.4211V14.156H35.3684Z" fill="#A9AAA9"/>
<path d="M36.5 14.156H35.9211V11.4463H37.1842C37.7105 11.4463 38.0263 11.7818 38.0263 12.2979C38.0263 12.5302 37.8947 13.1495 37.1579 13.1495H36.5V14.156ZM37.0263 12.7108C37.4474 12.7108 37.4474 12.4011 37.4474 12.2979C37.4474 12.0398 37.2895 11.9366 36.9474 11.9366H36.5V12.7108H37.0263Z" fill="#A9AAA9"/>
<path d="M38.4737 11.4463H39.8684C40.6053 11.4463 40.7369 11.9882 40.7369 12.2205C40.7369 12.5044 40.579 12.7624 40.3158 12.8656C40.5527 12.9689 40.6579 13.0463 40.6579 13.5366C40.6579 13.9237 40.6579 14.0269 40.7895 14.0785V14.156H40.1579C40.1316 14.0269 40.1053 13.8979 40.1053 13.614C40.1053 13.2527 40.079 13.0979 39.6579 13.0979H39.0527V14.156H38.5V11.4463H38.4737ZM39.7105 12.6334C40 12.6334 40.1579 12.5302 40.1579 12.2721C40.1579 12.1173 40.1053 11.9108 39.7632 11.9108H39.0527V12.6334H39.7105Z" fill="#A9AAA9"/>
<path d="M41.6316 14.156H41.0263L42 11.4463H42.6579L43.6316 14.156H43L42.8158 13.5882H41.7895L41.6316 14.156ZM41.9737 13.1237H42.6842L42.3421 12.0656L41.9737 13.1237Z" fill="#A9AAA9"/>
<path d="M45.4737 13.3302C45.4737 13.485 45.5527 13.7689 46.0527 13.7689C46.3158 13.7689 46.6316 13.7173 46.6316 13.4076C46.6316 13.2012 46.4211 13.1495 46.1316 13.0721L45.8421 12.9947C45.3948 12.8915 44.9737 12.7883 44.9737 12.1947C44.9737 11.885 45.1316 11.3689 46.0263 11.3689C46.8684 11.3689 47.1053 11.9108 47.1053 12.2463H46.5527C46.5263 12.1173 46.5 11.8334 46 11.8334C45.7895 11.8334 45.5264 11.9108 45.5264 12.1689C45.5264 12.3753 45.7106 12.427 45.8158 12.4528L46.4737 12.6076C46.8421 12.685 47.1842 12.8399 47.1842 13.3302C47.1842 14.1302 46.3421 14.2076 46.1053 14.2076C45.1053 14.2076 44.9211 13.6399 44.9211 13.3044H45.4737V13.3302Z" fill="#A9AAA9"/>
<path d="M49.6579 11.9366H48.2105V12.5044H49.5526V12.9689H48.2105V13.6656H49.7368V14.1302H47.6316V11.4463H49.6579V11.9366Z" fill="#A9AAA9"/>
<path d="M51.4737 12.685H52.6316V14.1302H52.2369L52.1842 13.7947C52.0263 13.9495 51.8158 14.2076 51.3158 14.2076C50.6579 14.2076 50.0527 13.7431 50.0527 12.7883C50.0527 12.0399 50.4737 11.3689 51.3948 11.3689C52.2369 11.3689 52.579 11.9108 52.6053 12.2721H52.0263C52.0263 12.1689 51.8421 11.8334 51.4211 11.8334C51 11.8334 50.6316 12.1173 50.6316 12.8141C50.6316 13.5624 51.0527 13.7431 51.4211 13.7431C51.5527 13.7431 51.9737 13.6915 52.079 13.1495H51.4474V12.685H51.4737Z" fill="#A9AAA9"/>
<path d="M55.3684 13.2011C55.3684 13.9237 54.9211 14.2076 54.2368 14.2076C53.9737 14.2076 53.6053 14.156 53.3684 13.8721C53.2105 13.7173 53.1579 13.485 53.1579 13.2269V11.4463H53.7368V13.2011C53.7368 13.5882 53.9474 13.7431 54.2368 13.7431C54.6316 13.7431 54.7895 13.5624 54.7895 13.2269V11.4463H55.3684V13.2011Z" fill="#A9AAA9"/>
<path d="M55.9211 11.4463H57.3158C58.0526 11.4463 58.1842 11.9882 58.1842 12.2205C58.1842 12.5044 58.0263 12.7624 57.7631 12.8656C58 12.9689 58.1053 13.0463 58.1053 13.5366C58.1053 13.9237 58.1053 14.0269 58.2368 14.0785V14.156H57.6053C57.5789 14.0269 57.5526 13.8979 57.5526 13.614C57.5526 13.2527 57.5263 13.0979 57.1053 13.0979H56.5V14.156H55.9474V11.4463H55.9211ZM57.1579 12.6334C57.4474 12.6334 57.6053 12.5302 57.6053 12.2721C57.6053 12.1173 57.5526 11.9108 57.2105 11.9108H56.5V12.6334H57.1579Z" fill="#A9AAA9"/>
<path d="M59.079 14.156H58.4737L59.4474 11.4463H60.1053L61.079 14.156H60.4474L60.2632 13.5882H59.2369L59.079 14.156ZM59.4211 13.1237H60.1316L59.7895 12.0656L59.4211 13.1237Z" fill="#A9AAA9"/>
<path d="M27.9211 19.885C27.9211 20.143 28.0527 20.6592 28.9474 20.6592C29.4211 20.6592 29.9474 20.5559 29.9474 20.0398C29.9474 19.6785 29.579 19.5753 29.079 19.4463L28.5527 19.3172C27.7632 19.1366 27.0263 18.9817 27.0263 17.9237C27.0263 17.4075 27.3158 16.4785 28.8684 16.4785C30.3421 16.4785 30.7369 17.4334 30.7369 18.0011H29.7632C29.7369 17.7946 29.6579 17.2785 28.7895 17.2785C28.3948 17.2785 27.9474 17.4075 27.9474 17.8463C27.9474 18.2075 28.2632 18.285 28.4474 18.3366L29.6316 18.6205C30.2895 18.7753 30.8948 19.0334 30.8948 19.885C30.8948 21.3043 29.4211 21.4334 29 21.4334C27.2369 21.4334 26.9474 20.4527 26.9474 19.8592H27.9211V19.885Z" fill="#A9AAA9"/>
<path d="M32.6053 21.3559H31.5789V16.6333H32.579V21.3559H32.6053Z" fill="#A9AAA9"/>
<path d="M35.579 21.3559H34.579V17.4591H33.1316V16.6333H37.0526V17.4591H35.6053V21.3559H35.579Z" fill="#A9AAA9"/>
<path d="M41.1579 17.4591H38.6053V18.4398H40.9474V19.2656H38.6053V20.4785H41.2632V21.3043H37.6316V16.6333H41.1579V17.4591Z" fill="#A9AAA9"/>
<path d="M44.9737 21.3559H43.9737V16.6333H46.1842C47.1053 16.6333 47.6842 17.2268 47.6842 18.1559C47.6842 18.5946 47.4474 19.6527 46.1579 19.6527H45V21.3559H44.9737ZM45.8948 18.8268C46.6579 18.8268 46.6579 18.3107 46.6579 18.0785C46.6579 17.6139 46.3948 17.4333 45.7632 17.4333H44.9737V18.8268H45.8948Z" fill="#A9AAA9"/>
<path d="M48.4474 16.6333H50.8684C52.1579 16.6333 52.3948 17.5623 52.3948 17.9752C52.3948 18.4914 52.1316 18.9301 51.6579 19.1107C52.0527 19.2914 52.2632 19.4204 52.2632 20.2978C52.2632 20.9946 52.2632 21.1494 52.4737 21.2269V21.3559H51.3684C51.2895 21.1236 51.2632 20.8914 51.2632 20.401C51.2632 19.7559 51.2105 19.4978 50.4737 19.4978H49.4474V21.3559H48.4737V16.6333H48.4474ZM50.6053 18.6978C51.1316 18.6978 51.3948 18.5172 51.3948 18.0527C51.3948 17.7946 51.2895 17.4333 50.6842 17.4333H49.4211V18.6978H50.6053Z" fill="#A9AAA9"/>
<path d="M55.2369 16.5044C55.8684 16.5044 57.5526 16.7625 57.5526 18.9818C57.5526 21.2012 55.8684 21.4592 55.2369 21.4592C54.6053 21.4592 52.9211 21.2012 52.9211 18.9818C52.9211 16.7625 54.6053 16.5044 55.2369 16.5044ZM55.2369 20.6334C55.7895 20.6334 56.5526 20.2979 56.5526 18.9818C56.5526 17.6657 55.7895 17.3302 55.2369 17.3302C54.6842 17.3302 53.9211 17.6657 53.9211 18.9818C53.9211 20.2979 54.6842 20.6334 55.2369 20.6334Z" fill="#A9AAA9"/>
<path d="M60.1316 21.3559H59.1316V17.4591H57.6842V16.6333H61.579V17.4591H60.1316V21.3559Z" fill="#A9AAA9"/>
<path d="M65.7106 17.4591H63.1579V18.4398H65.5V19.2656H63.1579V20.4785H65.8158V21.3043H62.1579V16.6333H65.6843V17.4591H65.7106Z" fill="#A9AAA9"/>
<path d="M68.921 18.8012H70.921V21.356H70.2631L70.1579 20.7625C69.8947 21.0463 69.5263 21.485 68.6579 21.485C67.5 21.485 66.4474 20.6592 66.4474 19.0076C66.4474 17.7173 67.1842 16.5044 68.7895 16.5044C70.2631 16.5044 70.8421 17.4334 70.8947 18.1044H69.8947C69.8947 17.9238 69.5526 17.3302 68.8421 17.3302C68.1316 17.3302 67.4737 17.8205 67.4737 19.0334C67.4737 20.3238 68.1842 20.6592 68.8684 20.6592C69.0789 20.6592 69.8158 20.5818 70.0263 19.627H68.8947V18.8012H68.921Z" fill="#A9AAA9"/>
<path d="M72.7895 21.3559H71.7895V16.6333H72.7895V21.3559Z" fill="#A9AAA9"/>
<path d="M73.7369 16.6333H75.8684C77.5 16.6333 77.8158 17.9752 77.8158 18.8785C77.8158 19.8849 77.3948 21.3559 75.8158 21.3559H73.7369V16.6333ZM74.7105 20.5301H75.6842C76.5 20.5301 76.7895 19.7301 76.7895 18.9559C76.7895 17.5623 76.1053 17.4591 75.6842 17.4591H74.7105V20.5301Z" fill="#A9AAA9"/>
<path d="M80.6579 16.5044C81.2895 16.5044 82.9737 16.7625 82.9737 18.9818C82.9737 21.2012 81.2895 21.4592 80.6579 21.4592C80.0263 21.4592 78.3421 21.2012 78.3421 18.9818C78.3684 16.7625 80.0263 16.5044 80.6579 16.5044ZM80.6579 20.6334C81.2106 20.6334 81.9737 20.2979 81.9737 18.9818C81.9737 17.6657 81.2106 17.3302 80.6579 17.3302C80.1053 17.3302 79.3421 17.6657 79.3421 18.9818C79.3684 20.2979 80.1316 20.6334 80.6579 20.6334Z" fill="#A9AAA9"/>
<path d="M28.7369 24.4268C28.6842 24.272 28.6053 23.9623 28.1316 23.9623C27.8684 23.9623 27.4474 24.143 27.4474 24.9172C27.4474 25.4075 27.6316 25.8462 28.1316 25.8462C28.4474 25.8462 28.6842 25.6655 28.7369 25.3301H29.3158C29.2105 25.9236 28.8158 26.3365 28.1316 26.3365C27.3947 26.3365 26.8684 25.8462 26.8684 24.9172C26.8684 23.9623 27.4211 23.4978 28.1316 23.4978C28.9474 23.4978 29.2895 24.0655 29.3158 24.4526H28.7369V24.4268Z" fill="#A9AAA9"/>
<path d="M31.7632 24.0399H30.3158V24.6076H31.6579V25.0721H30.3158V25.7689H31.8421V26.2334H29.7368V23.5496H31.7632V24.0399Z" fill="#A9AAA9"/>
<path d="M32.2895 23.5496H33.6842C34.4211 23.5496 34.5527 24.0915 34.5527 24.3238C34.5527 24.6334 34.3948 24.8657 34.1316 24.9689C34.3684 25.0721 34.4737 25.1496 34.4737 25.6399C34.4737 26.027 34.4737 26.1302 34.6053 26.1818V26.2592H33.9737C33.9474 26.1302 33.9211 26.0012 33.9211 25.7173C33.9211 25.356 33.8948 25.2012 33.4737 25.2012H32.8684V26.2592H32.3158V23.5496H32.2895ZM33.5263 24.7367C33.8158 24.7367 33.9737 24.6334 33.9737 24.3754C33.9737 24.2205 33.9211 24.0141 33.579 24.0141H32.8684V24.7367H33.5263Z" fill="#A9AAA9"/>
<path d="M36.1579 26.2592H35.5789V24.0399H34.7368V23.5496H36.9737V24.0141H36.1316V26.2592H36.1579Z" fill="#A9AAA9"/>
<path d="M37.8684 26.2592H37.2895V23.5496H37.8684V26.2592Z" fill="#A9AAA9"/>
<path d="M38.9737 26.2592H38.3948V23.5496H40.3421V24.0141H38.9474V24.6334H40.1579V25.0979H38.9474V26.2592H38.9737Z" fill="#A9AAA9"/>
<path d="M41.2632 26.2592H40.6842V23.5496H41.2632V26.2592Z" fill="#A9AAA9"/>
<path d="M43.5527 24.4268C43.5 24.272 43.4211 23.9623 42.9474 23.9623C42.6842 23.9623 42.2632 24.143 42.2632 24.9172C42.2632 25.4075 42.4474 25.8462 42.9474 25.8462C43.2632 25.8462 43.5 25.6655 43.5527 25.3301H44.1316C44.0263 25.9236 43.6316 26.3365 42.9474 26.3365C42.2105 26.3365 41.6842 25.8462 41.6842 24.9172C41.6842 23.9623 42.2369 23.4978 42.9474 23.4978C43.7632 23.4978 44.1053 24.0655 44.1316 24.4526H43.5527V24.4268Z" fill="#A9AAA9"/>
<path d="M44.9474 26.2592H44.3421L45.3158 23.5496H45.9737L46.9474 26.2592H46.3158L46.1316 25.6915H45.1053L44.9474 26.2592ZM45.2895 25.227H46L45.6579 24.1689L45.2895 25.227Z" fill="#A9AAA9"/>
<path d="M47.3421 23.5496H48.5526C49.4737 23.5496 49.6842 24.3238 49.6842 24.8399C49.6842 25.4076 49.4474 26.2592 48.5526 26.2592H47.3684V23.5496H47.3421ZM47.8948 25.7947H48.4474C48.9211 25.7947 49.079 25.3302 49.079 24.8915C49.079 24.0915 48.6842 24.0399 48.4474 24.0399H47.8948V25.7947Z" fill="#A9AAA9"/>
<path d="M51.2895 23.4722C51.6579 23.4722 52.6053 23.627 52.6053 24.8915C52.6053 26.156 51.6579 26.3109 51.2895 26.3109C50.9211 26.3109 49.9737 26.156 49.9737 24.8915C49.9737 23.627 50.9211 23.4722 51.2895 23.4722ZM51.2895 25.8464C51.6053 25.8464 52.0263 25.6657 52.0263 24.8915C52.0263 24.1173 51.579 23.9367 51.2895 23.9367C50.9737 23.9367 50.5526 24.1173 50.5526 24.8915C50.5526 25.6657 50.9737 25.8464 51.2895 25.8464Z" fill="#A9AAA9"/>
<path d="M54.5527 25.4076C54.5527 25.5624 54.6316 25.8463 55.1316 25.8463C55.3948 25.8463 55.7106 25.7947 55.7106 25.485C55.7106 25.2785 55.5 25.2269 55.2106 25.1495L54.9211 25.0721C54.4737 24.9689 54.0527 24.8656 54.0527 24.2721C54.0527 23.9624 54.2106 23.4463 55.1053 23.4463C55.9474 23.4463 56.1842 23.9882 56.1842 24.3237H55.6316C55.6053 24.1947 55.579 23.9108 55.079 23.9108C54.8684 23.9108 54.6053 23.9882 54.6053 24.2463C54.6053 24.4527 54.7895 24.5044 54.8948 24.5302L55.5527 24.685C55.9211 24.7624 56.2632 24.9173 56.2632 25.4076C56.2632 26.2076 55.4211 26.285 55.1842 26.285C54.1842 26.285 54 25.7173 54 25.3818H54.5527V25.4076Z" fill="#A9AAA9"/>
<path d="M57.1053 25.4076C57.1053 25.5624 57.1842 25.8463 57.6842 25.8463C57.9474 25.8463 58.2632 25.7947 58.2632 25.485C58.2632 25.2785 58.0526 25.2269 57.7632 25.1495L57.4737 25.0721C57.0263 24.9689 56.6053 24.8656 56.6053 24.2721C56.6053 23.9624 56.7632 23.4463 57.6579 23.4463C58.5 23.4463 58.7369 23.9882 58.7369 24.3237H58.1842C58.1579 24.1947 58.1316 23.9108 57.6316 23.9108C57.4211 23.9108 57.1579 23.9882 57.1579 24.2463C57.1579 24.4527 57.3421 24.5044 57.4474 24.5302L58.1053 24.685C58.4737 24.7624 58.8158 24.9173 58.8158 25.4076C58.8158 26.2076 57.9737 26.285 57.7369 26.285C56.7369 26.285 56.5526 25.7173 56.5526 25.3818H57.1053V25.4076Z" fill="#A9AAA9"/>
<path d="M59.8158 25.7689H61.1842V26.2592H59.2369V23.5496H59.8158V25.7689Z" fill="#A9AAA9"/>
<path d="M17.4211 16.5817H15.5526V10.543C15.5526 7.91072 13.3684 5.76878 10.6842 5.76878C8 5.76878 5.81579 7.91072 5.81579 10.543V16.5817H3.94737V10.543C3.94737 6.90426 6.97368 3.93652 10.6842 3.93652C14.3947 3.93652 17.4211 6.90426 17.4211 10.543V16.5817Z" fill="#73726F"/>
<path d="M20.2632 25.6915C20.2632 26.0786 19.9474 26.3883 19.5526 26.3883H1.81578C1.42105 26.3883 1.10526 26.0786 1.10526 25.6915V14.4141C1.10526 14.027 1.42105 13.7173 1.81578 13.7173H19.5263C19.921 13.7173 20.2368 14.027 20.2368 14.4141V25.6915H20.2632Z" fill="#FFCB02"/>
<path d="M20.2632 25.6913V18.7751C14.421 23.6268 5.99999 25.459 1.23684 26.1042C1.36841 26.2848 1.57894 26.3881 1.81578 26.3881H19.5263C19.9474 26.4139 20.2632 26.1042 20.2632 25.6913Z" fill="#FBB515"/>
<path d="M12.2631 18.1558C12.2631 17.3042 11.5526 16.6074 10.6842 16.6074C9.81577 16.6074 9.10524 17.3042 9.10524 18.1558C9.10524 18.6719 9.3684 19.1106 9.73682 19.3945L9.23682 22.9042H12.1316L11.6316 19.3945C12.0263 19.1106 12.2631 18.6461 12.2631 18.1558Z" fill="#57595A"/>
<path d="M1.71053 15.0333V17.4591C1.76316 16.4268 2.28947 14.1816 5.44737 14.1816H2.57895C2.10526 14.2074 1.71053 14.5687 1.71053 15.0333Z" fill="#FFDB53"/>
<path d="M9.23682 22.9042C9.23682 22.9042 11.3947 22.3107 11.6316 19.3945L12.1316 22.9042H9.23682Z" fill="#3C3B3E"/>
</svg>
