<svg width="86" height="33" viewBox="0 0 86 33" fill="none" xmlns="http://www.w3.org/2000/svg">
<path d="M29.5255 12.063C29.4729 11.9082 29.3939 11.5985 28.9203 11.5985C28.6571 11.5985 28.2361 11.7791 28.2361 12.5533C28.2361 13.0437 28.4203 13.4824 28.9203 13.4824C29.2361 13.4824 29.4729 13.3017 29.5255 12.9662H30.1045C29.9992 13.5598 29.6045 13.9727 28.9203 13.9727C28.1834 13.9727 27.6571 13.4824 27.6571 12.5533C27.6571 11.5985 28.2097 11.134 28.9203 11.134C29.7361 11.134 30.0782 11.7017 30.1045 12.0888H29.5255V12.063Z" fill="#A9AAA9"/>
<path d="M31.7361 11.1082C32.1045 11.1082 33.0519 11.263 33.0519 12.5275C33.0519 13.7921 32.1045 13.9469 31.7361 13.9469C31.3677 13.9469 30.4203 13.7921 30.4203 12.5275C30.4203 11.263 31.3677 11.1082 31.7361 11.1082ZM31.7361 13.4824C32.0519 13.4824 32.4729 13.3017 32.4729 12.5275C32.4729 11.7792 32.0256 11.5727 31.7361 11.5727C31.4466 11.5727 30.9992 11.7533 30.9992 12.5275C30.9992 13.3017 31.4203 13.4824 31.7361 13.4824Z" fill="#A9AAA9"/>
<path d="M36.1571 13.8953H35.6308V11.6501L35.1045 13.8953H34.5518L34.0518 11.6501V13.8953H33.5255V11.1856H34.3676L34.8676 13.3017L35.3676 11.1856H36.2097V13.8953H36.1571Z" fill="#A9AAA9"/>
<path d="M37.2887 13.8953H36.7097V11.1856H37.9729C38.4992 11.1856 38.815 11.5211 38.815 12.0372C38.815 12.2695 38.6834 12.8888 37.9466 12.8888H37.2887V13.8953ZM37.815 12.4501C38.236 12.4501 38.236 12.1404 38.236 12.0372C38.236 11.7792 38.0781 11.6759 37.736 11.6759H37.2887V12.4501H37.815Z" fill="#A9AAA9"/>
<path d="M39.2623 11.1856H40.6571C41.3939 11.1856 41.5255 11.7275 41.5255 11.9598C41.5255 12.2437 41.3676 12.5017 41.1044 12.605C41.3413 12.7082 41.4465 12.7856 41.4465 13.2759C41.4465 13.663 41.4465 13.7663 41.5781 13.8179V13.8953H40.9465C40.9202 13.7663 40.8939 13.6372 40.8939 13.3533C40.8939 12.9921 40.8676 12.8372 40.4465 12.8372H39.8413V13.8953H39.2886V11.1856H39.2623ZM40.4992 12.3727C40.7886 12.3727 40.9465 12.2695 40.9465 12.0114C40.9465 11.8566 40.8939 11.6501 40.5518 11.6501H39.8413V12.3727H40.4992Z" fill="#A9AAA9"/>
<path d="M42.4203 13.8953H41.8151L42.7887 11.1856H43.4466L44.4203 13.8953H43.7887L43.6045 13.3275H42.5782L42.4203 13.8953ZM42.7624 12.863H43.473L43.1308 11.805L42.7624 12.863Z" fill="#A9AAA9"/>
<path d="M46.2623 13.0695C46.2623 13.2243 46.3413 13.5082 46.8413 13.5082C47.1044 13.5082 47.4202 13.4566 47.4202 13.1469C47.4202 12.9404 47.2097 12.8888 46.9202 12.8114L46.6308 12.734C46.1834 12.6308 45.7623 12.5275 45.7623 11.934C45.7623 11.6243 45.9202 11.1082 46.815 11.1082C47.6571 11.1082 47.8939 11.6501 47.8939 11.9856H47.3413C47.315 11.8566 47.2887 11.5727 46.7887 11.5727C46.5781 11.5727 46.315 11.6501 46.315 11.9082C46.315 12.1146 46.4992 12.1662 46.6045 12.1921L47.2623 12.3469C47.6308 12.4243 47.9729 12.5792 47.9729 13.0695C47.9729 13.8695 47.1308 13.9469 46.8939 13.9469C45.8939 13.9469 45.7097 13.3792 45.7097 13.0437H46.2623V13.0695Z" fill="#A9AAA9"/>
<path d="M50.4466 11.6759H48.9992V12.2437H50.3413V12.7082H48.9992V13.405H50.5256V13.8695H48.4203V11.1856H50.4466V11.6759Z" fill="#A9AAA9"/>
<path d="M52.2624 12.4243H53.4202V13.8695H53.0255L52.9729 13.534C52.815 13.6888 52.6045 13.9469 52.1045 13.9469C51.4466 13.9469 50.8413 13.4824 50.8413 12.5275C50.8413 11.7792 51.2624 11.1082 52.1834 11.1082C53.0255 11.1082 53.3676 11.6501 53.3939 12.0114H52.815C52.815 11.9082 52.6308 11.5727 52.2097 11.5727C51.7887 11.5727 51.4203 11.8566 51.4203 12.5533C51.4203 13.3017 51.8413 13.4824 52.2097 13.4824C52.3413 13.4824 52.7624 13.4308 52.8676 12.8888H52.236V12.4243H52.2624Z" fill="#A9AAA9"/>
<path d="M56.1571 12.9404C56.1571 13.663 55.7097 13.9469 55.0255 13.9469C54.7623 13.9469 54.3939 13.8953 54.1571 13.6114C53.9992 13.4566 53.9465 13.2243 53.9465 12.9663V11.1856H54.5255V12.9404C54.5255 13.3275 54.736 13.4824 55.0255 13.4824C55.4202 13.4824 55.5781 13.3017 55.5781 12.9663V11.1856H56.1571V12.9404Z" fill="#A9AAA9"/>
<path d="M56.7097 11.1856H58.1044C58.8413 11.1856 58.9729 11.7275 58.9729 11.9598C58.9729 12.2437 58.815 12.5017 58.5518 12.605C58.7887 12.7082 58.8939 12.7856 58.8939 13.2759C58.8939 13.663 58.8939 13.7663 59.0255 13.8179V13.8953H58.3939C58.3676 13.7663 58.3413 13.6372 58.3413 13.3533C58.3413 12.9921 58.315 12.8372 57.8939 12.8372H57.2887V13.8953H56.736V11.1856H56.7097ZM57.9466 12.3727C58.236 12.3727 58.3939 12.2695 58.3939 12.0114C58.3939 11.8566 58.3413 11.6501 57.9992 11.6501H57.2887V12.3727H57.9466Z" fill="#A9AAA9"/>
<path d="M59.8677 13.8953H59.2625L60.2361 11.1856H60.894L61.8677 13.8953H61.2361L61.0519 13.3275H60.0256L59.8677 13.8953ZM60.2098 12.863H60.9203L60.5782 11.805L60.2098 12.863Z" fill="#A9AAA9"/>
<path d="M28.7098 19.6243C28.7098 19.8824 28.8413 20.3985 29.7361 20.3985C30.2098 20.3985 30.7361 20.2953 30.7361 19.7792C30.7361 19.4179 30.3677 19.3146 29.8677 19.1856L29.3413 19.0566C28.5519 18.8759 27.815 18.7211 27.815 17.663C27.815 17.1469 28.1045 16.2179 29.6571 16.2179C31.1308 16.2179 31.5256 17.1727 31.5256 17.7404H30.5519C30.5256 17.534 30.4466 17.0179 29.5782 17.0179C29.1835 17.0179 28.7361 17.1469 28.7361 17.5856C28.7361 17.9469 29.0519 18.0243 29.2361 18.0759L30.4203 18.3598C31.0782 18.5146 31.6835 18.7727 31.6835 19.6243C31.6835 21.0437 30.2098 21.1727 29.7887 21.1727C28.0256 21.1727 27.7361 20.1921 27.7361 19.5985H28.7098V19.6243Z" fill="#A9AAA9"/>
<path d="M33.394 21.0953H32.3677V16.3727H33.3677V21.0953H33.394Z" fill="#A9AAA9"/>
<path d="M36.3677 21.0953H35.3677V17.1985H33.9203V16.3727H37.8413V17.1985H36.394V21.0953H36.3677Z" fill="#A9AAA9"/>
<path d="M41.9466 17.1985H39.394V18.1791H41.7361V19.005H39.394V20.2179H42.0519V21.0437H38.4203V16.3727H41.9466V17.1985Z" fill="#A9AAA9"/>
<path d="M45.7623 21.0953H44.7623V16.3727H46.9729C47.8939 16.3727 48.4729 16.9662 48.4729 17.8953C48.4729 18.334 48.236 19.3921 46.9465 19.3921H45.7886V21.0953H45.7623ZM46.6834 18.5662C47.4465 18.5662 47.4465 18.0501 47.4465 17.8179C47.4465 17.3533 47.1834 17.1727 46.5518 17.1727H45.7623V18.5662H46.6834Z" fill="#A9AAA9"/>
<path d="M49.2361 16.3727H51.6571C52.9466 16.3727 53.1834 17.3017 53.1834 17.7146C53.1834 18.2308 52.9203 18.6695 52.4466 18.8501C52.8413 19.0308 53.0519 19.1598 53.0519 20.0372C53.0519 20.734 53.0519 20.8888 53.2624 20.9662V21.0953H52.1571C52.0782 20.863 52.0519 20.6308 52.0519 20.1404C52.0519 19.4953 51.9992 19.2372 51.2624 19.2372H50.2361V21.0953H49.2624V16.3727H49.2361ZM51.394 18.4372C51.9203 18.4372 52.1834 18.2566 52.1834 17.7921C52.1834 17.534 52.0782 17.1727 51.4729 17.1727H50.2098V18.4372H51.394Z" fill="#A9AAA9"/>
<path d="M56.0255 16.2437C56.6571 16.2437 58.3413 16.5017 58.3413 18.7211C58.3413 20.9404 56.6571 21.1985 56.0255 21.1985C55.3939 21.1985 53.7097 20.9404 53.7097 18.7211C53.7097 16.5017 55.3939 16.2437 56.0255 16.2437ZM56.0255 20.3727C56.5781 20.3727 57.3413 20.0372 57.3413 18.7211C57.3413 17.405 56.5781 17.0695 56.0255 17.0695C55.4729 17.0695 54.7097 17.405 54.7097 18.7211C54.7097 20.0372 55.4729 20.3727 56.0255 20.3727Z" fill="#A9AAA9"/>
<path d="M60.9203 21.0953H59.9203V17.1985H58.4729V16.3727H62.3676V17.1985H60.9203V21.0953Z" fill="#A9AAA9"/>
<path d="M66.4993 17.1985H63.9467V18.1791H66.2888V19.005H63.9467V20.2179H66.6046V21.0437H62.9467V16.3727H66.473V17.1985H66.4993Z" fill="#A9AAA9"/>
<path d="M69.7098 18.5404H71.7098V21.0953H71.0519L70.9466 20.5017C70.6834 20.7856 70.315 21.2243 69.4466 21.2243C68.2887 21.2243 67.2361 20.3985 67.2361 18.7469C67.2361 17.4566 67.9729 16.2437 69.5782 16.2437C71.0519 16.2437 71.6308 17.1727 71.6834 17.8437H70.6834C70.6834 17.663 70.3413 17.0695 69.6308 17.0695C68.9203 17.0695 68.2624 17.5598 68.2624 18.7727C68.2624 20.063 68.9729 20.3985 69.6571 20.3985C69.8677 20.3985 70.6045 20.3211 70.815 19.3663H69.6834V18.5404H69.7098Z" fill="#A9AAA9"/>
<path d="M73.5781 21.0953H72.5781V16.3727H73.5781V21.0953Z" fill="#A9AAA9"/>
<path d="M74.5255 16.3727H76.6571C78.2887 16.3727 78.6045 17.7146 78.6045 18.6179C78.6045 19.6243 78.1834 21.0953 76.6045 21.0953H74.5255V16.3727ZM75.4992 20.2695H76.4729C77.2887 20.2695 77.5781 19.4695 77.5781 18.6953C77.5781 17.3017 76.8939 17.1985 76.4729 17.1985H75.4992V20.2695Z" fill="#A9AAA9"/>
<path d="M81.4466 16.2437C82.0782 16.2437 83.7624 16.5017 83.7624 18.7211C83.7624 20.9404 82.0782 21.1985 81.4466 21.1985C80.8151 21.1985 79.1309 20.9404 79.1309 18.7211C79.1572 16.5017 80.8151 16.2437 81.4466 16.2437ZM81.4466 20.3727C81.9993 20.3727 82.7624 20.0372 82.7624 18.7211C82.7624 17.405 81.9993 17.0695 81.4466 17.0695C80.894 17.0695 80.1309 17.405 80.1309 18.7211C80.1572 20.0372 80.9203 20.3727 81.4466 20.3727Z" fill="#A9AAA9"/>
<path d="M29.5255 24.1662C29.4729 24.0114 29.3939 23.7017 28.9203 23.7017C28.6571 23.7017 28.2361 23.8824 28.2361 24.6566C28.2361 25.1469 28.4203 25.5856 28.9203 25.5856C29.2361 25.5856 29.4729 25.405 29.5255 25.0695H30.1045C29.9992 25.663 29.6045 26.0759 28.9203 26.0759C28.1834 26.0759 27.6571 25.5856 27.6571 24.6566C27.6571 23.7017 28.2097 23.2372 28.9203 23.2372C29.7361 23.2372 30.0782 23.805 30.1045 24.1921H29.5255V24.1662Z" fill="#A9AAA9"/>
<path d="M32.5518 23.7791H31.1045V24.3469H32.4466V24.8114H31.1045V25.5082H32.6308V25.9727H30.5255V23.2888H32.5518V23.7791Z" fill="#A9AAA9"/>
<path d="M33.0781 23.2888H34.4729C35.2097 23.2888 35.3413 23.8308 35.3413 24.063C35.3413 24.3727 35.1834 24.6049 34.9202 24.7082C35.1571 24.8114 35.2623 24.8888 35.2623 25.3791C35.2623 25.7662 35.2623 25.8695 35.3939 25.9211V25.9985H34.7623C34.736 25.8695 34.7097 25.7404 34.7097 25.4566C34.7097 25.0953 34.6834 24.9404 34.2623 24.9404H33.6571V25.9985H33.1044V23.2888H33.0781ZM34.315 24.4759C34.6044 24.4759 34.7623 24.3727 34.7623 24.1146C34.7623 23.9598 34.7097 23.7533 34.3676 23.7533H33.6571V24.4759H34.315Z" fill="#A9AAA9"/>
<path d="M36.9466 25.9985H36.3676V23.7791H35.5255V23.2888H37.7624V23.7533H36.9203V25.9985H36.9466Z" fill="#A9AAA9"/>
<path d="M38.6571 25.9985H38.0781V23.2888H38.6571V25.9985Z" fill="#A9AAA9"/>
<path d="M39.7624 25.9985H39.1835V23.2888H41.1308V23.7533H39.7361V24.3727H40.9466V24.8372H39.7361V25.9985H39.7624Z" fill="#A9AAA9"/>
<path d="M42.0518 25.9985H41.4729V23.2888H42.0518V25.9985Z" fill="#A9AAA9"/>
<path d="M44.3413 24.1662C44.2887 24.0114 44.2097 23.7017 43.7361 23.7017C43.4729 23.7017 43.0519 23.8824 43.0519 24.6566C43.0519 25.1469 43.2361 25.5856 43.7361 25.5856C44.0519 25.5856 44.2887 25.405 44.3413 25.0695H44.9203C44.815 25.663 44.4203 26.0759 43.7361 26.0759C42.9992 26.0759 42.4729 25.5856 42.4729 24.6566C42.4729 23.7017 43.0255 23.2372 43.7361 23.2372C44.5519 23.2372 44.894 23.805 44.9203 24.1921H44.3413V24.1662Z" fill="#A9AAA9"/>
<path d="M45.736 25.9985H45.1307L46.1044 23.2888H46.7623L47.736 25.9985H47.1044L46.9202 25.4308H45.8939L45.736 25.9985ZM46.0781 24.9662H46.7886L46.4465 23.9082L46.0781 24.9662Z" fill="#A9AAA9"/>
<path d="M48.1307 23.2888H49.3413C50.2623 23.2888 50.4728 24.063 50.4728 24.5791C50.4728 25.1469 50.236 25.9985 49.3413 25.9985H48.1571V23.2888H48.1307ZM48.6834 25.534H49.236C49.7097 25.534 49.8676 25.0695 49.8676 24.6308C49.8676 23.8308 49.4728 23.7791 49.236 23.7791H48.6834V25.534Z" fill="#A9AAA9"/>
<path d="M52.0781 23.2114C52.4465 23.2114 53.3939 23.3662 53.3939 24.6307C53.3939 25.8953 52.4465 26.0501 52.0781 26.0501C51.7097 26.0501 50.7623 25.8953 50.7623 24.6307C50.7623 23.3662 51.7097 23.2114 52.0781 23.2114ZM52.0781 25.5856C52.3939 25.5856 52.815 25.4049 52.815 24.6307C52.815 23.8566 52.3676 23.6759 52.0781 23.6759C51.7623 23.6759 51.3413 23.8566 51.3413 24.6307C51.3413 25.4049 51.7623 25.5856 52.0781 25.5856Z" fill="#A9AAA9"/>
<path d="M55.3413 25.1469C55.3413 25.3017 55.4203 25.5856 55.9203 25.5856C56.1834 25.5856 56.4992 25.534 56.4992 25.2243C56.4992 25.0179 56.2887 24.9663 55.9992 24.8888L55.7097 24.8114C55.2624 24.7082 54.8413 24.605 54.8413 24.0114C54.8413 23.7017 54.9992 23.1856 55.894 23.1856C56.7361 23.1856 56.9729 23.7275 56.9729 24.063H56.4203C56.394 23.934 56.3676 23.6501 55.8676 23.6501C55.6571 23.6501 55.394 23.7275 55.394 23.9856C55.394 24.1921 55.5782 24.2437 55.6834 24.2695L56.3413 24.4243C56.7097 24.5017 57.0519 24.6566 57.0519 25.1469C57.0519 25.9469 56.2097 26.0243 55.9729 26.0243C54.9729 26.0243 54.7887 25.4566 54.7887 25.1211H55.3413V25.1469Z" fill="#A9AAA9"/>
<path d="M57.8939 25.1469C57.8939 25.3017 57.9729 25.5856 58.4729 25.5856C58.736 25.5856 59.0518 25.534 59.0518 25.2243C59.0518 25.0179 58.8413 24.9663 58.5518 24.8888L58.2624 24.8114C57.815 24.7082 57.3939 24.605 57.3939 24.0114C57.3939 23.7017 57.5518 23.1856 58.4466 23.1856C59.2887 23.1856 59.5255 23.7275 59.5255 24.063H58.9729C58.9466 23.934 58.9203 23.6501 58.4203 23.6501C58.2097 23.6501 57.9466 23.7275 57.9466 23.9856C57.9466 24.1921 58.1308 24.2437 58.236 24.2695L58.8939 24.4243C59.2624 24.5017 59.6045 24.6566 59.6045 25.1469C59.6045 25.9469 58.7624 26.0243 58.5255 26.0243C57.5255 26.0243 57.3413 25.4566 57.3413 25.1211H57.8939V25.1469Z" fill="#A9AAA9"/>
<path d="M60.6045 25.5082H61.9729V25.9985H60.0255V23.2888H60.6045V25.5082Z" fill="#A9AAA9"/>
<path d="M18.2098 16.3211H16.3413V10.2824C16.3413 7.65011 14.1571 5.50818 11.4729 5.50818C8.78872 5.50818 6.60451 7.65011 6.60451 10.2824V16.3211H4.73608V10.2824C4.73608 6.64366 7.7624 3.67592 11.4729 3.67592C15.1835 3.67592 18.2098 6.64366 18.2098 10.2824V16.3211Z" fill="#73726F"/>
<path d="M21.0518 25.4308C21.0518 25.8179 20.736 26.1275 20.3413 26.1275H2.60445C2.20971 26.1275 1.89392 25.8179 1.89392 25.4308V14.1533C1.89392 13.7663 2.20971 13.4566 2.60445 13.4566H20.315C20.7097 13.4566 21.0255 13.7663 21.0255 14.1533V25.4308H21.0518Z" fill="#FFCB02"/>
<path d="M21.0518 25.4308V18.5146C15.2097 23.3662 6.78867 25.1985 2.02551 25.8437C2.15709 26.0243 2.36762 26.1275 2.60446 26.1275H20.315C20.736 26.1533 21.0518 25.8437 21.0518 25.4308Z" fill="#FBB515"/>
<path d="M13.0518 17.8953C13.0518 17.0437 12.3413 16.3469 11.4729 16.3469C10.6044 16.3469 9.89392 17.0437 9.89392 17.8953C9.89392 18.4114 10.1571 18.8501 10.5255 19.134L10.0255 22.6437H12.9202L12.4202 19.134C12.815 18.8501 13.0518 18.3856 13.0518 17.8953Z" fill="#57595A"/>
<path d="M2.49915 14.7727V17.1985C2.55178 16.1662 3.07809 13.9211 6.23599 13.9211H3.36757C2.89388 13.9469 2.49915 14.3082 2.49915 14.7727Z" fill="#FFDB53"/>
<path d="M10.0255 22.6437C10.0255 22.6437 12.1834 22.0501 12.4203 19.134L12.9202 22.6437H10.0255Z" fill="#3C3B3E"/>
</svg>
