<svg width="13" height="12" viewBox="0 0 13 12" fill="none" xmlns="http://www.w3.org/2000/svg">
<g clip-path="url(#clip0_54_2895)">
<path d="M12.1679 4.397C12.0656 4.07145 11.8612 3.78746 11.5851 3.58702C11.3089 3.38658 10.9756 3.28033 10.6344 3.284H8.44985L7.78635 1.216C7.68201 0.890479 7.47699 0.606507 7.20084 0.405033C6.92469 0.203558 6.59169 0.0949936 6.24985 0.0949936C5.90802 0.0949936 5.57502 0.203558 5.29887 0.405033C5.02272 0.606507 4.81769 0.890479 4.71335 1.216L4.04985 3.284H1.86535C1.52522 3.28448 1.19395 3.39244 0.918842 3.59245C0.643736 3.79246 0.438873 4.0743 0.333513 4.39769C0.228153 4.72109 0.227687 5.06952 0.332181 5.39319C0.436674 5.71687 0.640783 5.99925 0.915352 6.2L2.69335 7.5L2.01735 9.5935C1.90811 9.91819 1.90672 10.2695 2.01341 10.595C2.12009 10.9206 2.32913 11.2029 2.60935 11.4C2.88478 11.6034 3.21855 11.7123 3.56093 11.7106C3.90331 11.7089 4.23597 11.5966 4.50935 11.3905L6.24985 10.1095L7.99085 11.389C8.26578 11.5912 8.59775 11.7011 8.93904 11.7027C9.28032 11.7044 9.61335 11.5978 9.89023 11.3983C10.1671 11.1987 10.3736 10.9165 10.48 10.5922C10.5864 10.268 10.5872 9.91828 10.4824 9.5935L9.80635 7.5L11.5864 6.2C11.8641 6.00177 12.0706 5.7194 12.1753 5.39467C12.28 5.06995 12.2774 4.72013 12.1679 4.397Z" fill="#FFCB02"/>
</g>
<defs>
<clipPath id="clip0_54_2895">
<rect width="12" height="12" fill="white" transform="translate(0.25)"/>
</clipPath>
</defs>
</svg>
