<svg width="47" height="34" viewBox="0 0 47 34" fill="none" xmlns="http://www.w3.org/2000/svg">
<path fill-rule="evenodd" clip-rule="evenodd" d="M15.3909 22.3101H12.599L10.5055 14.0882C10.4061 13.71 10.1952 13.3757 9.88481 13.2181C9.11028 12.8221 8.25681 12.5069 7.32574 12.348V12.0314H11.8232C12.4439 12.0314 12.9094 12.5069 12.987 13.0591L14.0732 18.9898L16.8637 12.0314H19.5779L15.3909 22.3101ZM21.1297 22.3101H18.4931L20.6642 12.0314H23.3008L21.1297 22.3101ZM26.712 14.879C26.7896 14.3254 27.2551 14.0089 27.7982 14.0089C28.6517 13.9294 29.5814 14.0883 30.3573 14.483L30.8228 12.2699C30.047 11.9534 29.1935 11.7944 28.419 11.7944C25.8599 11.7944 23.9978 13.2182 23.9978 15.1942C23.9978 16.6974 25.3168 17.4867 26.2478 17.9622C27.2551 18.4363 27.6431 18.7529 27.5655 19.227C27.5655 19.9382 26.7896 20.2547 26.0151 20.2547C25.084 20.2547 24.1529 20.0177 23.3008 19.6216L22.8353 21.836C23.7664 22.2307 24.7737 22.3897 25.7047 22.3897C28.5741 22.4678 30.3573 21.0454 30.3573 18.9104C30.3573 16.2219 26.712 16.0643 26.712 14.879ZM39.5849 22.3101L37.4914 12.0314H35.2427C34.7771 12.0314 34.3116 12.348 34.1564 12.8221L30.2797 22.3101H32.9939L33.5357 20.8082H36.8707L37.181 22.3101H39.5849ZM35.6306 14.7995L36.4051 18.6734H34.234L35.6306 14.7995Z" fill="#172B85"/>
</svg>
