<svg width="32" height="32" viewBox="0 0 32 32" fill="none" xmlns="http://www.w3.org/2000/svg">
<g opacity="0.5">
<path d="M7.38132 29.1813C7.59701 29.2935 7.83918 29.3449 8.08183 29.3298C8.32449 29.3148 8.55847 29.234 8.75866 29.096L26.092 17.096C26.2691 16.9733 26.4138 16.8095 26.5138 16.6186C26.6138 16.4277 26.666 16.2155 26.666 16C26.666 15.7845 26.6138 15.5723 26.5138 15.3814C26.4138 15.1905 26.2691 15.0267 26.092 14.904L8.75866 2.904C8.55862 2.76559 8.32453 2.68454 8.08174 2.66962C7.83895 2.65471 7.5967 2.7065 7.38123 2.81938C7.16576 2.93227 6.98527 3.10195 6.85932 3.31005C6.73336 3.51815 6.66674 3.75675 6.66666 4V28C6.66662 28.2434 6.73319 28.4821 6.85917 28.6904C6.98515 28.8986 7.16573 29.0684 7.38132 29.1813Z" fill="#F27580"/>
</g>
</svg>
